<svg width="24" height="16" viewBox="0 0 24 16" fill="none" xmlns="http://www.w3.org/2000/svg">
<path d="M0 9.54287L0.511049 10.1693L9.70993 3.15313V0.271484L0 9.54287Z" fill="black"/>
<path d="M1.27762 11.7981V11.1716L8.30455 7.91412L8.56007 10.1693L1.27762 11.7981Z" fill="black"/>
<path d="M0.255525 13.4268L0.511049 13.1763L9.70993 13.4268V15.8073L0.255525 13.4268Z" fill="black"/>
<path d="M14.6821 5.70359C15.0666 5.13395 15.5935 4.67111 16.2628 4.31508C16.9464 3.95905 17.7226 3.78103 18.5913 3.78103C19.6024 3.78103 20.5139 4.03026 21.3256 4.5287C22.1516 5.02714 22.7996 5.7392 23.2695 6.66487C23.7537 7.57631 23.9958 8.63728 23.9958 9.84778C23.9958 11.0583 23.7537 12.1335 23.2695 13.0734C22.7996 13.9991 22.1516 14.7183 21.3256 15.2309C20.5139 15.7436 19.6024 16 18.5913 16C17.7083 16 16.9322 15.8291 16.2628 15.4873C15.6077 15.1313 15.0808 14.6755 14.6821 14.1201V15.8077H11.6914V0H14.6821V5.70359ZM20.9411 9.84778C20.9411 9.13572 20.7916 8.52335 20.4925 8.01067C20.2077 7.48374 19.8232 7.08499 19.339 6.81441C18.869 6.54382 18.3563 6.40853 17.8009 6.40853C17.2597 6.40853 16.747 6.55095 16.2628 6.83577C15.7929 7.10635 15.4084 7.5051 15.1093 8.03203C14.8245 8.55895 14.6821 9.17844 14.6821 9.8905C14.6821 10.6026 14.8245 11.2221 15.1093 11.749C15.4084 12.2759 15.7929 12.6818 16.2628 12.9666C16.747 13.2372 17.2597 13.3725 17.8009 13.3725C18.3563 13.3725 18.869 13.2301 19.339 12.9452C19.8232 12.6604 20.2077 12.2545 20.4925 11.7276C20.7916 11.2007 20.9411 10.5741 20.9411 9.84778Z" fill="black"/>
</svg>
