<svg width="15" height="16" viewBox="0 0 15 16" fill="none" xmlns="http://www.w3.org/2000/svg">
<path d="M8.31111 16C3.55556 16 0 12.6444 0 8C0 3.35556 3.55556 0 8.33333 0C10.8667 0 13.0444 0.911111 14.4889 2.6L12.6222 4.35556C11.4889 3.13333 10.0889 2.53333 8.46667 2.53333C5.24444 2.53333 2.91111 4.8 2.91111 8C2.91111 11.2 5.24444 13.4667 8.46667 13.4667C10.0889 13.4667 11.4889 12.8667 12.6222 11.6222L14.4889 13.4C13.0444 15.0889 10.8667 16 8.31111 16Z" fill="black"/>
<ellipse cx="8.19863" cy="7.95815" rx="2.67983" ry="2.67983" fill="black"/>
</svg>
