<svg version="1.1" id="Layer_1" xmlns="http://www.w3.org/2000/svg" xmlns:xlink="http://www.w3.org/1999/xlink" x="0px" y="0px"
	 width="100%" viewBox="0 0 64 64" enable-background="new 0 0 64 64" xml:space="preserve">
<path fill="#FFFFFF" opacity="1.000000" stroke="none" 
	d="
M40.000038,65.000000 
	C26.666685,65.000000 13.833352,65.000000 1.000014,65.000000 
	C1.000010,43.666672 1.000010,22.333345 1.000005,1.000014 
	C22.333326,1.000010 43.666653,1.000010 64.999985,1.000005 
	C64.999985,22.333326 64.999985,43.666653 64.999992,64.999985 
	C56.833351,65.000000 48.666702,65.000000 40.000038,65.000000 
M8.174024,9.981555 
	C8.208526,25.635082 8.243028,41.288612 8.090660,57.495686 
	C8.412724,57.571098 8.734789,57.646511 9.981839,57.823448 
	C24.462833,57.826447 38.944363,57.764690 53.424397,57.884331 
	C56.506283,57.909794 57.937977,57.224854 57.897976,53.755100 
	C57.738731,39.941727 57.743546,26.124460 57.896011,12.310934 
	C57.933376,8.925534 56.657364,8.074788 53.493134,8.109200 
	C38.682468,8.270276 23.869707,8.238731 8.503545,8.089378 
	C8.427699,8.411775 8.351853,8.734172 8.174024,9.981555 
z"/>
<path fill="#000000" opacity="1.000000" stroke="none" 
	d="
M8.277530,56.942139 
	C8.243028,41.288612 8.208526,25.635082 8.423650,9.472109 
	C8.928741,8.805042 9.056881,8.576158 9.057695,8.276008 
	C23.869707,8.238731 38.682468,8.270276 53.493134,8.109200 
	C56.657364,8.074788 57.933376,8.925534 57.896011,12.310934 
	C57.743546,26.124460 57.738731,39.941727 57.897976,53.755100 
	C57.937977,57.224854 56.506283,57.909794 53.424397,57.884331 
	C38.944363,57.764690 24.462833,57.826447 9.473715,57.573582 
	C8.807926,57.067219 8.578573,56.940029 8.277530,56.942139 
M18.507851,40.479454 
	C18.507851,43.237011 18.507851,45.994568 18.507851,48.550560 
	C23.894907,50.060532 25.507397,48.030537 25.042471,43.404301 
	C24.801338,41.004894 25.000038,38.561287 25.000038,36.310848 
	C30.377781,36.310848 35.116898,36.310848 39.999977,36.310848 
	C39.999977,38.772224 39.997967,40.923302 40.000355,43.074371 
	C40.007427,49.444172 40.179153,49.577934 47.182068,48.394203 
	C47.182068,38.412487 47.182068,28.376034 47.182068,18.258329 
	C44.743172,18.258329 42.505047,18.258329 39.880585,18.258329 
	C39.880585,22.251116 39.880585,26.000830 39.880585,29.999363 
	C35.856007,29.999363 32.218365,29.892569 28.590269,30.032780 
	C25.628912,30.147223 24.842867,28.686279 24.972363,26.044538 
	C25.099813,23.444492 25.000168,20.833313 25.000168,18.273895 
	C22.536150,18.273895 20.618567,18.273895 18.507288,18.273895 
	C18.507288,25.525177 18.507288,32.504059 18.507851,40.479454 
z"/>
<path fill="#3F3F3F" opacity="1.000000" stroke="none" 
	d="
M8.780621,8.182693 
	C9.056881,8.576158 8.928741,8.805042 8.474642,9.009615 
	C8.351853,8.734172 8.427699,8.411775 8.780621,8.182693 
z"/>
<path fill="#3F3F3F" opacity="1.000000" stroke="none" 
	d="
M8.184095,57.218910 
	C8.578573,56.940029 8.807926,57.067219 9.011221,57.522820 
	C8.734789,57.646511 8.412724,57.571098 8.184095,57.218910 
z"/>
<path fill="#FFFFFF" opacity="1.000000" stroke="none" 
	d="
M18.507568,39.981194 
	C18.507288,32.504059 18.507288,25.525177 18.507288,18.273895 
	C20.618567,18.273895 22.536150,18.273895 25.000168,18.273895 
	C25.000168,20.833313 25.099813,23.444492 24.972363,26.044538 
	C24.842867,28.686279 25.628912,30.147223 28.590269,30.032780 
	C32.218365,29.892569 35.856007,29.999363 39.880585,29.999363 
	C39.880585,26.000830 39.880585,22.251116 39.880585,18.258329 
	C42.505047,18.258329 44.743172,18.258329 47.182068,18.258329 
	C47.182068,28.376034 47.182068,38.412487 47.182068,48.394203 
	C40.179153,49.577934 40.007427,49.444172 40.000355,43.074371 
	C39.997967,40.923302 39.999977,38.772224 39.999977,36.310848 
	C35.116898,36.310848 30.377781,36.310848 25.000038,36.310848 
	C25.000038,38.561287 24.801338,41.004894 25.042471,43.404301 
	C25.507397,48.030537 23.894907,50.060532 18.507851,48.550560 
	C18.507851,45.994568 18.507851,43.237011 18.507568,39.981194 
z"/>
</svg>