<svg width="139" height="48" viewBox="0 0 139 48" fill="none" xmlns="http://www.w3.org/2000/svg">
<path d="M15.4576 37.6246C6.41839 37.6246 0 31.5271 0 22.9693C0 14.4114 6.41839 8.36744 15.4576 8.36744C21.0202 8.36744 25.4596 10.6674 27.6525 14.9998L22.5178 17.995C20.8063 15.2672 18.2389 14.037 15.4041 14.037C10.4834 14.037 6.7393 17.4602 6.7393 22.9693C6.7393 28.5319 10.4834 31.9015 15.4041 31.9015C18.2389 31.9015 20.8063 30.6713 22.5178 27.9435L27.6525 30.9388C25.4596 35.2177 21.0202 37.6246 15.4576 37.6246Z" fill="#D5F145"/>
<path d="M44.3433 8.36744C52.5802 8.36744 57.3405 12.272 57.3405 20.5089V37.2502H51.0291V33.7736C49.4245 36.2339 46.3223 37.6246 42.0433 37.6246C35.518 37.6246 31.3995 34.041 31.3995 29.0667C31.3995 24.3064 34.6087 20.5624 43.2735 20.5624H50.6547V20.1345C50.6547 16.23 48.3013 13.93 43.541 13.93C40.3318 13.93 37.0156 14.9998 34.8761 16.7648L32.2553 11.8976C35.304 9.54415 39.7434 8.36744 44.3433 8.36744ZM43.434 32.7573C46.6967 32.7573 49.5315 31.2597 50.6547 28.3179V25.0018H43.7549C39.2086 25.0018 37.9784 26.7133 37.9784 28.7993C37.9784 31.2062 40.0109 32.7573 43.434 32.7573Z" fill="#D5F145"/>
<path d="M72.2858 12.8603C74.2113 9.86507 77.688 8.36744 82.4482 8.36744V14.7323C81.8599 14.6254 81.3785 14.5719 80.8971 14.5719C75.8159 14.5719 72.6067 17.5671 72.6067 23.3972V37.2502H65.9209V8.68836H72.2858V12.8603Z" fill="#D5F145"/>
<path d="M104.462 30.9388L106.334 35.6991C104.729 36.9827 102.322 37.6246 99.9154 37.6246C93.6574 37.6246 90.0738 34.3084 90.0738 27.997V14.251H85.367V8.90231H90.0738V2.37695H96.7597V8.90231H104.408V14.251H96.7597V27.8365C96.7597 30.6178 98.1503 32.1155 100.718 32.1155C102.108 32.1155 103.445 31.7411 104.462 30.9388Z" fill="#D5F145"/>
<path d="M131.636 8.68836H138.055L124.683 39.5501C122.062 46.022 118.425 48.001 113.665 48.001C110.83 48.001 107.835 47.0382 106.016 45.3801L108.69 40.4594C109.974 41.6896 111.793 42.4384 113.611 42.4384C115.965 42.4384 117.355 41.3152 118.639 38.4804L119.12 37.3572L106.658 8.68836H113.611L122.597 29.8155L131.636 8.68836Z" fill="#D5F145"/>
<path d="M138.369 6.68582C138.369 5.80782 138.196 4.93843 137.86 4.12727C137.524 3.31611 137.032 2.57907 136.411 1.95823C135.79 1.33739 135.053 0.844921 134.242 0.508927C133.431 0.172934 132.562 -3.83783e-08 131.684 0L131.684 6.68582H138.369Z" fill="#111111"/>
</svg>
