<svg width="40" height="48" viewBox="0 0 40 48" fill="none" xmlns="http://www.w3.org/2000/svg">
<g clip-path="url(#clip0_987_27297)">
<path fill-rule="evenodd" clip-rule="evenodd" d="M0.000119255 6.05078V17.3728L11.3222 6.05078H0.000119255ZM22.422 6.27262L0 28.6946V40.0163L29.5349 10.4814C27.7547 8.34139 25.2605 6.81702 22.422 6.27262ZM3.35848 47.9799L32.3481 18.9903C32.2002 21.6863 31.1758 24.2289 29.4404 26.2601C30.6583 27.4395 31.6189 28.844 32.2753 30.3848L14.6805 47.9799H3.35848Z" fill="black"/>
<path fill-rule="evenodd" clip-rule="evenodd" d="M26.1585 0H17.3715L6.0498 11.3218V22.6438L28.4718 0.221814C27.722 0.0781118 26.9492 0 26.1585 0ZM38.4185 12.2602C38.4185 9.28565 37.3533 6.55591 35.5847 4.43049L6.0498 33.9654V41.9289H9.40831L38.3979 12.9393C38.4102 12.7139 38.4185 12.4877 38.4185 12.2602ZM38.3249 24.334C38.9829 25.8784 39.3359 27.5596 39.3359 29.2882C39.3359 29.3084 39.3356 29.329 39.335 29.349C39.3356 29.3749 39.3359 29.3964 39.3359 29.4184C39.3359 33.892 37.2165 37.7201 33.5199 39.9263C31.4812 41.2366 29.1221 41.9289 26.6955 41.9289H20.7301L38.3249 24.334Z" fill="#00CFBE"/>
</g>
<defs>
<clipPath id="clip0_987_27297">
<rect width="40" height="48" fill="white"/>
</clipPath>
</defs>
</svg>
