<svg width="394" height="48" viewBox="0 0 394 48" fill="none" xmlns="http://www.w3.org/2000/svg">
<path d="M46.0109 5.20555V47.4552H37.5463V19.9748L26.2401 47.4552H19.8312L8.46456 19.9748V47.4552H0V5.20555H9.61332L23.0357 36.6204L36.458 5.20555H46.0109Z" fill="url(#paint0_linear_1008_28020)"/>
<path d="M58.6723 9.92686C57.1809 9.92686 55.9314 9.4628 54.9237 8.53468C53.9563 7.5662 53.4727 6.37579 53.4727 4.96343C53.4727 3.55107 53.9563 2.38083 54.9237 1.45271C55.9314 0.484237 57.1809 0 58.6723 0C60.1637 0 61.3931 0.484237 62.3604 1.45271C63.3681 2.38083 63.872 3.55107 63.872 4.96343C63.872 6.37579 63.3681 7.5662 62.3604 8.53468C61.3931 9.4628 60.1637 9.92686 58.6723 9.92686ZM62.8441 13.9218V47.4552H54.3796V13.9218H62.8441Z" fill="url(#paint1_linear_1008_28020)"/>
<path d="M89.7687 13.4376C93.7591 13.4376 96.9837 14.7087 99.4425 17.2509C101.901 19.7528 103.131 23.2636 103.131 27.7831V47.4552H94.666V28.9332C94.666 26.2699 94.001 24.232 92.6708 22.8197C91.3407 21.367 89.5268 20.6406 87.2293 20.6406C84.8915 20.6406 83.0374 21.367 81.6669 22.8197C80.3368 24.232 79.6717 26.2699 79.6717 28.9332V47.4552H71.2071V13.9218H79.6717V18.0984C80.8003 16.6456 82.2312 15.5158 83.9644 14.7087C85.738 13.8613 87.6727 13.4376 89.7687 13.4376Z" fill="url(#paint2_linear_1008_28020)"/>
<path d="M109.003 30.5675C109.003 27.1778 109.668 24.1715 110.999 21.5485C112.369 18.9256 114.223 16.9079 116.561 15.4956C118.899 14.0832 121.499 13.377 124.36 13.377C126.537 13.377 128.613 13.8613 130.588 14.8298C132.563 15.7579 134.135 17.0088 135.304 18.5826V2.66331H143.889V47.4552H135.304V42.4918C134.256 44.1463 132.785 45.4779 130.89 46.4868C128.996 47.4956 126.799 48 124.3 48C121.478 48 118.899 47.2736 116.561 45.8209C114.223 44.3682 112.369 42.3304 110.999 39.7074C109.668 37.0441 109.003 33.9975 109.003 30.5675ZM135.364 30.6885C135.364 28.6305 134.961 26.8752 134.155 25.4224C133.349 23.9294 132.261 22.7995 130.89 22.0328C129.52 21.2257 128.049 20.8222 126.477 20.8222C124.905 20.8222 123.454 21.2055 122.123 21.9723C120.793 22.739 119.705 23.8689 118.859 25.3619C118.052 26.8146 117.649 28.5498 117.649 30.5675C117.649 32.5851 118.052 34.3607 118.859 35.8941C119.705 37.3871 120.793 38.5372 122.123 39.3443C123.494 40.1513 124.945 40.5549 126.477 40.5549C128.049 40.5549 129.52 40.1715 130.89 39.4048C132.261 38.5977 133.349 37.4678 134.155 36.0151C134.961 34.5221 135.364 32.7465 135.364 30.6885Z" fill="url(#paint3_linear_1008_28020)"/>
<path d="M167.514 20.8827H161.649V47.4552H153.063V20.8827H149.254V13.9218H153.063V12.227C153.063 8.11097 154.232 5.08449 156.57 3.14754C158.908 1.21059 162.435 0.302649 167.151 0.423709V7.5662C165.095 7.52585 163.664 7.86885 162.858 8.59521C162.052 9.32156 161.649 10.633 161.649 12.5296V13.9218H167.514V20.8827Z" fill="url(#paint4_linear_1008_28020)"/>
<path d="M204.62 13.9218V47.4552H196.095V43.2182C195.007 44.6709 193.576 45.8209 191.802 46.6683C190.069 47.4754 188.175 47.8789 186.119 47.8789C183.499 47.8789 181.181 47.3342 179.166 46.2446C177.151 45.1147 175.559 43.4805 174.39 41.3417C173.261 39.1627 172.697 36.5801 172.697 33.5939V13.9218H181.161V32.3834C181.161 35.0467 181.826 37.1047 183.157 38.5574C184.487 39.9697 186.301 40.6759 188.598 40.6759C190.936 40.6759 192.77 39.9697 194.1 38.5574C195.43 37.1047 196.095 35.0467 196.095 32.3834V13.9218H204.62Z" fill="url(#paint5_linear_1008_28020)"/>
<path d="M221.436 2.66331V47.4552H212.972V2.66331H221.436Z" fill="url(#paint6_linear_1008_28020)"/>
<path d="M275.81 5.20555V47.4552H267.346V19.9748L256.04 47.4552H249.631L238.264 19.9748V47.4552H229.799V5.20555H239.413L252.835 36.6204L266.258 5.20555H275.81Z" fill="url(#paint7_linear_1008_28020)"/>
<path d="M299.052 48C295.828 48 292.926 47.2938 290.346 45.8815C287.766 44.4287 285.731 42.3909 284.24 39.768C282.788 37.145 282.063 34.1185 282.063 30.6885C282.063 27.2585 282.809 24.232 284.3 21.6091C285.832 18.9861 287.907 16.9685 290.527 15.5561C293.147 14.1034 296.07 13.377 299.294 13.377C302.519 13.377 305.441 14.1034 308.061 15.5561C310.681 16.9685 312.737 18.9861 314.228 21.6091C315.76 24.232 316.526 27.2585 316.526 30.6885C316.526 34.1185 315.74 37.145 314.168 39.768C312.636 42.3909 310.54 44.4287 307.88 45.8815C305.26 47.2938 302.317 48 299.052 48ZM299.052 40.7364C300.584 40.7364 302.015 40.3531 303.345 39.5864C304.716 38.8197 305.804 37.6898 306.61 36.1967C307.416 34.6633 307.819 32.8272 307.819 30.6885C307.819 28.5498 307.416 26.7339 306.61 25.2409C305.804 23.7074 304.736 22.5574 303.406 21.7907C302.116 21.024 300.705 20.6406 299.173 20.6406C296.795 20.6406 294.78 21.5284 293.127 23.3039C291.475 25.0391 290.648 27.5006 290.648 30.6885C290.648 33.8764 291.454 36.3581 293.067 38.1337C294.679 39.8689 296.674 40.7364 299.052 40.7364Z" fill="url(#paint8_linear_1008_28020)"/>
<path d="M337.608 48C334.384 48 331.482 47.2938 328.902 45.8815C326.322 44.4287 324.287 42.3909 322.795 39.768C321.344 37.145 320.619 34.1185 320.619 30.6885C320.619 27.2585 321.364 24.232 322.856 21.6091C324.387 18.9861 326.463 16.9685 329.083 15.5561C331.703 14.1034 334.625 13.377 337.85 13.377C341.075 13.377 343.997 14.1034 346.617 15.5561C349.237 16.9685 351.293 18.9861 352.784 21.6091C354.316 24.232 355.081 27.2585 355.081 30.6885C355.081 34.1185 354.296 37.145 352.724 39.768C351.192 42.3909 349.096 44.4287 346.436 45.8815C343.816 47.2938 340.873 48 337.608 48ZM337.608 40.7364C339.14 40.7364 340.571 40.3531 341.901 39.5864C343.271 38.8197 344.36 37.6898 345.166 36.1967C345.972 34.6633 346.375 32.8272 346.375 30.6885C346.375 28.5498 345.972 26.7339 345.166 25.2409C344.36 23.7074 343.292 22.5574 341.961 21.7907C340.672 21.024 339.261 20.6406 337.729 20.6406C335.351 20.6406 333.336 21.5284 331.683 23.3039C330.03 25.0391 329.204 27.5006 329.204 30.6885C329.204 33.8764 330.01 36.3581 331.623 38.1337C333.235 39.8689 335.23 40.7364 337.608 40.7364Z" fill="url(#paint9_linear_1008_28020)"/>
<path d="M359.114 30.5675C359.114 27.1778 359.779 24.1715 361.109 21.5485C362.48 18.9256 364.334 16.9079 366.672 15.4956C369.009 14.0832 371.609 13.377 374.471 13.377C376.648 13.377 378.724 13.8613 380.699 14.8298C382.674 15.7579 384.246 17.0088 385.415 18.5826V2.66331H394V47.4552H385.415V42.4918C384.367 44.1463 382.895 45.4779 381.001 46.4868C379.106 47.4956 376.91 48 374.411 48C371.589 48 369.009 47.2736 366.672 45.8209C364.334 44.3682 362.48 42.3304 361.109 39.7074C359.779 37.0441 359.114 33.9975 359.114 30.5675ZM385.475 30.6885C385.475 28.6305 385.072 26.8752 384.266 25.4224C383.46 23.9294 382.371 22.7995 381.001 22.0328C379.63 21.2257 378.159 20.8222 376.587 20.8222C375.015 20.8222 373.564 21.2055 372.234 21.9723C370.904 22.739 369.816 23.8689 368.969 25.3619C368.163 26.8146 367.76 28.5498 367.76 30.5675C367.76 32.5851 368.163 34.3607 368.969 35.8941C369.816 37.3871 370.904 38.5372 372.234 39.3443C373.604 40.1513 375.056 40.5549 376.587 40.5549C378.159 40.5549 379.63 40.1715 381.001 39.4048C382.371 38.5977 383.46 37.4678 384.266 36.0151C385.072 34.5221 385.475 32.7465 385.475 30.6885Z" fill="url(#paint10_linear_1008_28020)"/>
<defs>
<linearGradient id="paint0_linear_1008_28020" x1="197" y1="0" x2="197" y2="48" gradientUnits="userSpaceOnUse">
<stop stop-color="#D4ADF8"/>
<stop offset="1" stop-color="#7D6692"/>
</linearGradient>
<linearGradient id="paint1_linear_1008_28020" x1="197" y1="0" x2="197" y2="48" gradientUnits="userSpaceOnUse">
<stop stop-color="#D4ADF8"/>
<stop offset="1" stop-color="#7D6692"/>
</linearGradient>
<linearGradient id="paint2_linear_1008_28020" x1="197" y1="0" x2="197" y2="48" gradientUnits="userSpaceOnUse">
<stop stop-color="#D4ADF8"/>
<stop offset="1" stop-color="#7D6692"/>
</linearGradient>
<linearGradient id="paint3_linear_1008_28020" x1="197" y1="0" x2="197" y2="48" gradientUnits="userSpaceOnUse">
<stop stop-color="#D4ADF8"/>
<stop offset="1" stop-color="#7D6692"/>
</linearGradient>
<linearGradient id="paint4_linear_1008_28020" x1="197" y1="0" x2="197" y2="48" gradientUnits="userSpaceOnUse">
<stop stop-color="#D4ADF8"/>
<stop offset="1" stop-color="#7D6692"/>
</linearGradient>
<linearGradient id="paint5_linear_1008_28020" x1="197" y1="0" x2="197" y2="48" gradientUnits="userSpaceOnUse">
<stop stop-color="#D4ADF8"/>
<stop offset="1" stop-color="#7D6692"/>
</linearGradient>
<linearGradient id="paint6_linear_1008_28020" x1="197" y1="0" x2="197" y2="48" gradientUnits="userSpaceOnUse">
<stop stop-color="#D4ADF8"/>
<stop offset="1" stop-color="#7D6692"/>
</linearGradient>
<linearGradient id="paint7_linear_1008_28020" x1="197" y1="0" x2="197" y2="48" gradientUnits="userSpaceOnUse">
<stop stop-color="#D4ADF8"/>
<stop offset="1" stop-color="#7D6692"/>
</linearGradient>
<linearGradient id="paint8_linear_1008_28020" x1="197" y1="0" x2="197" y2="48" gradientUnits="userSpaceOnUse">
<stop stop-color="#D4ADF8"/>
<stop offset="1" stop-color="#7D6692"/>
</linearGradient>
<linearGradient id="paint9_linear_1008_28020" x1="197" y1="0" x2="197" y2="48" gradientUnits="userSpaceOnUse">
<stop stop-color="#D4ADF8"/>
<stop offset="1" stop-color="#7D6692"/>
</linearGradient>
<linearGradient id="paint10_linear_1008_28020" x1="197" y1="0" x2="197" y2="48" gradientUnits="userSpaceOnUse">
<stop stop-color="#D4ADF8"/>
<stop offset="1" stop-color="#7D6692"/>
</linearGradient>
</defs>
</svg>
