<svg width="223" height="48" viewBox="0 0 223 48" fill="none" xmlns="http://www.w3.org/2000/svg">
<path d="M23.0848 13.7143C23.0848 15.4096 22.6766 16.9991 21.8603 18.4825C21.0742 19.9659 19.8194 21.1618 18.096 22.07C16.4028 22.9782 14.2561 23.4324 11.6558 23.4324H6.34946V35.6026H0V3.90539H11.6558C14.1049 3.90539 16.1911 4.32923 17.9146 5.17692C19.638 6.0246 20.923 7.19016 21.7696 8.6736C22.6464 10.157 23.0848 11.8373 23.0848 13.7143ZM11.3837 18.4371C13.1071 18.4371 14.3921 18.0132 15.2387 17.1656C16.1155 16.3179 16.554 15.1675 16.554 13.7143C16.554 12.2006 16.1307 11.035 15.2841 10.2176C14.4375 9.36992 13.1373 8.94607 11.3837 8.94607H6.34946V18.4371H11.3837Z" fill="url(#paint0_linear_1090_25763)"/>
<path d="M25.9602 22.9328C25.9602 20.3898 26.459 18.1343 27.4568 16.1665C28.4848 14.1987 29.8605 12.685 31.584 11.6254C33.3376 10.5658 35.2878 10.036 37.4345 10.036C39.3091 10.036 40.9419 10.4144 42.3327 11.1712C43.7538 11.9281 44.8876 12.8817 45.7342 14.0322V10.4447H52.129V35.6026H45.7342V31.9243C44.9178 33.105 43.784 34.0889 42.3327 34.8761C40.9116 35.6329 39.2638 36.0114 37.3892 36.0114C35.2727 36.0114 33.3376 35.4664 31.584 34.3765C29.8605 33.2867 28.4848 31.7578 27.4568 29.79C26.459 27.7919 25.9602 25.5061 25.9602 22.9328ZM45.7342 23.0237C45.7342 21.4797 45.4318 20.1627 44.8271 19.0728C44.2224 17.9527 43.4061 17.105 42.378 16.5298C41.35 15.9243 40.2464 15.6216 39.0673 15.6216C37.8881 15.6216 36.7996 15.9092 35.8018 16.4844C34.804 17.0596 33.9877 17.9073 33.3527 19.0274C32.748 20.1173 32.4457 21.4191 32.4457 22.9328C32.4457 24.4465 32.748 25.7786 33.3527 26.929C33.9877 28.0492 34.804 28.912 35.8018 29.5175C36.8298 30.123 37.9183 30.4257 39.0673 30.4257C40.2464 30.4257 41.35 30.1381 42.378 29.5629C43.4061 28.9574 44.2224 28.1097 44.8271 27.0199C45.4318 25.8997 45.7342 24.5676 45.7342 23.0237Z" fill="url(#paint1_linear_1090_25763)"/>
<path d="M64.6798 14.895C65.4962 13.3813 66.5544 12.2006 67.8545 11.3529C69.1849 10.5052 70.6967 10.0814 72.3899 10.0814V16.7569H70.7118C68.7163 16.7569 67.2045 17.2261 66.1765 18.1646C65.1787 19.1031 64.6798 20.7379 64.6798 23.0691V35.6026H58.3304V10.4447H64.6798V14.895Z" fill="url(#paint2_linear_1090_25763)"/>
<path d="M75.0338 22.9328C75.0338 20.3898 75.5327 18.1343 76.5305 16.1665C77.5585 14.1987 78.9342 12.685 80.6576 11.6254C82.4113 10.5658 84.3615 10.036 86.5082 10.036C88.3828 10.036 90.0155 10.4144 91.4064 11.1712C92.8274 11.9281 93.9613 12.8817 94.8079 14.0322V10.4447H101.203V35.6026H94.8079V31.9243C93.9915 33.105 92.8577 34.0889 91.4064 34.8761C89.9853 35.6329 88.3375 36.0114 86.4629 36.0114C84.3464 36.0114 82.4113 35.4664 80.6576 34.3765C78.9342 33.2867 77.5585 31.7578 76.5305 29.79C75.5327 27.7919 75.0338 25.5061 75.0338 22.9328ZM94.8079 23.0237C94.8079 21.4797 94.5055 20.1627 93.9008 19.0728C93.2961 17.9527 92.4797 17.105 91.4517 16.5298C90.4237 15.9243 89.3201 15.6216 88.1409 15.6216C86.9617 15.6216 85.8733 15.9092 84.8755 16.4844C83.8777 17.0596 83.0614 17.9073 82.4264 19.0274C81.8217 20.1173 81.5193 21.4191 81.5193 22.9328C81.5193 24.4465 81.8217 25.7786 82.4264 26.929C83.0614 28.0492 83.8777 28.912 84.8755 29.5175C85.9035 30.123 86.992 30.4257 88.1409 30.4257C89.3201 30.4257 90.4237 30.1381 91.4517 29.5629C92.4797 28.9574 93.2961 28.1097 93.9008 27.0199C94.5055 25.8997 94.8079 24.5676 94.8079 23.0237Z" fill="url(#paint3_linear_1090_25763)"/>
<path d="M105.771 22.9328C105.771 20.3898 106.27 18.1343 107.268 16.1665C108.296 14.1987 109.687 12.685 111.44 11.6254C113.194 10.5658 115.144 10.036 117.291 10.036C118.924 10.036 120.481 10.3992 121.962 11.1258C123.444 11.8221 124.623 12.7606 125.5 13.9413V1.99811H131.94V35.6026H125.5V31.8789C124.714 33.1202 123.61 34.1192 122.189 34.8761C120.768 35.6329 119.12 36.0114 117.246 36.0114C115.129 36.0114 113.194 35.4664 111.44 34.3765C109.687 33.2867 108.296 31.7578 107.268 29.79C106.27 27.7919 105.771 25.5061 105.771 22.9328ZM125.545 23.0237C125.545 21.4797 125.243 20.1627 124.638 19.0728C124.034 17.9527 123.217 17.105 122.189 16.5298C121.161 15.9243 120.058 15.6216 118.878 15.6216C117.699 15.6216 116.611 15.9092 115.613 16.4844C114.615 17.0596 113.799 17.9073 113.164 19.0274C112.559 20.1173 112.257 21.4191 112.257 22.9328C112.257 24.4465 112.559 25.7786 113.164 26.929C113.799 28.0492 114.615 28.912 115.613 29.5175C116.641 30.123 117.729 30.4257 118.878 30.4257C120.058 30.4257 121.161 30.1381 122.189 29.5629C123.217 28.9574 124.034 28.1097 124.638 27.0199C125.243 25.8997 125.545 24.5676 125.545 23.0237Z" fill="url(#paint4_linear_1090_25763)"/>
<path d="M141.362 7.44749C140.243 7.44749 139.306 7.09934 138.55 6.40303C137.824 5.67644 137.461 4.78335 137.461 3.72375C137.461 2.66414 137.824 1.78619 138.55 1.08988C139.306 0.363292 140.243 0 141.362 0C142.48 0 143.402 0.363292 144.128 1.08988C144.884 1.78619 145.262 2.66414 145.262 3.72375C145.262 4.78335 144.884 5.67644 144.128 6.40303C143.402 7.09934 142.48 7.44749 141.362 7.44749ZM144.491 10.4447V35.6026H138.142V10.4447H144.491Z" fill="url(#paint5_linear_1090_25763)"/>
<path d="M160.606 10.036C162.481 10.036 164.128 10.4144 165.549 11.1712C166.971 11.8978 168.089 12.8515 168.906 14.0322V10.4447H175.3V35.7843C175.3 38.1154 174.832 40.1892 173.894 42.0057C172.957 43.8524 171.551 45.3056 169.677 46.3652C167.802 47.4551 165.534 48 162.874 48C159.306 48 156.373 47.1675 154.075 45.5024C151.807 43.8373 150.522 41.5667 150.22 38.6906H156.524C156.857 39.8411 157.567 40.7493 158.656 41.4153C159.774 42.1116 161.12 42.4598 162.692 42.4598C164.537 42.4598 166.033 41.8997 167.182 40.7796C168.331 39.6897 168.906 38.0246 168.906 35.7843V31.8789C168.089 33.0596 166.955 34.0435 165.504 34.8307C164.083 35.6178 162.45 36.0114 160.606 36.0114C158.489 36.0114 156.554 35.4664 154.801 34.3765C153.047 33.2867 151.656 31.7578 150.628 29.79C149.63 27.7919 149.132 25.5061 149.132 22.9328C149.132 20.3898 149.63 18.1343 150.628 16.1665C151.656 14.1987 153.032 12.685 154.755 11.6254C156.509 10.5658 158.459 10.036 160.606 10.036ZM168.906 23.0237C168.906 21.4797 168.603 20.1627 167.999 19.0728C167.394 17.9527 166.577 17.105 165.549 16.5298C164.521 15.9243 163.418 15.6216 162.239 15.6216C161.059 15.6216 159.971 15.9092 158.973 16.4844C157.975 17.0596 157.159 17.9073 156.524 19.0274C155.919 20.1173 155.617 21.4191 155.617 22.9328C155.617 24.4465 155.919 25.7786 156.524 26.929C157.159 28.0492 157.975 28.912 158.973 29.5175C160.001 30.123 161.09 30.4257 162.239 30.4257C163.418 30.4257 164.521 30.1381 165.549 29.5629C166.577 28.9574 167.394 28.1097 167.999 27.0199C168.603 25.8997 168.906 24.5676 168.906 23.0237Z" fill="url(#paint6_linear_1090_25763)"/>
<path d="M212.705 10.0814C215.789 10.0814 218.268 11.035 220.143 12.9423C222.048 14.8193 223 17.4532 223 20.8439V35.6026H216.651V21.7067C216.651 19.7389 216.152 18.2403 215.154 17.211C214.156 16.1514 212.796 15.6216 211.072 15.6216C209.349 15.6216 207.973 16.1514 206.945 17.211C205.947 18.2403 205.448 19.7389 205.448 21.7067V35.6026H199.099V21.7067C199.099 19.7389 198.6 18.2403 197.602 17.211C196.604 16.1514 195.244 15.6216 193.52 15.6216C191.767 15.6216 190.376 16.1514 189.348 17.211C188.35 18.2403 187.851 19.7389 187.851 21.7067V35.6026H181.502V10.4447H187.851V13.4872C188.668 12.4276 189.711 11.5951 190.981 10.9896C192.281 10.3841 193.702 10.0814 195.244 10.0814C197.209 10.0814 198.963 10.5052 200.505 11.3529C202.047 12.1703 203.241 13.351 204.088 14.895C204.904 13.4418 206.083 12.2763 207.625 11.3983C209.197 10.5203 210.891 10.0814 212.705 10.0814Z" fill="url(#paint7_linear_1090_25763)"/>
<defs>
<linearGradient id="paint0_linear_1090_25763" x1="111.5" y1="0" x2="111.5" y2="48" gradientUnits="userSpaceOnUse">
<stop stop-color="#08668E"/>
<stop offset="1" stop-color="#0DB0F4"/>
</linearGradient>
<linearGradient id="paint1_linear_1090_25763" x1="111.5" y1="0" x2="111.5" y2="48" gradientUnits="userSpaceOnUse">
<stop stop-color="#08668E"/>
<stop offset="1" stop-color="#0DB0F4"/>
</linearGradient>
<linearGradient id="paint2_linear_1090_25763" x1="111.5" y1="0" x2="111.5" y2="48" gradientUnits="userSpaceOnUse">
<stop stop-color="#08668E"/>
<stop offset="1" stop-color="#0DB0F4"/>
</linearGradient>
<linearGradient id="paint3_linear_1090_25763" x1="111.5" y1="0" x2="111.5" y2="48" gradientUnits="userSpaceOnUse">
<stop stop-color="#08668E"/>
<stop offset="1" stop-color="#0DB0F4"/>
</linearGradient>
<linearGradient id="paint4_linear_1090_25763" x1="111.5" y1="0" x2="111.5" y2="48" gradientUnits="userSpaceOnUse">
<stop stop-color="#08668E"/>
<stop offset="1" stop-color="#0DB0F4"/>
</linearGradient>
<linearGradient id="paint5_linear_1090_25763" x1="111.5" y1="0" x2="111.5" y2="48" gradientUnits="userSpaceOnUse">
<stop stop-color="#08668E"/>
<stop offset="1" stop-color="#0DB0F4"/>
</linearGradient>
<linearGradient id="paint6_linear_1090_25763" x1="111.5" y1="0" x2="111.5" y2="48" gradientUnits="userSpaceOnUse">
<stop stop-color="#08668E"/>
<stop offset="1" stop-color="#0DB0F4"/>
</linearGradient>
<linearGradient id="paint7_linear_1090_25763" x1="111.5" y1="0" x2="111.5" y2="48" gradientUnits="userSpaceOnUse">
<stop stop-color="#08668E"/>
<stop offset="1" stop-color="#0DB0F4"/>
</linearGradient>
</defs>
</svg>
