<svg width="40" height="40" viewBox="0 0 40 40" fill="none" xmlns="http://www.w3.org/2000/svg">
<g clip-path="url(#clip0_2027_24281)">
<path d="M40 0H0V40H40V0Z" fill="#2A0034"/>
<path d="M37.9747 2.02532V37.9747H2.02532V2.02532H37.9747ZM40 0H0V40H40V0Z" fill="#EA77FF"/>
<path d="M21.1646 16.1519C21.1646 17.9747 20.557 19.3924 19.2912 20.3545C18.0253 21.3165 16.2532 21.8228 13.9241 21.8228H11.7975V28.9114H9.6709V10.8861H14.3798C18.8861 10.8861 21.1646 12.6583 21.1646 16.1519ZM11.7975 20.0507H13.6709C15.5443 20.0507 16.8608 19.7469 17.7215 19.1393C18.5317 18.5317 18.9874 17.5697 18.9874 16.2532C18.9874 15.038 18.5823 14.1772 17.8228 13.5697C17.0633 12.9621 15.7975 12.7089 14.1772 12.7089H11.8481V20.0507H11.7975Z" fill="#EA77FF" stroke="#EA77FF" stroke-width="2" stroke-miterlimit="10"/>
<path d="M30.8353 15.1899C31.4429 15.1899 31.9998 15.2406 32.4555 15.3418L32.1517 17.2153C31.5948 17.114 31.0884 17.0127 30.6834 17.0127C29.5694 17.0127 28.6581 17.4684 27.8479 18.3292C27.0378 19.1899 26.6834 20.3039 26.6834 21.671V28.9621H24.6074V15.4431H26.3289L26.5821 17.9748H26.6834C27.1897 17.114 27.7973 16.4051 28.5062 15.9494C29.1644 15.3925 29.9745 15.1899 30.8353 15.1899Z" fill="#EA77FF" stroke="#EA77FF" stroke-width="2" stroke-miterlimit="10"/>
</g>
<defs>
<clipPath id="clip0_2027_24281">
<rect width="40" height="40" fill="white"/>
</clipPath>
</defs>
</svg>
