<svg width="40" height="40" viewBox="0 0 40 40" fill="none" xmlns="http://www.w3.org/2000/svg">
<g clip-path="url(#clip0_2027_24259)">
<path d="M40 0H0V40H40V0Z" fill="#380F10"/>
<path d="M37.9747 2.02532V37.9747H2.02532V2.02532H37.9747ZM40 0H0V40H40V0Z" fill="#F37021"/>
<path d="M23.443 29.2152L21.2152 23.4431H13.924L11.6962 29.2152H9.56958L16.7088 11.0886H18.481L25.5696 29.2152H23.443ZM20.5063 21.5696L18.3797 15.9494C18.1265 15.2405 17.8227 14.3798 17.5189 13.3165C17.3164 14.1266 17.0633 14.9874 16.7595 15.9494L14.6835 21.5696H20.5063Z" fill="#F37021" stroke="#F37021" stroke-width="2" stroke-miterlimit="10"/>
<path d="M27.5947 12C27.5947 11.5444 27.696 11.1899 27.9492 10.9874C28.2023 10.7849 28.4555 10.6836 28.8099 10.6836C29.1643 10.6836 29.4175 10.7849 29.6707 11.038C29.9238 11.2406 30.0251 11.595 30.0251 12.0507C30.0251 12.5064 29.9238 12.8608 29.6707 13.0633C29.4175 13.2659 29.1643 13.4178 28.8099 13.4178C28.4555 13.4178 28.1517 13.3165 27.9492 13.0633C27.7466 12.8102 27.5947 12.4557 27.5947 12ZM29.8226 29.2152H27.7466V15.6963H29.8226V29.2152Z" fill="#F37021" stroke="#F37021" stroke-width="2" stroke-miterlimit="10"/>
</g>
<defs>
<clipPath id="clip0_2027_24259">
<rect width="40" height="40" fill="white"/>
</clipPath>
</defs>
</svg>
