<svg width="40" height="40" viewBox="0 0 40 40" fill="none" xmlns="http://www.w3.org/2000/svg">
<g clip-path="url(#clip0_2027_24270)">
<path d="M40 0H0V40H40V0Z" fill="#061E26"/>
<path d="M37.9747 2.02532V37.9747H2.02532V2.02532H37.9747ZM40 0H0V40H40V0Z" fill="#26C9FF"/>
<path d="M19.7974 15.9494C19.7974 17.7722 19.1898 19.1899 17.924 20.1519C16.6581 21.114 14.886 21.6203 12.5569 21.6203H10.4303V28.7089H8.30371V10.6836H13.0126C17.5695 10.6836 19.7974 12.4557 19.7974 15.9494ZM10.4303 19.8482H12.3037C14.1771 19.8482 15.4936 19.5444 16.3543 18.9368C17.1645 18.3292 17.6202 17.3671 17.6202 16.0507C17.6202 14.8355 17.2151 13.9747 16.4556 13.3671C15.6961 12.7595 14.4303 12.5064 12.81 12.5064H10.4809V19.8482H10.4303Z" fill="#D9F5FF" stroke="#D9F5FF" stroke-width="2" stroke-miterlimit="10"/>
<path d="M32.0001 25.0633C32.0001 26.3292 31.5444 27.2912 30.5824 28.0001C29.6204 28.7089 28.3039 29.0127 26.633 29.0127C24.8609 29.0127 23.4432 28.7089 22.4305 28.152V26.2279C23.0887 26.5823 23.7976 26.8355 24.5065 26.9874C25.266 27.1899 25.9748 27.2912 26.6837 27.2912C27.747 27.2912 28.5571 27.1393 29.1647 26.7849C29.7217 26.4304 30.0255 25.9241 30.0255 25.2152C30.0255 24.7089 29.7723 24.2532 29.3166 23.8482C28.8609 23.4937 27.9495 23.038 26.633 22.5317C25.3672 22.076 24.4558 21.6709 23.9495 21.3165C23.4432 20.9621 23.0381 20.557 22.7849 20.1013C22.5318 19.6456 22.3799 19.1393 22.3799 18.5317C22.3799 17.4178 22.8356 16.557 23.747 15.8988C24.6584 15.2406 25.8736 14.9368 27.4432 14.9368C28.9115 14.9368 30.3292 15.2406 31.6963 15.8482L30.9875 17.519C29.6204 16.9621 28.4052 16.6583 27.2913 16.6583C26.3293 16.6583 25.5698 16.8102 25.1141 17.114C24.6077 17.4178 24.3546 17.8228 24.3546 18.3798C24.3546 18.7342 24.4558 19.038 24.6077 19.2912C24.8103 19.5444 25.1141 19.7975 25.5191 20.0001C25.9242 20.2532 26.7343 20.557 27.8989 21.0127C29.5191 21.6203 30.5824 22.1773 31.1394 22.7849C31.747 23.4431 32.0001 24.152 32.0001 25.0633Z" fill="#D9F5FF" stroke="#D9F5FF" stroke-width="2" stroke-miterlimit="10"/>
</g>
<defs>
<clipPath id="clip0_2027_24270">
<rect width="40" height="40" fill="white"/>
</clipPath>
</defs>
</svg>
