<svg width="40" height="40" viewBox="0 0 40 40" fill="none" xmlns="http://www.w3.org/2000/svg">
<g clip-path="url(#clip0_2027_24303)">
<path d="M0.5 4.83333C0.5 2.44167 2.44167 0.5 4.83333 0.5H35.1667C37.5583 0.5 39.5 2.44167 39.5 4.83333V35.1667C39.5 37.5583 37.5583 39.5 35.1667 39.5H4.83333C2.44167 39.5 0.5 37.5583 0.5 35.1667V4.83333Z" fill="#B388FF"/>
<path d="M3.75 3.75V36.25H36.25V3.75H3.75Z" fill="#170B40"/>
<path d="M16.9502 24.2916H12.0168L11.0752 27.375H8.0835L13.1668 12.4166H15.7752L20.8835 27.375H17.8918L16.9502 24.2916ZM12.7752 21.8H16.1918L14.4752 16.2L12.7752 21.8ZM26.6585 27.5833C25.8668 27.5833 25.1668 27.4416 24.5418 27.1583C23.9168 26.875 23.3918 26.4916 22.9585 26.0083C22.5252 25.525 22.1918 24.95 21.9668 24.3C21.7418 23.6416 21.6252 22.9416 21.6252 22.2V21.8C21.6252 20.9583 21.7335 20.1833 21.9585 19.4833C22.1835 18.7833 22.4918 18.175 22.9085 17.6666C23.3168 17.1583 23.8168 16.7666 24.4002 16.4833C24.9835 16.2 25.6418 16.0583 26.3668 16.0583C27.1002 16.0583 27.7418 16.1916 28.3002 16.45C28.8585 16.7083 29.3252 17.0833 29.7002 17.5583C30.0752 18.0333 30.3668 18.6083 30.5502 19.2833C30.7418 19.9583 30.8335 20.7 30.8335 21.525V22.7916H24.3668C24.4085 23.1583 24.5002 23.4833 24.6335 23.775C24.7668 24.0666 24.9418 24.325 25.1502 24.5333C25.3585 24.7416 25.6085 24.9083 25.8835 25.025C26.1668 25.1416 26.4835 25.2 26.8335 25.2C27.3252 25.2 27.7835 25.1 28.2002 24.9C28.6168 24.7 28.9752 24.3833 29.2752 23.9583L30.6085 25.5916C30.4418 25.8416 30.2418 26.0916 30.0002 26.3333C29.7585 26.575 29.4668 26.7833 29.1335 26.975C28.8002 27.1666 28.4335 27.3166 28.0085 27.425C27.6085 27.525 27.1502 27.5833 26.6585 27.5833ZM26.3502 18.4583C26.0585 18.4583 25.8002 18.5166 25.5752 18.625C25.3502 18.7416 25.1585 18.9 25.0002 19.1C24.8418 19.3 24.7085 19.5416 24.6085 19.825C24.5085 20.1083 24.4335 20.4166 24.3918 20.7583H28.1668V20.525C28.1585 20.2333 28.1252 19.9583 28.0502 19.7C27.9752 19.45 27.8668 19.225 27.7252 19.0416C27.5752 18.8583 27.3918 18.7166 27.1668 18.6083C26.9335 18.5083 26.6585 18.4583 26.3502 18.4583Z" fill="#B388FF"/>
</g>
<defs>
<clipPath id="clip0_2027_24303">
<rect width="40" height="40" fill="white"/>
</clipPath>
</defs>
</svg>
