<svg width="40" height="40" viewBox="0 0 40 40" fill="none" xmlns="http://www.w3.org/2000/svg">
<g clip-path="url(#clip0_2027_24292)">
<path d="M40 0H0V40H40V0Z" fill="#2E001F"/>
<path d="M37.9747 2.02532V37.9747H2.02532V2.02532H37.9747ZM40 0H0V40H40V0Z" fill="#FF26BE"/>
<path d="M19.4431 29.4177H17.0633L12.2026 21.4684L7.24054 29.4177H5.0127L11.038 19.9494L5.41776 11.3418H7.74687L12.2532 18.481L16.7595 11.3418H18.9874L13.4178 19.8988L19.4431 29.4177Z" fill="#FFD9F2" stroke="#FFD9F2" stroke-width="2" stroke-miterlimit="10"/>
<path d="M30.9366 27.595H30.8353C29.8733 28.9621 28.4556 29.6709 26.5822 29.6709C24.81 29.6709 23.4429 29.0633 22.4303 27.8481C21.4682 26.6329 20.9619 24.9114 20.9619 22.6836C20.9619 20.4557 21.4682 18.7342 22.4303 17.4684C23.3923 16.2026 24.81 15.595 26.5822 15.595C28.405 15.595 29.8227 16.2532 30.7847 17.6203H30.9366L30.886 16.6583L30.8353 15.6962V10.1772H32.9113V29.4178H31.2404L30.9366 27.595ZM26.8353 27.9494C28.2531 27.9494 29.2657 27.5443 29.8733 26.7848C30.4809 26.0253 30.8353 24.8102 30.8353 23.0886V22.6329C30.8353 20.7089 30.5315 19.3418 29.8733 18.5317C29.2151 17.7215 28.2024 17.3165 26.8353 17.3165C25.6201 17.3165 24.7087 17.7722 24.0505 18.7342C23.3923 19.6456 23.0885 21.0127 23.0885 22.6836C23.0885 24.4051 23.3923 25.7216 24.0505 26.5823C24.6581 27.4937 25.6201 27.9494 26.8353 27.9494Z" fill="#FFD9F2" stroke="#FFD9F2" stroke-width="2" stroke-miterlimit="10"/>
</g>
<defs>
<clipPath id="clip0_2027_24292">
<rect width="40" height="40" fill="white"/>
</clipPath>
</defs>
</svg>
