<svg width="39" height="39" viewBox="0 0 39 39" fill="none" xmlns="http://www.w3.org/2000/svg">
<path d="M1.333 15.7547H12.4287C13.1637 15.7547 13.7617 15.1567 13.7617 14.4217V9.45527C13.7617 7.74864 12.3732 6.36018 10.6665 6.36018H10.0927C10.5827 5.69726 10.8731 4.87819 10.8731 3.99231C10.8731 1.79095 9.08218 0 6.88082 0C4.67945 0 2.88851 1.79095 2.88851 3.99231C2.88851 4.87811 3.17887 5.69718 3.66896 6.36018H3.09508C1.38846 6.36018 0 7.74864 0 9.45527V9.57608C0 9.89158 0.255708 10.1474 0.571288 10.1474C0.886867 10.1474 1.14258 9.89158 1.14258 9.57608V9.45527C1.14258 8.37866 2.01847 7.50276 3.09508 7.50276H4.79981L5.66276 9.77382L4.68212 14.6122H1.333C1.22796 14.6122 1.14258 14.5267 1.14258 14.4217V12.2422C1.14258 11.9267 0.886867 11.6709 0.571288 11.6709C0.255708 11.6709 0 11.9267 0 12.2422V14.4217C0 15.1567 0.598024 15.7547 1.333 15.7547ZM6.18133 7.92201C6.40863 7.96238 6.64209 7.98462 6.88082 7.98462C7.1136 7.98462 7.34143 7.96344 7.56331 7.92505L7.10537 9.15408H6.64948L6.18133 7.92201ZM12.6191 9.45527V14.4217C12.6191 14.5267 12.5337 14.6122 12.4287 14.6122H9.05133L8.094 9.77328L8.94012 7.50276H10.6665C11.7432 7.50276 12.6191 8.37866 12.6191 9.45527ZM6.88082 1.14258C8.45216 1.14258 9.73055 2.42096 9.73055 3.99231C9.73055 5.56366 8.45216 6.84204 6.88082 6.84204C5.30947 6.84204 4.03108 5.56366 4.03108 3.99231C4.03108 2.42096 5.30947 1.14258 6.88082 1.14258ZM6.72261 10.2967H7.03286L7.88659 14.6122H5.84785L6.72261 10.2967Z" fill="black"/>
<path d="M35.9049 29.6054H35.331C35.821 28.9425 36.1115 28.1234 36.1115 27.2375C36.1115 25.0362 34.3205 23.2452 32.1192 23.2452C29.9178 23.2452 28.1269 25.0362 28.1269 27.2375C28.1269 28.1233 28.4172 28.9424 28.9073 29.6054H28.3334C26.6421 29.6054 25.2539 30.9814 25.2389 32.6777V33.2871C25.2389 33.6026 25.4946 33.8584 25.8102 33.8584C26.1258 33.8584 26.3815 33.6026 26.3815 33.2871V32.6828C26.3909 31.6159 27.2666 30.748 28.3334 30.748H30.0381L30.901 33.019L29.9203 37.8574H26.5713C26.4662 37.8574 26.3809 37.7719 26.3809 37.667V35.9531C26.3809 35.6376 26.1251 35.3818 25.8096 35.3818C25.494 35.3818 25.2383 35.6376 25.2383 35.9531V37.667C25.2383 38.402 25.8363 39 26.5713 39H37.667C38.402 39 39 38.402 39 37.667V32.7005C39 30.9939 37.6115 29.6054 35.9049 29.6054ZM32.3437 32.3992H31.8878L31.4197 31.1672C31.647 31.2076 31.8805 31.2299 32.1192 31.2299C32.352 31.2299 32.5797 31.2087 32.8017 31.1703L32.3437 32.3992ZM32.1192 24.3878C33.6905 24.3878 34.9689 25.6662 34.9689 27.2375C34.9689 28.8089 33.6905 30.0873 32.1192 30.0873C30.5478 30.0873 29.2694 28.8089 29.2694 27.2375C29.2694 25.6662 30.5478 24.3878 32.1192 24.3878ZM31.0861 37.8574L31.9608 33.5418H32.2711L33.1249 37.8574H31.0861ZM37.8574 37.667C37.8574 37.7719 37.772 37.8574 37.667 37.8574H34.2897L33.3324 33.0184L34.1784 30.748H35.9049C36.9815 30.748 37.8574 31.6239 37.8574 32.7005V37.667Z" fill="black"/>
<path d="M10.6665 29.6054H10.0927C10.5827 28.9425 10.8731 28.1234 10.8731 27.2375C10.8731 25.0362 9.08218 23.2452 6.88082 23.2452C4.67945 23.2452 2.88851 25.0362 2.88851 27.2375C2.88851 28.1233 3.17887 28.9424 3.66896 29.6054H3.09516C1.38853 29.6054 0 30.9939 0 32.7005V37.667C0 38.402 0.598024 39 1.333 39H12.4287C13.1637 39 13.7617 38.402 13.7617 37.667V35.9531C13.7617 35.6376 13.506 35.3818 13.1904 35.3818C12.8748 35.3818 12.6191 35.6376 12.6191 35.9531V37.667C12.6191 37.7719 12.5337 37.8574 12.4287 37.8574H10.6819V30.7481C11.7515 30.7563 12.6191 31.629 12.6191 32.7005V33.2871C12.6191 33.6026 12.8748 33.8584 13.1904 33.8584C13.506 33.8584 13.7617 33.6026 13.7617 33.2871V32.7005C13.7617 30.9939 12.3732 29.6054 10.6665 29.6054ZM4.22242 30.748H4.98079C5.17411 30.853 5.37757 30.9416 5.58841 31.014L4.22242 32.1697V30.748ZM8.78092 30.748H9.53936V32.1697L8.17322 31.014C8.38414 30.9416 8.58752 30.853 8.78092 30.748ZM6.88082 24.3878C8.45216 24.3878 9.73055 25.6662 9.73055 27.2375C9.73055 28.8089 8.45216 30.0873 6.88082 30.0873C5.30947 30.0873 4.03108 28.8089 4.03108 27.2375C4.03108 25.6662 5.30947 24.3878 6.88082 24.3878ZM1.14258 37.667V32.7005C1.14258 31.629 2.01025 30.7563 3.07985 30.7481V37.8574H1.333C1.22796 37.8574 1.14258 37.7719 1.14258 37.667ZM4.22242 33.6664L6.88082 31.4172L9.53928 33.6664V37.8574H4.22242V33.6664Z" fill="black"/>
<path d="M6.88086 32.89C6.56528 32.89 6.30957 33.1458 6.30957 33.4613V33.5535C6.30957 33.869 6.56528 34.1248 6.88086 34.1248C7.19644 34.1248 7.45215 33.869 7.45215 33.5535V33.4613C7.45215 33.1457 7.19644 32.89 6.88086 32.89Z" fill="black"/>
<path d="M6.88086 35.2515C6.56528 35.2515 6.30957 35.5072 6.30957 35.8228V35.915C6.30957 36.2305 6.56528 36.4863 6.88086 36.4863C7.19644 36.4863 7.45215 36.2305 7.45215 35.915V35.8228C7.45215 35.5072 7.19644 35.2515 6.88086 35.2515Z" fill="black"/>
<path d="M35.9049 6.36018H35.331C35.821 5.69726 36.1115 4.87819 36.1115 3.99231C36.1115 1.79095 34.3205 0 32.1192 0C29.9178 0 28.1269 1.79095 28.1269 3.99231C28.1269 4.87811 28.4172 5.69718 28.9073 6.36018H28.3334C26.6268 6.36018 25.2383 7.74864 25.2383 9.45527V14.4217C25.2383 15.1567 25.8363 15.7547 26.5713 15.7547H37.667C38.402 15.7547 39 15.1567 39 14.4217V9.45527C39 7.74864 37.6115 6.36018 35.9049 6.36018ZM29.4607 7.50276H30.2191C30.4125 7.60788 30.6159 7.69639 30.8268 7.76875L29.4608 8.9245V7.50276H29.4607ZM34.0193 7.50276H34.7776V8.9245L33.4117 7.76875C33.6225 7.69639 33.8259 7.60788 34.0193 7.50276ZM32.1192 1.14258C33.6905 1.14258 34.9689 2.42096 34.9689 3.99231C34.9689 5.56366 33.6905 6.84204 32.1192 6.84204C30.5478 6.84204 29.2694 5.56366 29.2694 3.99231C29.2694 2.42096 30.5478 1.14258 32.1192 1.14258ZM37.8574 14.4217C37.8574 14.5267 37.772 14.6122 37.667 14.6122H26.5713C26.4662 14.6122 26.3809 14.5267 26.3809 14.4217V9.45527C26.3809 8.38376 27.2485 7.51144 28.3181 7.50314V9.33507C28.3181 9.71006 28.5294 10.041 28.8697 10.1989C28.9998 10.2592 29.137 10.2887 29.2729 10.2887C29.4925 10.2887 29.7085 10.2115 29.8852 10.0619L32.1192 8.17193L34.3531 10.0619C34.6394 10.3041 35.0284 10.3565 35.3687 10.1988C35.7088 10.041 35.9201 9.70998 35.9201 9.33507V7.50314C36.9897 7.51144 37.8574 8.38376 37.8574 9.45527V14.4217Z" fill="black"/>
<path d="M32.1189 9.64502C31.8033 9.64502 31.5476 9.9008 31.5476 10.2163V10.3086C31.5476 10.6241 31.8033 10.8798 32.1189 10.8798C32.4345 10.8798 32.6902 10.6241 32.6902 10.3086V10.2163C32.6902 9.9008 32.4345 9.64502 32.1189 9.64502Z" fill="black"/>
<path d="M32.1189 12.0063C31.8033 12.0063 31.5476 12.2621 31.5476 12.5776V12.6699C31.5476 12.9854 31.8033 13.2412 32.1189 13.2412C32.4345 13.2412 32.6902 12.9854 32.6902 12.6699V12.5776C32.6902 12.2621 32.4345 12.0063 32.1189 12.0063Z" fill="black"/>
<path d="M25.1658 25.3235L24.3784 24.5361C24.4438 24.3958 24.5033 24.252 24.5564 24.1065H25.6699C26.1949 24.1065 26.622 23.6794 26.622 23.1543V21.3731C26.622 20.8481 26.1949 20.421 25.6699 20.421H24.5564C24.5034 20.2754 24.4438 20.1317 24.3784 19.9914L25.1659 19.2039C25.537 18.8327 25.537 18.2287 25.1659 17.8574L23.9063 16.5979C23.535 16.2267 22.931 16.2267 22.5597 16.5979L21.7723 17.3853C21.632 17.32 21.4883 17.2603 21.3427 17.2073V16.0937C21.3427 15.5687 20.9156 15.1416 20.3906 15.1416H18.6093C18.0843 15.1416 17.6572 15.5687 17.6572 16.0937V17.2073C17.5116 17.2604 17.3678 17.32 17.2276 17.3852L16.4402 16.5979C16.2604 16.418 16.0212 16.3189 15.7669 16.3189C15.5125 16.3189 15.2734 16.4179 15.0935 16.5978L13.834 17.8574C13.4629 18.2286 13.4629 18.8326 13.8341 19.2038L14.6216 19.9912C14.5561 20.1317 14.4965 20.2754 14.4435 20.4208H13.3301C12.805 20.4208 12.3779 20.8479 12.3779 21.373V23.1542C12.3779 23.6792 12.805 24.1063 13.3301 24.1063H14.4436C14.4965 24.2517 14.5561 24.3954 14.6216 24.5359L13.8341 25.3234C13.463 25.6947 13.463 26.2986 13.8341 26.6699L15.0937 27.9295C15.2735 28.1092 15.5126 28.2082 15.767 28.2082C16.0213 28.2082 16.2605 28.1092 16.4402 27.9294L17.2276 27.142C17.3681 27.2074 17.5117 27.267 17.6572 27.32V28.4336C17.6572 28.9586 18.0843 29.3857 18.6094 29.3857H20.3907C20.9157 29.3857 21.3428 28.9586 21.3428 28.4336V27.32C21.4881 27.2671 21.6319 27.2075 21.7724 27.142L22.5599 27.9295C22.9311 28.3006 23.5353 28.3006 23.9064 27.9294L25.1659 26.6699C25.537 26.2988 25.537 25.6947 25.1658 25.3235ZM23.2331 26.987L22.4844 26.2382C22.1949 25.949 21.7528 25.8777 21.3841 26.061C21.2125 26.1463 21.0336 26.2204 20.8526 26.2813C20.4623 26.4125 20.2002 26.7755 20.2002 27.1846V28.2431H18.7998V27.1846C18.7998 26.7755 18.5377 26.4125 18.1475 26.2813C17.9662 26.2203 17.7874 26.1463 17.6161 26.0611C17.2472 25.8779 16.805 25.949 16.5157 26.2384L15.767 26.987L14.7768 25.9967L15.5254 25.2481C15.8148 24.9587 15.8859 24.5164 15.7027 24.1478C15.6174 23.9761 15.5433 23.7972 15.4825 23.6163C15.3513 23.226 14.9883 22.9638 14.5791 22.9638H13.5205V21.5635H14.5791C14.9883 21.5635 15.3513 21.3012 15.4823 20.9111C15.5432 20.7302 15.6173 20.5513 15.7025 20.3798C15.8859 20.011 15.8147 19.5687 15.5253 19.2792L14.7767 18.5306L15.767 17.5404L16.5155 18.2889C16.8046 18.5784 17.247 18.6496 17.6161 18.4663C17.7871 18.3813 17.9659 18.3071 18.1474 18.2461C18.5376 18.1149 18.7997 17.7519 18.7997 17.3428V16.2843H20.2002V17.3428C20.2002 17.7519 20.4623 18.1149 20.8525 18.2461C21.0338 18.3071 21.2126 18.3812 21.3839 18.4663C21.7528 18.6496 22.195 18.5784 22.4845 18.289L23.233 17.5404L24.2232 18.5306L23.4745 19.2793C23.1852 19.5687 23.114 20.011 23.2974 20.3798C23.3824 20.551 23.4565 20.7298 23.5175 20.9111C23.6487 21.3014 24.0116 21.5636 24.4208 21.5636H25.4795V22.9639H24.4209C24.0117 22.9639 23.6487 23.2262 23.5177 23.6162C23.4566 23.7977 23.3825 23.9765 23.2974 24.1476C23.1141 24.5164 23.1852 24.9587 23.4747 25.2481L24.2232 25.9967L23.2331 26.987Z" fill="black"/>
<path d="M15.8437 10.2158H16.0342C16.3498 10.2158 16.6055 9.96003 16.6055 9.64453C16.6055 9.32903 16.3498 9.07324 16.0342 9.07324H15.8437C15.5282 9.07324 15.2725 9.32903 15.2725 9.64453C15.2725 9.96003 15.5282 10.2158 15.8437 10.2158Z" fill="black"/>
<path d="M18.1138 10.2158H18.4603C18.7759 10.2158 19.0316 9.96003 19.0316 9.64453C19.0316 9.32903 18.7759 9.07324 18.4603 9.07324H18.1138C17.7982 9.07324 17.5425 9.32903 17.5425 9.64453C17.5425 9.96003 17.7982 10.2158 18.1138 10.2158Z" fill="black"/>
<path d="M20.5398 10.2158H20.8865C21.202 10.2158 21.4577 9.96003 21.4577 9.64453C21.4577 9.32903 21.202 9.07324 20.8865 9.07324H20.5398C20.2242 9.07324 19.9685 9.32903 19.9685 9.64453C19.9685 9.96003 20.2243 10.2158 20.5398 10.2158Z" fill="black"/>
<path d="M22.9658 10.2158H23.1562C23.4718 10.2158 23.7275 9.96003 23.7275 9.64453C23.7275 9.32903 23.4718 9.07324 23.1562 9.07324H22.9658C22.6502 9.07324 22.3945 9.32903 22.3945 9.64453C22.3945 9.96003 22.6502 10.2158 22.9658 10.2158Z" fill="black"/>
<path d="M16.0342 34.3115H15.8437C15.5282 34.3115 15.2725 34.5673 15.2725 34.8828C15.2725 35.1983 15.5282 35.4541 15.8437 35.4541H16.0342C16.3498 35.4541 16.6055 35.1983 16.6055 34.8828C16.6055 34.5673 16.3498 34.3115 16.0342 34.3115Z" fill="black"/>
<path d="M20.8865 34.3115H20.5398C20.2242 34.3115 19.9685 34.5673 19.9685 34.8828C19.9685 35.1983 20.2242 35.4541 20.5398 35.4541H20.8865C21.202 35.4541 21.4577 35.1983 21.4577 34.8828C21.4577 34.5673 21.202 34.3115 20.8865 34.3115Z" fill="black"/>
<path d="M18.4603 34.3115H18.1138C17.7982 34.3115 17.5425 34.5673 17.5425 34.8828C17.5425 35.1983 17.7982 35.4541 18.1138 35.4541H18.4603C18.7759 35.4541 19.0316 35.1983 19.0316 34.8828C19.0316 34.5673 18.7759 34.3115 18.4603 34.3115Z" fill="black"/>
<path d="M23.1562 34.3115H22.9658C22.6502 34.3115 22.3945 34.5673 22.3945 34.8828C22.3945 35.1983 22.6502 35.4541 22.9658 35.4541H23.1562C23.4718 35.4541 23.7275 35.1983 23.7275 34.8828C23.7275 34.5673 23.4718 34.3115 23.1562 34.3115Z" fill="black"/>
<path d="M32.1189 17.9434C32.4345 17.9434 32.6902 17.6876 32.6902 17.3721V17.1816C32.6902 16.8661 32.4345 16.6104 32.1189 16.6104C31.8033 16.6104 31.5476 16.8661 31.5476 17.1816V17.3721C31.5476 17.6876 31.8033 17.9434 32.1189 17.9434Z" fill="black"/>
<path d="M31.5476 19.6869C31.5476 20.0024 31.8033 20.2581 32.1189 20.2581C32.4345 20.2581 32.6902 20.0024 32.6902 19.6869V19.3562C32.6902 19.0407 32.4345 18.7849 32.1189 18.7849C31.8033 18.7849 31.5476 19.0407 31.5476 19.3562V19.6869Z" fill="black"/>
<path d="M31.5476 21.8613C31.5476 22.1768 31.8033 22.4326 32.1189 22.4326C32.4345 22.4326 32.6902 22.1768 32.6902 21.8613V21.6709C32.6902 21.3554 32.4345 21.0996 32.1189 21.0996C31.8033 21.0996 31.5476 21.3554 31.5476 21.6709V21.8613Z" fill="black"/>
<path d="M7.45215 17.1816C7.45215 16.8661 7.19644 16.6104 6.88086 16.6104C6.56528 16.6104 6.30957 16.8661 6.30957 17.1816V17.3721C6.30957 17.6876 6.56528 17.9434 6.88086 17.9434C7.19644 17.9434 7.45215 17.6876 7.45215 17.3721V17.1816Z" fill="black"/>
<path d="M7.45215 19.3562C7.45215 19.0407 7.19644 18.7849 6.88086 18.7849C6.56528 18.7849 6.30957 19.0407 6.30957 19.3562V19.6869C6.30957 20.0024 6.56528 20.2581 6.88086 20.2581C7.19644 20.2581 7.45215 20.0024 7.45215 19.6869V19.3562Z" fill="black"/>
<path d="M6.88086 21.0996C6.56528 21.0996 6.30957 21.3554 6.30957 21.6709V21.8613C6.30957 22.1768 6.56528 22.4326 6.88086 22.4326C7.19644 22.4326 7.45215 22.1768 7.45215 21.8613V21.6709C7.45215 21.3554 7.19644 21.0996 6.88086 21.0996Z" fill="black"/>
<path d="M19.4999 19.3528C17.8949 19.3528 16.5891 20.6586 16.5891 22.2636C16.5891 23.8686 17.8949 25.1744 19.4999 25.1744C21.1049 25.1744 22.4108 23.8686 22.4108 22.2636C22.4108 20.6586 21.1049 19.3528 19.4999 19.3528ZM19.4999 24.0319C18.5249 24.0319 17.7317 23.2387 17.7317 22.2637C17.7317 21.2887 18.5249 20.4954 19.4999 20.4954C20.4749 20.4954 21.2682 21.2886 21.2682 22.2636C21.2682 23.2386 20.4749 24.0319 19.4999 24.0319Z" fill="black"/>
</svg>
