<svg width="34" height="40" viewBox="0 0 34 40" fill="none" xmlns="http://www.w3.org/2000/svg">
<g clip-path="url(#clip0_1980_23627)">
<path d="M10.411 0.11407C10.2245 0.115851 10.0309 0.160874 9.85453 0.258703C9.29439 0.569376 9.08895 1.28962 9.39921 1.84966L10.664 4.13485C7.61682 6.02138 5.59761 9.24362 5.59761 12.9213C5.59761 12.9367 5.59756 12.9599 5.59761 12.9827C5.59762 12.9908 5.59753 12.9954 5.59761 13.0044C5.59761 13.0164 5.59761 13.034 5.59761 13.037V13.6047C5.01237 12.9309 4.15208 12.5054 3.19089 12.5054C1.42994 12.5054 0 13.9362 0 15.6982V25.5332C0 27.2952 1.42994 28.726 3.19089 28.726C4.15208 28.726 5.01237 28.3005 5.59761 27.6268V29.0044C5.59761 30.8617 7.11654 32.3815 8.97279 32.3815H9.82924V36.7567C9.82924 38.5187 11.2592 39.9494 13.0201 39.9494C14.7811 39.9494 16.211 38.5187 16.211 36.7567V32.3815H17.6926V36.7567C17.6926 38.5187 19.1226 39.9494 20.8835 39.9494C22.6445 39.9494 24.0744 38.5187 24.0744 36.7567V32.3815H24.9308C26.7871 32.3815 28.306 30.8617 28.306 29.0044V27.6268C28.8913 28.3005 29.7516 28.726 30.7128 28.726C32.4737 28.726 33.9036 27.2952 33.9036 25.5332V15.6982C33.9036 13.9362 32.4737 12.5054 30.7128 12.5054C29.7516 12.5054 28.8913 12.9309 28.306 13.6047V13.0478V13.037C28.3061 13.0196 28.3061 13.0023 28.306 13.0044C28.3063 12.9698 28.306 12.9422 28.306 12.9213C28.306 9.24426 26.2823 6.02513 23.236 4.13847L24.5044 1.84966C24.8147 1.28962 24.6092 0.569372 24.0491 0.258699C23.8727 0.16087 23.6791 0.11585 23.4926 0.114067C23.079 0.110105 22.673 0.32823 22.4591 0.714291L21.1329 3.11157C19.8361 2.63274 18.4251 2.37033 16.9518 2.37033C15.4801 2.37033 14.0665 2.63006 12.7708 3.10796L11.4446 0.714291C11.2307 0.328229 10.8247 0.110118 10.411 0.11407Z" fill="white"/>
<path d="M3.19079 13.337C1.8767 13.337 0.831055 14.3833 0.831055 15.6982V25.5332C0.831055 26.848 1.8767 27.8943 3.19079 27.8943C4.50489 27.8943 5.55053 26.848 5.55053 25.5332V15.6982C5.55053 14.3833 4.50489 13.337 3.19079 13.337ZM30.7127 13.337C29.3986 13.337 28.3529 14.3833 28.3529 15.6982V25.5332C28.3529 26.848 29.3986 27.8943 30.7127 27.8943C32.0268 27.8943 33.0724 26.848 33.0724 25.5332V15.6982C33.0724 14.3833 32.0268 13.337 30.7127 13.337Z" fill="#A4C639"/>
<path d="M13.0199 24.5605C11.7058 24.5605 10.6602 25.6068 10.6602 26.9217V36.7567C10.6602 38.0715 11.7058 39.1178 13.0199 39.1178C14.334 39.1178 15.3796 38.0715 15.3796 36.7567V26.9217C15.3796 25.6068 14.334 24.5605 13.0199 24.5605ZM20.8833 24.5605C19.5692 24.5605 18.5235 25.6068 18.5235 26.9217V36.7567C18.5235 38.0715 19.5692 39.1178 20.8833 39.1178C22.1974 39.1178 23.243 38.0715 23.243 36.7567V26.9217C23.243 25.6068 22.1974 24.5605 20.8833 24.5605Z" fill="#A4C639"/>
<path d="M10.4182 0.945695C10.3624 0.946266 10.3105 0.960666 10.2592 0.989084C10.091 1.08241 10.0356 1.27588 10.1291 1.44468L11.7914 4.44941C8.59324 6.11449 6.43304 9.27881 6.42871 12.9104H27.4748C27.4705 9.27881 25.3103 6.11449 22.1121 4.44941L23.7744 1.44468C23.8679 1.27588 23.8126 1.08241 23.6443 0.989084C23.5931 0.960666 23.5411 0.946227 23.4853 0.945695C23.3659 0.944542 23.2527 1.00424 23.189 1.11925L21.505 4.15653C20.1275 3.54513 18.5823 3.20196 16.9518 3.20196C15.3212 3.20196 13.7761 3.54513 12.3985 4.15653L10.7145 1.11925C10.6508 1.00424 10.5376 0.944549 10.4182 0.945695ZM6.42871 13.742V29.0044C6.42871 30.4146 7.56335 31.5499 8.97275 31.5499H24.9308C26.3402 31.5499 27.4748 30.4146 27.4748 29.0044V13.742H6.42871Z" fill="#A4C639"/>
<path d="M12.0949 7.29871C11.6145 7.29871 11.2168 7.69662 11.2168 8.17735C11.2168 8.65807 11.6145 9.05599 12.0949 9.05599C12.5754 9.05599 12.9731 8.65807 12.9731 8.17735C12.9731 7.69662 12.5754 7.29871 12.0949 7.29871ZM21.8085 7.29871C21.3281 7.29871 20.9304 7.69662 20.9304 8.17735C20.9304 8.65807 21.3281 9.05599 21.8085 9.05599C22.289 9.05599 22.6866 8.65807 22.6866 8.17735C22.6866 7.69662 22.289 7.29871 21.8085 7.29871Z" fill="white"/>
</g>
<defs>
<clipPath id="clip0_1980_23627">
<rect width="34" height="40" fill="white"/>
</clipPath>
</defs>
</svg>
