<svg width="49" height="40" viewBox="0 0 49 40" fill="none" xmlns="http://www.w3.org/2000/svg">
<g clip-path="url(#clip0_2027_24318)">
<path d="M19.2229 22.1528C19.4011 18.9595 20.9575 16.1461 23.3055 14.1518C25.6082 12.1929 28.7075 10.9956 32.0892 10.9956C35.4676 10.9956 38.5669 12.1929 40.8713 14.1518C43.2176 16.1461 44.774 18.9595 44.9539 22.1494C45.132 25.4305 43.8194 28.4786 41.5167 30.738C39.1687 33.0364 35.829 34.4785 32.0892 34.4785C28.3495 34.4785 25.0031 33.0364 22.6568 30.738C20.3524 28.4786 19.0431 25.4305 19.2229 22.1528Z" fill="white"/>
<path d="M25.4889 22.4377C25.5803 20.7992 26.3789 19.3557 27.5837 18.3323C28.7652 17.3272 30.3555 16.7129 32.0907 16.7129C33.8242 16.7129 35.4145 17.3272 36.5968 18.3323C37.8008 19.3557 38.5994 20.7992 38.6917 22.436C38.7831 24.1196 38.1095 25.6836 36.928 26.8429C35.7232 28.0222 34.0096 28.7622 32.0907 28.7622C30.1718 28.7622 28.4547 28.0222 27.2508 26.8429C26.0684 25.6836 25.3966 24.1196 25.4889 22.4377Z" fill="#265787"/>
<path d="M15.0083 25.8037C15.0195 26.4463 15.2235 27.6949 15.5295 28.6701C16.1725 30.7341 17.2632 32.6436 18.7808 34.3264C20.3382 36.0561 22.256 37.4455 24.4712 38.4319C26.7995 39.4678 29.3223 39.9958 31.9427 39.9915C34.5589 39.988 37.0817 39.4496 39.41 38.4058C41.6251 37.4099 43.5412 36.0145 45.096 34.2839C46.6128 32.5941 47.7017 30.6811 48.3465 28.6171C48.6706 27.5742 48.8754 26.5157 48.9575 25.4537C49.0379 24.4074 49.0042 23.3593 48.8564 22.3121C48.5677 20.2715 47.8651 18.3568 46.783 16.6115C45.7935 15.0077 44.5178 13.6036 43.001 12.4218L43.0045 12.4192L27.6975 0.61066C27.6836 0.60024 27.6724 0.588952 27.6577 0.5794C26.6534 -0.195156 24.9647 -0.192551 23.8601 0.583742C22.7435 1.36872 22.6156 2.66688 23.6095 3.48572L23.6052 3.49006L29.9895 8.70616L10.5306 8.727H10.5046C8.89623 8.72873 7.35006 9.78897 7.04411 11.1288C6.72951 12.4938 7.82194 13.6261 9.4943 13.6322L9.49171 13.6383L19.3547 13.6192L1.7548 27.1922C1.73233 27.2087 1.70813 27.226 1.68739 27.2425C0.027133 28.5198 -0.509576 30.6438 0.536185 31.988C1.5975 33.3547 3.8541 33.3573 5.53164 31.9958L15.1371 24.0974C15.1371 24.0974 14.9971 25.1637 15.0083 25.8037ZM39.6909 29.3743C37.7117 31.4001 34.9409 32.5489 31.9427 32.555C28.9403 32.5602 26.1694 31.4218 24.1903 29.3995C23.2232 28.4139 22.5127 27.2799 22.0745 26.072C21.645 24.885 21.4782 23.625 21.5888 22.3538C21.6934 21.1112 22.0616 19.9259 22.6493 18.8535C23.2266 17.7994 24.0217 16.8468 25.0035 16.041C26.9274 14.4658 29.3767 13.6131 31.9384 13.6096C34.5027 13.6062 36.9503 14.4511 38.8759 16.021C39.8559 16.8234 40.6502 17.7725 41.2275 18.8249C41.8178 19.8964 42.1834 21.0773 42.2923 22.3234C42.4012 23.5929 42.2344 24.8511 41.8049 26.039C41.3658 27.2503 40.658 28.3844 39.6909 29.3743Z" fill="#EA7600"/>
</g>
<defs>
<clipPath id="clip0_2027_24318">
<rect width="49" height="40" fill="white"/>
</clipPath>
</defs>
</svg>
