<svg width="40" height="40" viewBox="0 0 40 40" fill="none" xmlns="http://www.w3.org/2000/svg">
<g clip-path="url(#clip0_1986_23659)">
<path d="M11.0209 10.89L8.43555 8.30469L8.44648 26.9922L8.47742 27.8656C8.49023 28.2766 8.56648 28.7403 8.69367 29.2209L29.1787 36.4444L34.2993 34.1756L34.3012 34.1694L11.0209 10.89Z" fill="#00D2B8"/>
<path d="M8.69383 29.2209L8.69508 29.2221C8.69383 29.2137 8.68945 29.2043 8.68945 29.1956C8.68945 29.2043 8.6907 29.2124 8.69383 29.2209ZM34.2995 34.1756L29.1788 36.4443L8.69508 29.2221C9.08633 30.7234 9.95258 32.4109 10.8848 33.3337L17.5698 39.9806L32.4338 39.9999L34.3013 34.1693L34.2995 34.1756Z" fill="#55DDCA"/>
<path d="M0.474118 20.3306C-0.187757 21.0372 0.140993 22.4947 1.20662 23.5684L5.80318 28.2031L8.69381 29.2209C8.56662 28.7403 8.49037 28.2766 8.47756 27.8656L8.44662 26.9922L8.43568 8.30469L0.474118 20.3306Z" fill="#0081C6"/>
<path d="M29.3468 8.54465C28.8662 8.42184 28.4052 8.3459 27.9874 8.33278L27.0643 8.3009L8.43555 8.3034L34.3037 34.1693H34.3059L36.5777 29.0437L29.3468 8.54465Z" fill="#0079B3"/>
<path d="M29.3237 8.53967C29.3337 8.54186 29.3415 8.54467 29.3481 8.54561L29.3472 8.54467C29.3415 8.54186 29.3337 8.54186 29.3237 8.53967ZM33.4562 10.7394C32.5175 9.7928 30.8522 8.93249 29.3481 8.54561L36.5781 29.0437L34.3062 34.1694H34.304L39.8559 32.3962L39.8678 17.175L33.4562 10.7394Z" fill="#00A4E4"/>
<path d="M28.334 5.67154L23.7005 1.07217C22.629 0.0106038 21.1709 -0.319709 20.4662 0.340291L8.43555 8.30342L27.0643 8.30092L27.9874 8.33279C28.4052 8.34592 28.8662 8.42185 29.3468 8.54467L28.334 5.67154Z" fill="#00D2B8"/>
</g>
<defs>
<clipPath id="clip0_1986_23659">
<rect width="40" height="40" fill="white"/>
</clipPath>
</defs>
</svg>
