<svg width="37" height="37" viewBox="0 0 37 37" fill="none" xmlns="http://www.w3.org/2000/svg">
<g clip-path="url(#clip0_904_3774)">
<path d="M8.67188 6.35938H5.78125C5.46213 6.35938 5.20312 6.10095 5.20312 5.78125C5.20312 5.46155 5.46213 5.20312 5.78125 5.20312H8.67188C8.991 5.20312 9.25 5.46155 9.25 5.78125C9.25 6.10095 8.991 6.35938 8.67188 6.35938Z" fill="black"/>
<path d="M11.5625 6.35938H10.4062C10.0871 6.35938 9.82812 6.10095 9.82812 5.78125C9.82812 5.46155 10.0871 5.20312 10.4062 5.20312H11.5625C11.8816 5.20312 12.1406 5.46155 12.1406 5.78125C12.1406 6.10095 11.8816 6.35938 11.5625 6.35938Z" fill="black"/>
<path d="M15.6094 6.35938H13.2969C12.9778 6.35938 12.7188 6.10095 12.7188 5.78125C12.7188 5.46155 12.9778 5.20312 13.2969 5.20312H15.6094C15.9285 5.20312 16.1875 5.46155 16.1875 5.78125C16.1875 6.10095 15.9285 6.35938 15.6094 6.35938Z" fill="black"/>
<path d="M4.04688 6.35938C4.36616 6.35938 4.625 6.10054 4.625 5.78125C4.625 5.46196 4.36616 5.20312 4.04688 5.20312C3.72759 5.20312 3.46875 5.46196 3.46875 5.78125C3.46875 6.10054 3.72759 6.35938 4.04688 6.35938Z" fill="black"/>
<path d="M8.67188 8.67188H7.51562C7.1965 8.67188 6.9375 8.41345 6.9375 8.09375C6.9375 7.77405 7.1965 7.51562 7.51562 7.51562H8.67188C8.991 7.51562 9.25 7.77405 9.25 8.09375C9.25 8.41345 8.991 8.67188 8.67188 8.67188Z" fill="black"/>
<path d="M11.5625 8.67188H10.4062C10.0871 8.67188 9.82812 8.41345 9.82812 8.09375C9.82812 7.77405 10.0871 7.51562 10.4062 7.51562H11.5625C11.8816 7.51562 12.1406 7.77405 12.1406 8.09375C12.1406 8.41345 11.8816 8.67188 11.5625 8.67188Z" fill="black"/>
<path d="M5.78125 8.67188C6.10054 8.67188 6.35938 8.41304 6.35938 8.09375C6.35938 7.77446 6.10054 7.51562 5.78125 7.51562C5.46196 7.51562 5.20312 7.77446 5.20312 8.09375C5.20312 8.41304 5.46196 8.67188 5.78125 8.67188Z" fill="black"/>
<path d="M9.25 10.9844H7.51562C7.1965 10.9844 6.9375 10.726 6.9375 10.4062C6.9375 10.0865 7.1965 9.82812 7.51562 9.82812H9.25C9.56912 9.82812 9.82812 10.0865 9.82812 10.4062C9.82812 10.726 9.56912 10.9844 9.25 10.9844Z" fill="black"/>
<path d="M13.2969 10.9844H10.9844C10.6653 10.9844 10.4062 10.726 10.4062 10.4062C10.4062 10.0865 10.6653 9.82812 10.9844 9.82812H13.2969C13.616 9.82812 13.875 10.0865 13.875 10.4062C13.875 10.726 13.616 10.9844 13.2969 10.9844Z" fill="black"/>
<path d="M5.78125 10.9844C6.10054 10.9844 6.35938 10.7255 6.35938 10.4062C6.35938 10.087 6.10054 9.82812 5.78125 9.82812C5.46196 9.82812 5.20312 10.087 5.20312 10.4062C5.20312 10.7255 5.46196 10.9844 5.78125 10.9844Z" fill="black"/>
<path d="M8.09375 13.2969H5.78125C5.46213 13.2969 5.20312 13.0385 5.20312 12.7188C5.20312 12.399 5.46213 12.1406 5.78125 12.1406H8.09375C8.41287 12.1406 8.67188 12.399 8.67188 12.7188C8.67188 13.0385 8.41287 13.2969 8.09375 13.2969Z" fill="black"/>
<path d="M10.9844 13.2969H9.82812C9.509 13.2969 9.25 13.0385 9.25 12.7188C9.25 12.399 9.509 12.1406 9.82812 12.1406H10.9844C11.3035 12.1406 11.5625 12.399 11.5625 12.7188C11.5625 13.0385 11.3035 13.2969 10.9844 13.2969Z" fill="black"/>
<path d="M4.04688 13.2969C4.36616 13.2969 4.625 13.038 4.625 12.7188C4.625 12.3995 4.36616 12.1406 4.04688 12.1406C3.72759 12.1406 3.46875 12.3995 3.46875 12.7188C3.46875 13.038 3.72759 13.2969 4.04688 13.2969Z" fill="black"/>
<path d="M8.67188 15.6094H7.51562C7.1965 15.6094 6.9375 15.351 6.9375 15.0312C6.9375 14.7115 7.1965 14.4531 7.51562 14.4531H8.67188C8.991 14.4531 9.25 14.7115 9.25 15.0312C9.25 15.351 8.991 15.6094 8.67188 15.6094Z" fill="black"/>
<path d="M11.5625 15.6094H10.4062C10.0871 15.6094 9.82812 15.351 9.82812 15.0312C9.82812 14.7115 10.0871 14.4531 10.4062 14.4531H11.5625C11.8816 14.4531 12.1406 14.7115 12.1406 15.0312C12.1406 15.351 11.8816 15.6094 11.5625 15.6094Z" fill="black"/>
<path d="M13.875 15.6094H13.2969C12.9778 15.6094 12.7188 15.351 12.7188 15.0312C12.7188 14.7115 12.9778 14.4531 13.2969 14.4531H13.875C14.1941 14.4531 14.4531 14.7115 14.4531 15.0312C14.4531 15.351 14.1941 15.6094 13.875 15.6094Z" fill="black"/>
<path d="M13.2969 13.2969H12.7188C12.3996 13.2969 12.1406 13.0385 12.1406 12.7188C12.1406 12.399 12.3996 12.1406 12.7188 12.1406H13.2969C13.616 12.1406 13.875 12.399 13.875 12.7188C13.875 13.0385 13.616 13.2969 13.2969 13.2969Z" fill="black"/>
<path d="M13.875 8.67188H13.2969C12.9778 8.67188 12.7188 8.41345 12.7188 8.09375C12.7188 7.77405 12.9778 7.51562 13.2969 7.51562H13.875C14.1941 7.51562 14.4531 7.77405 14.4531 8.09375C14.4531 8.41345 14.1941 8.67188 13.875 8.67188Z" fill="black"/>
<path d="M5.78125 15.6094C6.10054 15.6094 6.35938 15.3505 6.35938 15.0312C6.35938 14.712 6.10054 14.4531 5.78125 14.4531C5.46196 14.4531 5.20312 14.712 5.20312 15.0312C5.20312 15.3505 5.46196 15.6094 5.78125 15.6094Z" fill="black"/>
<path d="M8.09375 17.9219H7.51562C7.1965 17.9219 6.9375 17.6635 6.9375 17.3438C6.9375 17.024 7.1965 16.7656 7.51562 16.7656H8.09375C8.41287 16.7656 8.67188 17.024 8.67188 17.3438C8.67188 17.6635 8.41287 17.9219 8.09375 17.9219Z" fill="black"/>
<path d="M12.7188 17.9219H9.82812C9.509 17.9219 9.25 17.6635 9.25 17.3438C9.25 17.024 9.509 16.7656 9.82812 16.7656H12.7188C13.0379 16.7656 13.2969 17.024 13.2969 17.3438C13.2969 17.6635 13.0379 17.9219 12.7188 17.9219Z" fill="black"/>
<path d="M15.0312 17.9219H14.4531C14.134 17.9219 13.875 17.6635 13.875 17.3438C13.875 17.024 14.134 16.7656 14.4531 16.7656H15.0312C15.3504 16.7656 15.6094 17.024 15.6094 17.3438C15.6094 17.6635 15.3504 17.9219 15.0312 17.9219Z" fill="black"/>
<path d="M5.78125 17.9219C6.10054 17.9219 6.35938 17.663 6.35938 17.3438C6.35938 17.0245 6.10054 16.7656 5.78125 16.7656C5.46196 16.7656 5.20312 17.0245 5.20312 17.3438C5.20312 17.663 5.46196 17.9219 5.78125 17.9219Z" fill="black"/>
<path d="M24.2812 21.3906C19.181 21.3906 15.0312 17.2408 15.0312 12.1406C15.0312 7.04041 19.181 2.89062 24.2812 2.89062C29.3815 2.89062 33.5312 7.04041 33.5312 12.1406C33.5312 17.2408 29.3815 21.3906 24.2812 21.3906ZM24.2812 4.04688C19.8181 4.04688 16.1875 7.6775 16.1875 12.1406C16.1875 16.6038 19.8181 20.2344 24.2812 20.2344C28.7444 20.2344 32.375 16.6038 32.375 12.1406C32.375 7.6775 28.7444 4.04688 24.2812 4.04688Z" fill="black"/>
<path d="M27.1719 15.0313C27.0239 15.0313 26.8759 14.9746 26.7631 14.8619C26.5371 14.6358 26.5371 14.2705 26.7631 14.0444L29.245 11.5625L26.7626 9.08063C26.5365 8.85458 26.5365 8.48921 26.7626 8.26316C26.9886 8.03712 27.354 8.03712 27.58 8.26316L30.4712 11.1538C30.5799 11.2625 30.6406 11.4087 30.6406 11.5625C30.6406 11.7163 30.5799 11.8631 30.4712 11.9713L27.5806 14.8619C27.4679 14.9746 27.3199 15.0313 27.1719 15.0313Z" fill="black"/>
<path d="M21.3901 15.0313C21.2421 15.0313 21.0941 14.9746 20.9814 14.8619L18.0908 11.9713C17.9821 11.8626 17.9214 11.7163 17.9214 11.5625C17.9214 11.4087 17.9821 11.2619 18.0908 11.1538L20.982 8.26316C21.208 8.03712 21.5734 8.03712 21.7994 8.26316C22.0255 8.48921 22.0255 8.85458 21.7994 9.08063L19.317 11.5625L21.7989 14.0444C22.0249 14.2705 22.0249 14.6358 21.7989 14.8619C21.6861 14.9746 21.5381 15.0313 21.3901 15.0313Z" fill="black"/>
<path d="M23.125 16.1875C23.0724 16.1875 23.0186 16.18 22.966 16.1655C22.6591 16.0777 22.4816 15.7574 22.5689 15.451L24.8814 7.35721C24.9692 7.05023 25.2889 6.87506 25.5959 6.95946C25.9029 7.04734 26.0804 7.36762 25.9931 7.67403L23.6806 15.7678C23.6083 16.0216 23.3765 16.1875 23.125 16.1875Z" fill="black"/>
<path d="M34.1094 28.3281H2.89062C1.61528 28.3281 0.578125 27.291 0.578125 26.0156V2.89062C0.578125 1.61528 1.61528 0.578125 2.89062 0.578125H34.1094C35.3847 0.578125 36.4219 1.61528 36.4219 2.89062V26.0156C36.4219 27.291 35.3847 28.3281 34.1094 28.3281ZM2.89062 1.73438C2.25295 1.73438 1.73438 2.25295 1.73438 2.89062V26.0156C1.73438 26.6533 2.25295 27.1719 2.89062 27.1719H34.1094C34.747 27.1719 35.2656 26.6533 35.2656 26.0156V2.89062C35.2656 2.25295 34.747 1.73438 34.1094 1.73438H2.89062Z" fill="black"/>
<path d="M30.6406 36.4219H6.35938C6.03967 36.4219 5.78125 36.1629 5.78125 35.8438V34.1094C5.78125 33.1532 6.55941 32.375 7.51562 32.375H29.4844C30.4406 32.375 31.2188 33.1532 31.2188 34.1094V35.8438C31.2188 36.1629 30.9603 36.4219 30.6406 36.4219ZM6.9375 35.2656H30.0625V34.1094C30.0625 33.7908 29.8035 33.5312 29.4844 33.5312H7.51562C7.1965 33.5312 6.9375 33.7908 6.9375 34.1094V35.2656Z" fill="black"/>
<path d="M22.5469 33.5312C22.2272 33.5312 21.9688 33.2723 21.9688 32.9531V27.75C21.9688 27.4309 22.2272 27.1719 22.5469 27.1719C22.8666 27.1719 23.125 27.4309 23.125 27.75V32.9531C23.125 33.2723 22.8666 33.5312 22.5469 33.5312Z" fill="black"/>
<path d="M14.4531 33.5312C14.1334 33.5312 13.875 33.2723 13.875 32.9531V27.75C13.875 27.4309 14.1334 27.1719 14.4531 27.1719C14.7728 27.1719 15.0312 27.4309 15.0312 27.75V32.9531C15.0312 33.2723 14.7728 33.5312 14.4531 33.5312Z" fill="black"/>
<path d="M35.8438 23.7031H1.15625C0.836547 23.7031 0.578125 23.4441 0.578125 23.125C0.578125 22.8059 0.836547 22.5469 1.15625 22.5469H35.8438C36.1635 22.5469 36.4219 22.8059 36.4219 23.125C36.4219 23.4441 36.1635 23.7031 35.8438 23.7031Z" fill="black"/>
</g>
<defs>
<clipPath id="clip0_904_3774">
<rect width="37" height="37" fill="white"/>
</clipPath>
</defs>
</svg>
