<svg width="40" height="40" viewBox="0 0 40 40" fill="none" xmlns="http://www.w3.org/2000/svg">
<path d="M17.7521 39.8662C17.1575 39.7953 16.5338 39.7039 16.3666 39.6627C16.1206 39.6044 15.8731 39.5524 15.6245 39.5066C15.3405 39.4516 15.0588 39.3857 14.7799 39.309C13.4847 38.9382 13.3919 38.9079 12.4155 38.509C11.5171 38.1432 9.86202 37.2885 9.29583 36.8996C9.14085 36.7922 8.99587 36.7057 8.97368 36.7057C8.95181 36.7057 8.58935 36.451 8.16815 36.1398C5.49032 34.1599 3.47992 31.7564 2.02727 28.796C1.7773 28.2875 1.57326 27.8365 1.57326 27.794C1.57326 27.7522 1.52827 27.6364 1.47327 27.539C1.35985 27.3364 1.1983 26.9001 1.06801 26.449C1.01198 26.2574 0.946811 26.0685 0.872715 25.8831C0.811784 25.7395 0.762727 25.5647 0.762727 25.4942C0.762727 25.4233 0.701796 25.193 0.62743 24.9807C0.553063 24.77 0.49307 24.5212 0.49307 24.4282C0.49307 24.3358 0.434639 24.0162 0.362459 23.7178C0.186854 22.9811 0 21.073 0 20.0036C0 18.9354 0.186854 17.0273 0.362459 16.2909C0.434326 15.9922 0.49307 15.6666 0.49307 15.5668C0.49307 15.4666 0.538377 15.2702 0.593059 15.1298C0.649302 14.9899 0.721169 14.7386 0.754291 14.5716C0.788662 14.4046 0.866778 14.1168 0.930208 13.9302L1.11456 13.3914C1.24986 12.9878 1.37547 12.6463 1.43546 12.5134C1.46984 12.4391 1.60388 12.1357 1.73449 11.8391C1.94572 11.36 2.39848 10.4563 2.66314 9.98344C2.75969 9.8102 2.79625 9.75277 3.31869 8.93714C4.14641 7.64237 5.56094 6.03139 6.87767 4.88302C7.34168 4.47817 8.89182 3.30264 8.9615 3.30264C8.98087 3.30264 9.1271 3.21492 9.2874 3.10755C9.70829 2.82599 10.1211 2.58689 10.6591 2.31751C10.8523 2.22209 11.0435 2.12291 11.2328 2.02004C11.3219 1.96885 11.489 1.89206 12.3474 1.50812C12.5364 1.42384 12.7401 1.34706 13.3273 1.14198C13.4566 1.09703 13.7166 1.00182 13.9022 0.932217C14.089 0.862921 14.3087 0.805486 14.3906 0.805486C14.4712 0.805486 14.6834 0.749301 14.8618 0.680005C15.0399 0.610397 15.3633 0.531112 15.5817 0.504268C15.7992 0.478672 16.0882 0.417804 16.2238 0.370046C16.3582 0.323849 16.7269 0.263917 17.0428 0.237385C17.4545 0.200225 17.8651 0.151825 18.2742 0.0922384C19.1141 -0.0307461 20.9402 -0.0307461 21.7713 0.0922384C22.1639 0.148516 22.5578 0.194832 22.9527 0.231142C23.2505 0.255802 23.6302 0.317918 23.7973 0.36911C23.9645 0.419053 24.2538 0.481481 24.4394 0.504268C24.6251 0.528927 24.9375 0.605715 25.1337 0.676259C25.3306 0.748052 25.5537 0.805486 25.6306 0.805486C25.7074 0.805486 25.8662 0.84825 25.9821 0.901939C26.0993 0.954379 26.347 1.04209 26.5339 1.09703C26.7195 1.15321 27.0379 1.26403 27.2432 1.34581C27.4469 1.42728 27.7203 1.53465 27.8509 1.58335C28.0915 1.67387 29.8695 2.56254 30.1113 2.71393C32.0739 3.9366 33.0835 4.73537 34.4408 6.13627C36.0775 7.82622 37.164 9.43563 38.2698 11.8048C38.3479 11.9721 38.4673 12.2196 38.5357 12.3535C38.6029 12.489 38.6591 12.6476 38.6591 12.7063C38.6591 12.7656 38.7154 12.9435 38.7847 13.1024C38.9728 13.5341 39.1337 14.0254 39.2097 14.4009C39.2472 14.5851 39.3168 14.8129 39.3643 14.9069C39.4122 15.0005 39.4681 15.2387 39.4903 15.4338C39.5121 15.6286 39.5768 15.9482 39.6318 16.142C39.9505 17.2442 40.1089 20.4914 39.9162 21.9276C39.859 22.3543 39.7943 22.8703 39.7724 23.0738C39.7355 23.4225 39.5512 24.3236 39.3937 24.9295L39.2312 25.571C38.925 26.8061 38.1682 28.5657 37.2443 30.1935C36.8781 30.8396 35.6504 32.587 35.4185 32.7918C35.3976 32.8099 35.2939 32.9322 35.1889 33.0612C35.0839 33.1916 34.747 33.5562 34.4421 33.8709C33.0982 35.2571 32.0142 36.1142 30.1113 37.2948C29.8857 37.4349 27.9719 38.3688 27.6141 38.514C27.4285 38.5883 27.1185 38.7138 26.9257 38.7918C26.7342 38.8689 26.5205 38.9335 26.4533 38.9348C26.3861 38.9357 26.2093 38.9956 26.0602 39.0674C25.9115 39.1392 25.7221 39.1991 25.6381 39.2004C25.555 39.2016 25.3122 39.2603 25.0984 39.3309C24.885 39.4027 24.5882 39.4798 24.4391 39.5025C24.2904 39.526 23.972 39.5893 23.7302 39.643C23.4886 39.6967 22.7584 39.8016 22.1094 39.8759C20.6617 40.0446 19.199 40.0413 17.7521 39.8662ZM19.2216 35.9644C19.3153 35.8914 19.4119 35.7459 19.4375 35.6438C19.4938 35.4181 28.5721 17.2367 28.743 17.0089C28.8871 16.8163 28.9005 16.5079 28.7687 16.3992C28.6993 16.3409 27.83 16.3225 25.5096 16.3262C23.7692 16.3299 22.3059 16.3312 22.2581 16.3299C22.1875 16.3274 22.1728 15.1657 22.18 10.1895C22.185 6.813 22.1691 4.01963 22.1447 3.98092C22.1203 3.94159 22.025 3.91007 21.9322 3.91007C21.8016 3.91007 21.7407 3.96625 21.6604 4.16228C21.5088 4.52686 21.0901 5.35467 19.0519 9.30797C18.6286 10.1284 18.2062 10.9493 17.7849 11.7708C17.4237 12.4768 16.8537 13.5853 16.5203 14.2336C15.6229 15.9764 14.7274 17.7201 13.8338 19.4648C12.2924 22.4726 12.1058 22.8313 12.0396 22.9106C11.9115 23.0654 11.8418 23.4225 11.914 23.5567C11.9796 23.6797 12.1105 23.6847 15.3645 23.6797C17.2246 23.6775 18.7588 23.6872 18.7748 23.7015C18.8176 23.7455 18.8016 35.3476 18.7576 35.6242C18.7285 35.8058 18.7479 35.902 18.831 35.985C18.9748 36.1289 19.0141 36.1277 19.2216 35.9644Z" fill="#049688"/>
</svg>
