<svg width="40" height="40" viewBox="0 0 40 40" fill="none" xmlns="http://www.w3.org/2000/svg">
<g clip-path="url(#clip0_2027_24309)">
<path d="M0 20C0 8.95433 8.95433 0 20 0C31.0457 0 40 8.95433 40 20C40 31.0457 31.0457 40 20 40C8.95433 40 0 31.0457 0 20Z" fill="#333333"/>
<path d="M16 31.9999C18.2092 31.9999 20 30.209 20 27.9999V23.9999H16C13.7908 23.9999 12 25.7908 12 27.9999C12 30.209 13.7908 31.9999 16 31.9999Z" fill="#0ACF83"/>
<path d="M12 20C12 17.7908 13.7908 16 16 16H20V24H16C13.7908 24 12 22.2091 12 20Z" fill="#A259FF"/>
<path d="M12 12C12 9.79085 13.7908 8 16 8H20V16H16C13.7908 16 12 14.2091 12 12Z" fill="#F24E1E"/>
<path d="M20 8H24C26.2092 8 28 9.79085 28 12C28 14.2091 26.2092 16 24 16H20V8Z" fill="#FF7262"/>
<path d="M28 20C28 22.2091 26.2092 24 24 24C21.7908 24 20 22.2091 20 20C20 17.7908 21.7908 16 24 16C26.2092 16 28 17.7908 28 20Z" fill="#1ABCFE"/>
</g>
<defs>
<clipPath id="clip0_2027_24309">
<rect width="40" height="40" fill="white"/>
</clipPath>
</defs>
</svg>
