<svg width="40" height="40" viewBox="0 0 40 40" fill="none" xmlns="http://www.w3.org/2000/svg">
<g clip-path="url(#clip0_1980_23636)">
<path d="M8.75998 0H31.24C36.078 0 40 3.92197 40 8.75998V31.24C40 36.078 36.078 40 31.24 40H8.75998C3.92197 40 0 36.078 0 31.24V8.75998C0 3.92197 3.92197 0 8.75998 0Z" fill="url(#paint0_linear_1980_23636)"/>
<path d="M12.819 29.0328L12.8228 29.034L11.4552 31.4027C10.956 32.2674 9.85028 32.5637 8.98563 32.0644C8.12102 31.5653 7.82475 30.4596 8.32394 29.5949L9.33142 27.8499L9.42809 27.6825C9.60077 27.4342 10.0269 27.006 10.8792 27.0865C10.8792 27.0865 12.885 27.3042 13.0301 28.3466C13.0301 28.3466 13.0499 28.6897 12.819 29.0328ZM32.2164 22.9826H27.9517C27.6613 22.9632 27.5344 22.8595 27.4847 22.7992L27.4815 22.7937L22.9162 14.8865L22.9103 14.8904L22.6365 14.4979C22.1878 13.8117 21.4753 15.5667 21.4753 15.5667C20.6246 17.5223 21.596 19.7456 21.9348 20.4176L28.2756 31.4003C28.7748 32.2649 29.8804 32.5612 30.7451 32.062C31.6097 31.5628 31.906 30.4571 31.4068 29.5925L29.8212 26.8462C29.7905 26.7797 29.737 26.599 30.0622 26.5983H32.2164C33.2148 26.5983 34.0242 25.7889 34.0242 24.7905C34.0242 23.792 33.2148 22.9826 32.2164 22.9826ZM23.933 25.4403C23.933 25.4403 24.1606 26.5982 23.2798 26.5982H22.399L7.51435 26.5983C6.51593 26.5983 5.70654 25.7889 5.70654 24.7905C5.70654 23.792 6.51593 22.9826 7.51435 22.9826H11.5675C12.2218 22.9447 12.377 22.567 12.377 22.567L12.3805 22.5688L17.6712 13.405L17.6696 13.4047C17.7661 13.2277 17.6858 13.0604 17.6718 13.0339L15.9246 10.0077C15.4254 9.14301 15.7216 8.03735 16.5863 7.53816C17.4509 7.03894 18.5565 7.3352 19.0558 8.19986L19.8661 9.60344L20.675 8.20235C21.1742 7.3377 22.2799 7.04143 23.1445 7.54066C24.0092 8.03989 24.3055 9.14554 23.8062 10.0102L16.4441 22.7617C16.4119 22.8393 16.402 22.9612 16.6415 22.9826H21.0422L21.0431 23.0255C21.0431 23.0255 23.5866 23.0651 23.933 25.4403Z" fill="white"/>
</g>
<defs>
<linearGradient id="paint0_linear_1980_23636" x1="2000" y1="0" x2="2000" y2="4000" gradientUnits="userSpaceOnUse">
<stop stop-color="#17C9FB"/>
<stop offset="1" stop-color="#1A74E8"/>
</linearGradient>
<clipPath id="clip0_1980_23636">
<rect width="40" height="40" fill="white"/>
</clipPath>
</defs>
</svg>
