<svg width="40" height="40" viewBox="0 0 40 40" fill="none" xmlns="http://www.w3.org/2000/svg">
<g clip-path="url(#clip0_2044_24393)">
<path d="M38.2277 0H19.0166C19.0166 2.30002 19.9303 4.50583 21.5566 6.13219C23.183 7.75854 25.3888 8.67222 27.6888 8.67222H31.2277V12.0889C31.2308 16.8741 35.1092 20.7525 39.8944 20.7556V1.66667C39.8944 0.746192 39.1482 0 38.2277 0Z" fill="#2684FF"/>
<path d="M28.7223 9.57227H9.51123C9.51429 14.3575 13.3927 18.2359 18.1779 18.2389H21.7168V21.6667C21.7229 26.4519 25.6038 30.3278 30.389 30.3278V11.2389C30.389 10.3185 29.6428 9.57227 28.7223 9.57227Z" fill="url(#paint0_linear_2044_24393)"/>
<path d="M19.2111 19.1389H0C0 23.9285 3.88269 27.8111 8.67222 27.8111H12.2222V31.2278C12.2253 36.0087 16.0969 39.8853 20.8778 39.8945V20.8056C20.8778 19.8851 20.1316 19.1389 19.2111 19.1389Z" fill="url(#paint1_linear_2044_24393)"/>
</g>
<defs>
<linearGradient id="paint0_linear_2044_24393" x1="2056.18" y1="12.9057" x2="1243.93" y2="860.449" gradientUnits="userSpaceOnUse">
<stop offset="0.18" stop-color="#0052CC"/>
<stop offset="1" stop-color="#2684FF"/>
</linearGradient>
<linearGradient id="paint1_linear_2044_24393" x1="2101.67" y1="28.5832" x2="1162.09" y2="952.987" gradientUnits="userSpaceOnUse">
<stop offset="0.18" stop-color="#0052CC"/>
<stop offset="1" stop-color="#2684FF"/>
</linearGradient>
<clipPath id="clip0_2044_24393">
<rect width="40" height="40" fill="white"/>
</clipPath>
</defs>
</svg>
