<svg width="79" height="40" viewBox="0 0 79 40" fill="none" xmlns="http://www.w3.org/2000/svg">
<path d="M20.0752 0C9.00567 0 0 8.9723 0 20C0 31.0277 9.006 40 20.0752 40H58.9248C69.9943 40 79 31.0277 79 20C79 8.9723 69.994 0 58.9248 0H20.0752ZM19.6756 6.35758C21.2984 6.39836 23.0331 7.1783 23.8659 8.40542C25.0749 9.91533 25.4387 11.9132 26.81 13.3152C28.6546 15.3269 30.7567 17.0982 32.4588 19.2404C34.0691 21.1982 35.2192 23.4943 36.2231 25.8085C36.6326 26.5762 36.6369 27.5189 37.2436 28.1749C37.5424 28.5708 39.0033 29.649 38.6863 30.0311C38.869 30.427 40.234 30.9715 39.7604 31.3552C39.1205 31.4867 38.4012 31.5117 37.9118 31.0021C37.7311 31.4164 37.3094 31.198 36.9839 31.1441C36.9556 31.2245 36.9282 31.3052 36.9016 31.3861C35.8193 31.4581 35.0075 30.3582 34.4921 29.5283C33.468 28.9759 32.3057 28.6399 31.2596 28.0618C31.1997 29.0137 31.4084 30.1942 30.4993 30.8084C30.4532 32.6382 33.2761 31.0241 33.5348 32.388C33.3341 32.41 33.1115 32.3568 32.9509 32.5106C32.2139 33.2248 31.3693 31.9697 30.52 32.4876C29.3798 33.0598 29.2665 33.527 27.8551 33.645C27.7771 33.527 27.808 33.4504 27.8745 33.3784C28.2718 32.9184 28.3008 32.3768 28.9792 32.1805C28.2807 32.0707 27.6958 32.4544 27.1075 32.7582C26.3429 33.0706 26.3491 32.0543 25.1727 32.8122C25.0423 32.7063 25.1042 32.6099 25.1786 32.5281C25.4775 32.1641 25.8705 32.1105 26.3142 32.1309C24.1319 30.9189 23.1045 33.6128 22.0966 32.2729C21.7938 32.3528 21.6802 32.6241 21.4893 32.8161C21.3247 32.6359 21.4488 32.4176 21.4567 32.2055C21.2599 32.1134 21.0104 32.0707 21.0686 31.7563C20.6832 31.6265 20.4143 31.8533 20.1272 32.0694C19.8682 31.8695 20.3023 31.5788 20.3827 31.3707C20.6137 30.9708 21.1397 31.2884 21.4067 31.0004C22.1658 30.5703 23.2237 31.2681 24.0911 31.15C24.7593 31.2339 25.5868 30.5499 25.2517 29.8677C24.5371 28.9578 24.6625 27.7679 24.6464 26.6798C24.5581 26.0455 23.0301 25.239 22.5884 24.555C22.0423 23.9392 21.6174 23.2243 21.1918 22.5223C19.6559 19.5604 20.1391 15.754 18.2039 13.0042C17.3283 13.4862 16.1878 13.2587 15.433 12.6129C15.0255 12.9828 15.0077 13.4672 14.9754 13.9811C13.9978 13.0072 14.1219 11.1668 14.903 10.083C15.222 9.65491 15.6032 9.30275 16.0288 8.99268C16.1249 8.92265 16.1575 8.85491 16.1555 8.74706C16.5419 7.01521 18.0528 6.31681 19.6756 6.35758ZM60.5156 7.87012C62.3508 7.87012 64.0726 8.58002 65.3676 9.86995C66.6625 11.1599 67.3755 12.8769 67.3755 14.7048C67.3755 16.533 66.6622 18.2494 65.3676 19.5377L62.3985 22.4973C61.608 23.2856 60.6365 23.8688 59.5686 24.196L59.5147 24.2114L59.4956 24.2654C59.1538 25.1687 58.6217 25.9882 57.9353 26.6683L54.9669 29.626C53.6719 30.9162 51.9484 31.6261 50.1133 31.6261C48.2782 31.6261 46.5563 30.9159 45.2614 29.626C42.5853 26.9603 42.5853 22.6242 45.2614 19.9582L48.2302 17.0006C49.0178 16.2132 49.988 15.6323 51.0544 15.3095L51.1104 15.2921L51.1295 15.2401C51.473 14.3339 52.0063 13.5114 52.6937 12.8276L55.6621 9.86995C56.957 8.57969 58.6809 7.87012 60.5156 7.87012ZM60.5156 10.8179C60.003 10.8163 59.4951 10.916 59.0212 11.1114C58.5473 11.3067 58.1168 11.5939 57.7546 11.9563L54.7862 14.9139C54.3897 15.3098 54.0836 15.7866 53.8889 16.3117C53.6942 16.8368 53.6155 17.3978 53.6581 17.9561L53.6756 18.1442C53.7819 19.0162 54.166 19.8027 54.7862 20.4186C55.2141 20.8447 55.6858 21.1137 56.2579 21.3018C56.2886 21.4735 56.304 21.6475 56.304 21.8219C56.3054 22.2071 56.2302 22.5886 56.0828 22.9445C55.9354 23.3003 55.7186 23.6233 55.4452 23.8948L55.2628 24.0769C54.271 23.7389 53.4442 23.245 52.6973 22.5013C51.7097 21.522 51.0476 20.2629 50.8009 18.8949L50.7684 18.7048L50.6166 18.8258C50.5159 18.9076 50.4196 18.9948 50.3283 19.0869L47.3579 22.0446C45.8361 23.5604 45.8361 26.0298 47.3579 27.5456C48.1186 28.3035 49.1189 28.6833 50.1209 28.6836C51.1225 28.6836 52.1212 28.3035 52.8819 27.5452L55.8507 24.5876C57.3724 23.0718 57.3724 20.6047 55.8507 19.0866C55.4449 18.6821 54.9538 18.3733 54.4132 18.1827C54.3836 18.0076 54.3682 17.8305 54.3671 17.6529C54.3671 16.801 54.7039 15.9924 55.3221 15.3766C56.3158 15.7146 57.1983 16.2624 57.9429 17.0042C58.9327 17.9903 59.5867 19.2368 59.8376 20.6106L59.8721 20.8007L60.0219 20.678C60.1239 20.5963 60.2213 20.5092 60.3139 20.4169L63.283 17.4589C64.8044 15.9431 64.8063 13.4724 63.283 11.9563C62.9204 11.5936 62.4896 11.3063 62.0153 11.1109C61.541 10.9155 61.0326 10.816 60.5196 10.8179H60.5156ZM27.6879 27.7738C27.4268 28.7859 27.3409 30.5108 26.0203 30.5608C25.9117 31.1448 26.4245 31.3647 26.8942 31.177C27.3584 30.9649 27.5792 31.344 27.7359 31.7218C28.4525 31.8261 29.5114 31.4834 29.5516 30.6374C28.4818 30.0235 28.1517 28.8559 27.6879 27.7738Z" fill="black"/>
</svg>
