<svg width="26" height="43" viewBox="0 0 26 43" fill="none" xmlns="http://www.w3.org/2000/svg">
<path fill-rule="evenodd" clip-rule="evenodd" d="M8.19931 14.2882C8.06992 14.2882 7.94136 14.2387 7.84221 14.1404L5.16438 11.4625C5.07027 11.3676 5.01733 11.2399 5.01733 11.1063C5.01733 10.9727 5.07027 10.8441 5.16438 10.75L7.84221 8.07216C8.03967 7.87471 8.35812 7.87471 8.55557 8.07216C8.75219 8.26878 8.75219 8.58807 8.55557 8.78469L6.23316 11.1063L8.55557 13.4278C8.75219 13.6245 8.75219 13.9437 8.55557 14.1404C8.45643 14.2387 8.32787 14.2882 8.19931 14.2882Z" fill="black"/>
<path fill-rule="evenodd" clip-rule="evenodd" d="M17.1226 14.2882C16.9941 14.2882 16.8647 14.2387 16.7664 14.1404C16.5697 13.9437 16.5697 13.6245 16.7664 13.4278L19.0879 11.1063L16.7664 8.78469C16.5697 8.58807 16.5697 8.26878 16.7664 8.07216C16.963 7.87471 17.2823 7.87471 17.4789 8.07216L20.1567 10.75C20.2517 10.8441 20.3046 10.9727 20.3046 11.1063C20.3046 11.2399 20.2517 11.3676 20.1567 11.4625L17.4789 14.1404C17.3806 14.2387 17.252 14.2882 17.1226 14.2882Z" fill="black"/>
<path fill-rule="evenodd" clip-rule="evenodd" d="M11.114 14.2883C11.0291 14.2883 10.9417 14.2665 10.8627 14.2203C10.6216 14.0817 10.5392 13.7733 10.6779 13.5321L13.7708 8.17646C13.9094 7.93531 14.2178 7.85297 14.459 7.99161C14.7001 8.13109 14.7824 8.43946 14.643 8.67976L11.5509 14.0363C11.4576 14.1976 11.2887 14.2883 11.114 14.2883Z" fill="black"/>
<path fill-rule="evenodd" clip-rule="evenodd" d="M13.2357 35.0758H12.0863C11.6166 35.0758 11.2334 34.7094 11.1939 34.2229L11.0788 32.7828C10.4923 32.6332 9.93443 32.4013 9.41348 32.0921L8.31277 33.029C8.13884 33.1768 7.92122 33.2584 7.6994 33.2584C7.46497 33.2584 7.24399 33.1676 7.07846 33.0021L6.26595 32.1887C5.93322 31.8568 5.9223 31.3258 6.23822 30.9544L7.17593 29.8537C6.86588 29.3319 6.63482 28.7748 6.48526 28.1884L5.04425 28.0732C4.55859 28.0338 4.19141 27.6506 4.19141 27.1809V26.0315C4.19141 25.5618 4.55775 25.1786 5.04425 25.1391L6.48526 25.024C6.63398 24.4375 6.86588 23.8796 7.17509 23.3587L6.23822 22.258C5.9223 21.8857 5.93406 21.3555 6.26595 21.0237L7.07846 20.2111C7.24399 20.0456 7.46497 19.954 7.6994 19.954C7.92122 19.954 8.13884 20.0355 8.31277 20.1834L9.41348 21.1203C9.93443 20.8111 10.4923 20.58 11.0788 20.4304L11.1948 18.9894C11.2334 18.5029 11.6166 18.1366 12.0863 18.1366H13.2357C13.7054 18.1366 14.0886 18.5029 14.1281 18.9894L14.244 20.4304C14.8297 20.58 15.3876 20.8111 15.9085 21.1203L17.0092 20.1834C17.1832 20.0355 17.4008 19.954 17.6226 19.954C17.8579 19.954 18.078 20.0456 18.2435 20.2111L19.0569 21.0237C19.3888 21.3555 19.4005 21.8857 19.0838 22.258L18.1469 23.3587C18.4561 23.8805 18.6872 24.4375 18.8367 25.024L20.2778 25.14C20.7643 25.1786 21.1306 25.5618 21.1306 26.0315V27.1809C21.1314 27.6506 20.7643 28.0338 20.2778 28.0732L18.8376 28.1892C18.688 28.7748 18.457 29.3328 18.1469 29.8537L19.0838 30.9553C19.4005 31.3266 19.3888 31.8568 19.0569 32.1887L18.2435 33.0021C18.078 33.1676 17.8579 33.2584 17.6226 33.2584C17.4008 33.2584 17.1832 33.1768 17.0101 33.029L15.9085 32.0921C15.3876 32.4013 14.8297 32.6324 14.244 32.7819L14.1281 34.2229C14.0886 34.7094 13.7054 35.0758 13.2357 35.0758ZM12.193 34.0683H13.129L13.2685 32.3307C13.287 32.1047 13.4533 31.919 13.676 31.8762C14.3927 31.7392 15.0632 31.4611 15.6691 31.0502C15.8573 30.9225 16.106 30.9368 16.2791 31.0838L17.6066 32.2139L18.2679 31.5518L17.1386 30.2243C16.9916 30.0512 16.9773 29.8016 17.105 29.6142C17.5159 29.0084 17.794 28.3379 17.9318 27.6212C17.9738 27.3985 18.1604 27.2322 18.3864 27.2137L20.1232 27.0742V26.1382L18.3855 25.9987C18.1595 25.9802 17.9738 25.8138 17.931 25.5912C17.794 24.8745 17.5159 24.204 17.105 23.5981C16.9773 23.4108 16.9916 23.1612 17.1378 22.9881L18.2679 21.6606L17.6058 20.9984L16.2791 22.1286C16.106 22.2756 15.8564 22.2891 15.6691 22.1622C15.0632 21.7505 14.3927 21.4732 13.676 21.3354C13.4533 21.2934 13.287 21.1068 13.2685 20.8808L13.129 19.144H12.193L12.0535 20.8808C12.035 21.1068 11.8687 21.2925 11.646 21.3354C10.9293 21.4732 10.2579 21.7505 9.65211 22.1613C9.46474 22.2891 9.21519 22.2756 9.04294 22.1286L7.71536 20.9984L7.0541 21.6606L8.18338 22.9881C8.33042 23.1604 8.34386 23.4099 8.21698 23.5973C7.80527 24.2031 7.52715 24.8736 7.39019 25.5903C7.34818 25.813 7.16165 25.9802 6.93562 25.9979L5.19885 26.1382V27.0742L6.93646 27.2137C7.16249 27.2322 7.34818 27.3985 7.39103 27.6212C7.52799 28.3371 7.80611 29.0084 8.21698 29.6142C8.3447 29.8016 8.33042 30.0512 8.18422 30.2234L7.05326 31.551L7.71536 32.2131L9.04294 31.083C9.21603 30.9359 9.46558 30.9225 9.65295 31.0502C10.2579 31.4611 10.9284 31.7392 11.646 31.8762C11.8687 31.919 12.035 32.1055 12.0535 32.3307L12.193 34.0683Z" fill="black"/>
<path fill-rule="evenodd" clip-rule="evenodd" d="M12.6611 30.9384C10.2723 30.9384 8.32886 28.995 8.32886 26.6062C8.32886 24.2174 10.2723 22.2731 12.6611 22.2731C15.0499 22.2731 16.9934 24.2174 16.9934 26.6062C16.9934 28.995 15.0499 30.9384 12.6611 30.9384ZM12.6611 23.2814C10.8277 23.2814 9.3363 24.7728 9.3363 26.6062C9.3363 28.4396 10.8277 29.931 12.6611 29.931C14.4945 29.931 15.9859 28.4396 15.9859 26.6062C15.9859 24.7728 14.4945 23.2814 12.6611 23.2814Z" fill="black"/>
<path fill-rule="evenodd" clip-rule="evenodd" d="M22.631 43H2.69044C1.20658 43 0 41.7934 0 40.3096V2.69044C0 1.20658 1.20658 0 2.69044 0H22.631C24.1148 0 25.3214 1.20658 25.3214 2.69044V40.3096C25.3214 41.7934 24.1148 43 22.631 43ZM2.69044 1.00744C1.76198 1.00744 1.00744 1.76282 1.00744 2.69044V40.3096C1.00744 41.238 1.76198 41.9926 2.69044 41.9926H22.631C23.5586 41.9926 24.314 41.238 24.314 40.3096V2.69044C24.314 1.76282 23.5586 1.00744 22.631 1.00744H2.69044Z" fill="black"/>
<path fill-rule="evenodd" clip-rule="evenodd" d="M24.8183 6.10681H0.504387C0.225428 6.10681 0.000244141 5.88163 0.000244141 5.60351C0.000244141 5.32539 0.225428 5.09937 0.504387 5.09937H24.8183C25.0965 5.09937 25.3216 5.32539 25.3216 5.60351C25.3216 5.88163 25.0965 6.10681 24.8183 6.10681Z" fill="black"/>
<path fill-rule="evenodd" clip-rule="evenodd" d="M24.8183 37.9006H0.504387C0.225428 37.9006 0.000244141 37.6754 0.000244141 37.3965C0.000244141 37.1184 0.225428 36.8932 0.504387 36.8932H24.8183C25.0965 36.8932 25.3216 37.1184 25.3216 37.3965C25.3216 37.6754 25.0965 37.9006 24.8183 37.9006Z" fill="black"/>
<path fill-rule="evenodd" clip-rule="evenodd" d="M14.0667 40.4508H11.2553C10.9771 40.4508 10.752 40.2248 10.752 39.9466C10.752 39.6685 10.9771 39.4425 11.2553 39.4425H14.0667C14.3448 39.4425 14.57 39.6685 14.57 39.9466C14.57 40.2248 14.3448 40.4508 14.0667 40.4508Z" fill="black"/>
<path fill-rule="evenodd" clip-rule="evenodd" d="M14.0667 3.5576H11.2553C10.9771 3.5576 10.752 3.33158 10.752 3.05346C10.752 2.77534 10.9771 2.54932 11.2553 2.54932H14.0667C14.3448 2.54932 14.57 2.77534 14.57 3.05346C14.57 3.33158 14.3448 3.5576 14.0667 3.5576Z" fill="black"/>
</svg>
