<svg width="40" height="40" viewBox="0 0 40 40" fill="none" xmlns="http://www.w3.org/2000/svg">
<path d="M38.9734 19.0166C39.4114 19.9835 39.6893 21.0171 39.803 22.0714C39.9125 23.1258 39.8578 24.1927 39.6304 25.2304C39.4072 26.2681 39.0197 27.2642 38.4807 28.181C38.1269 28.7937 37.71 29.3688 37.2299 29.8981C36.754 30.4232 36.2234 30.8983 35.6464 31.315C35.0653 31.7318 34.4462 32.0819 33.7892 32.3694C33.1365 32.6528 32.4543 32.8695 31.7552 33.0112C31.4267 34.0198 30.9382 34.9741 30.3065 35.8326C29.679 36.6912 28.9167 37.4455 28.0492 38.0664C27.1817 38.6916 26.2215 39.175 25.2023 39.5001C24.1832 39.8293 23.1177 39.9918 22.0438 39.9918C21.3321 39.996 20.6162 39.921 19.9171 39.7793C19.2222 39.6334 18.54 39.4126 17.8872 39.125C17.2345 38.8374 16.6154 38.479 16.0385 38.0623C15.4657 37.6455 14.9351 37.1663 14.4634 36.637C13.4106 36.862 12.3325 36.9162 11.267 36.8078C10.2016 36.6953 9.15716 36.4203 8.17591 35.9868C7.19888 35.5576 6.29345 34.9741 5.49751 34.2615C4.70156 33.5488 4.02354 32.7153 3.4887 31.7985C3.13074 31.1858 2.83594 30.5399 2.61274 29.8689C2.38954 29.1979 2.24215 28.5061 2.16634 27.8018C2.09054 27.1017 2.09475 26.3932 2.17055 25.6889C2.24636 24.9887 2.40218 24.2969 2.62538 23.6259C1.90945 22.8383 1.31986 21.9422 0.881885 20.9754C0.448118 20.0043 0.165959 18.975 0.056464 17.9206C-0.057242 16.8662 0.00171668 15.7993 0.224917 14.7616C0.448118 13.7239 0.835561 12.7278 1.37461 11.811C1.72836 11.1983 2.14529 10.6191 2.62117 10.0939C3.09705 9.56883 3.63189 9.09373 4.20884 8.67698C4.78579 8.26023 5.40907 7.90599 6.06182 7.6226C6.71879 7.33504 7.40103 7.12249 8.10011 6.98079C8.42859 5.96808 8.91711 5.01789 9.5446 4.15937C10.1763 3.30086 10.9385 2.54654 11.8061 1.92141C12.6736 1.30044 13.6338 0.817011 14.6529 0.487775C15.6721 0.162707 16.7376 -0.00399389 17.8114 0.000173647C18.5232 -0.00399389 19.2391 0.0668542 19.9382 0.212718C20.6372 0.358582 21.3195 0.575294 21.9722 0.862853C22.625 1.15458 23.2441 1.50882 23.821 1.92557C24.398 2.3465 24.9286 2.82159 25.4003 3.35087C26.4489 3.12999 27.527 3.07581 28.5925 3.18417C29.6579 3.29253 30.6981 3.57175 31.6794 4.00101C32.6564 4.43443 33.5618 5.01372 34.3578 5.72637C35.1537 6.43485 35.8317 7.26419 36.3666 8.18521C36.7245 8.79367 37.0193 9.43964 37.2425 10.1148C37.4657 10.7858 37.6173 11.4776 37.6889 12.1819C37.7647 12.8862 37.7647 13.5947 37.6847 14.299C37.6089 15.0033 37.4531 15.6951 37.2299 16.3661C37.95 17.1537 38.5354 18.0456 38.9734 19.0166ZM24.9412 36.8078C25.8593 36.4328 26.6931 35.8785 27.3964 35.1825C28.0997 34.4865 28.6598 33.6614 29.0389 32.7487C29.4179 31.8401 29.6158 30.8649 29.6158 29.8814V20.5878C29.613 20.5795 29.6102 20.5697 29.6074 20.5586C29.6046 20.5503 29.6004 20.542 29.5948 20.5336C29.5891 20.5253 29.5821 20.5183 29.5737 20.5128C29.5653 20.5044 29.5569 20.4989 29.5484 20.4961L26.1499 18.554V29.7814C26.1499 29.8939 26.133 30.0106 26.1036 30.1189C26.0741 30.2315 26.032 30.3357 25.973 30.4357C25.914 30.5357 25.8467 30.6274 25.7624 30.7066C25.6806 30.7873 25.5886 30.8574 25.4887 30.9149L17.4408 35.5117C17.3735 35.5534 17.2598 35.6118 17.2008 35.6451C17.5335 35.9243 17.8957 36.1702 18.2747 36.3869C18.6579 36.6036 19.0538 36.787 19.4665 36.937C19.8792 37.0829 20.3046 37.1954 20.7341 37.2704C21.1679 37.3455 21.6059 37.383 22.0438 37.383C23.0377 37.383 24.0232 37.1871 24.9412 36.8078ZM5.77545 30.4982C6.2766 31.3525 6.93778 32.0944 7.7253 32.6945C8.51703 33.2946 9.41405 33.7322 10.3742 33.9864C11.3344 34.2406 12.3367 34.3073 13.3222 34.1781C14.3076 34.0489 15.2552 33.7322 16.1185 33.2404L24.2548 28.5936L24.2758 28.5728C24.2815 28.5672 24.2857 28.5589 24.2885 28.5478C24.2941 28.5395 24.2983 28.5311 24.3011 28.5228V24.6053L14.4803 30.2273C14.3792 30.2857 14.2739 30.3273 14.1644 30.3607C14.0507 30.3898 13.937 30.4023 13.8191 30.4023C13.7054 30.4023 13.5917 30.3898 13.478 30.3607C13.3685 30.3273 13.259 30.2857 13.1579 30.2273L5.11006 25.6263C5.03847 25.5847 4.93319 25.5222 4.87423 25.4846C4.79842 25.9139 4.76052 26.3473 4.76052 26.7808C4.76052 27.2142 4.80264 27.6476 4.87844 28.0769C4.95424 28.5019 5.07216 28.9229 5.21956 29.3313C5.37117 29.7397 5.55646 30.1315 5.77545 30.5065V30.4982ZM3.66137 13.1196C3.16443 13.9739 2.84437 14.9158 2.71382 15.891C2.58326 16.8662 2.65065 17.8539 2.90754 18.8083C3.16443 19.7585 3.60662 20.6461 4.21305 21.4296C4.81948 22.209 5.57331 22.8633 6.43242 23.355L14.5645 28.006C14.5729 28.0088 14.5828 28.0116 14.594 28.0143H14.6235C14.6347 28.0143 14.6445 28.0116 14.6529 28.006C14.6614 28.0032 14.6698 27.9991 14.6782 27.9935L18.0894 26.0431L8.26856 20.4336C8.1717 20.3753 8.07905 20.3044 7.99483 20.2252C7.91322 20.1442 7.84246 20.0532 7.78426 19.9543C7.72951 19.8543 7.68319 19.7501 7.65371 19.6376C7.62423 19.5292 7.60738 19.4167 7.6116 19.3V9.83556C7.19888 9.98559 6.79881 10.169 6.41979 10.3857C6.04077 10.6066 5.68281 10.8566 5.3459 11.1358C5.0132 11.4151 4.70156 11.7234 4.4194 12.0569C4.13725 12.3861 3.88878 12.7445 3.66979 13.1196H3.66137ZM31.5951 19.5542C31.6962 19.6126 31.7889 19.6793 31.8731 19.7626C31.9531 19.8418 32.0247 19.9335 32.0837 20.0335C32.1384 20.1335 32.1847 20.2419 32.2142 20.3502C32.2395 20.4628 32.2563 20.5753 32.2521 20.692V30.1565C33.6039 29.6647 34.7831 28.802 35.6549 27.6684C36.5308 26.5349 37.0572 25.1804 37.1794 23.7635C37.3015 22.3465 37.0151 20.9212 36.3497 19.6584C35.6843 18.3957 34.6694 17.3455 33.4229 16.637L25.2908 11.986C25.2823 11.9832 25.2725 11.9804 25.2613 11.9777H25.2318C25.2234 11.9804 25.2136 11.9832 25.2023 11.986C25.1939 11.9888 25.1855 11.993 25.1771 11.9985L21.7827 13.9406L31.6036 19.5542H31.5951ZM34.9853 14.5115H34.981V14.5157L34.9853 14.5115ZM34.981 14.5074C35.2253 13.1071 35.0611 11.6651 34.5052 10.3523C33.9535 9.03956 33.0312 7.91016 31.852 7.09332C30.6729 6.28065 29.2831 5.81389 27.847 5.75137C26.4068 5.69303 24.9833 6.03893 23.7368 6.74741L15.6047 11.3942C15.5963 11.3998 15.5893 11.4067 15.5836 11.4151L15.5668 11.4401C15.564 11.4484 15.5612 11.4581 15.5584 11.4692C15.5556 11.4776 15.5542 11.4873 15.5542 11.4984V15.3825L25.375 9.76888C25.4761 9.71053 25.5856 9.66885 25.6951 9.63552C25.8088 9.60634 25.9225 9.59384 26.0362 9.59384C26.1541 9.59384 26.2678 9.60634 26.3815 9.63552C26.491 9.66885 26.5963 9.71053 26.6974 9.76888L34.7452 14.3698C34.8168 14.4115 34.9221 14.4699 34.981 14.5074ZM13.7012 10.2065C13.7012 10.0939 13.718 9.98142 13.7475 9.8689C13.777 9.76054 13.8191 9.65218 13.8781 9.55216C13.937 9.45631 14.0044 9.36462 14.0886 9.28127C14.1686 9.20209 14.2613 9.13124 14.3624 9.07707L22.4102 4.48027C22.486 4.43443 22.5913 4.37609 22.6503 4.34691C21.5469 3.43422 20.1993 2.85077 18.7716 2.67156C17.344 2.48819 15.8953 2.71324 14.594 3.31753C13.2885 3.92182 12.1851 4.88452 11.4144 6.08477C10.6438 7.28919 10.2353 8.68115 10.2353 10.1064V19.4001C10.2381 19.4112 10.2409 19.4209 10.2437 19.4292C10.2465 19.4376 10.2507 19.4459 10.2563 19.4542C10.2619 19.4626 10.2689 19.4709 10.2774 19.4792C10.283 19.4848 10.2914 19.4903 10.3026 19.4959L13.7012 21.438V10.2065ZM15.5457 22.4882L19.9213 24.9887L24.2969 22.4882V17.4913L19.9255 14.9908L15.55 17.4913L15.5457 22.4882Z" fill="black"/>
</svg>
