<svg width="34" height="40" viewBox="0 0 34 40" fill="none" xmlns="http://www.w3.org/2000/svg">
<path d="M28.2167 11.6479C34.7178 18.149 34.7178 28.5779 28.2167 35.1242C21.851 41.6253 11.377 41.6253 4.87585 35.1242C-1.62528 28.623 -1.62528 18.149 4.87585 11.6479L16.5237 0V5.82393L15.4402 6.90745L7.72009 14.6275C2.84424 19.4131 2.84424 27.2686 7.72009 32.1445C12.5056 37.0203 20.3612 37.0203 25.237 32.1445C30.1129 27.3589 30.1129 19.5034 25.237 14.6275L28.2167 11.6479ZM22.3928 10.9255C21.1959 10.9255 20.2257 9.95529 20.2257 8.75846C20.2257 7.56164 21.1959 6.59142 22.3928 6.59142C23.5896 6.59142 24.5598 7.56164 24.5598 8.75846C24.5598 9.95529 23.5896 10.9255 22.3928 10.9255Z" fill="#EE4C2C"/>
</svg>
