<svg width="45" height="40" viewBox="0 0 45 40" fill="none" xmlns="http://www.w3.org/2000/svg">
<g clip-path="url(#clip0_1984_23653)">
<path d="M27.9548 2.86759C26.2977 0.3362 25.9031 0 22.5296 0H22.4901H22.4507C19.0772 0 18.7023 0.3362 17.0254 2.86759C15.4669 5.24076 0 33.6398 0 34.4308C0 35.5779 0.295923 36.6656 1.36125 38.2081C2.4463 39.7705 4.32047 40.6406 5.68172 39.2563C6.60894 38.3268 16.5322 21.1806 21.3262 14.6939C21.8983 13.8831 23.082 13.8831 23.6738 14.6939C28.4678 21.1806 38.3911 38.3268 39.3183 39.2563C40.6795 40.6406 42.5537 39.7705 43.6388 38.2081C44.7041 36.6656 45 35.5779 45 34.4308C44.9803 33.6398 29.5134 5.22099 27.9548 2.86759Z" fill="#1173B6"/>
</g>
<defs>
<clipPath id="clip0_1984_23653">
<rect width="45" height="40" fill="white"/>
</clipPath>
</defs>
</svg>
