<svg width="38" height="40" viewBox="0 0 38 40" fill="none" xmlns="http://www.w3.org/2000/svg">
<path d="M18.9936 22.8157C20.8666 22.8157 22.385 21.3114 22.385 19.4557C22.385 17.6 20.8666 16.0957 18.9936 16.0957C17.1205 16.0957 15.6021 17.6 15.6021 19.4557C15.6021 21.3114 17.1205 22.8157 18.9936 22.8157Z" fill="#00D8FF"/>
<path d="M18.9933 13.4261C23.376 13.4261 27.5393 14.0383 30.7045 15.1178C34.2197 16.3167 36.3639 18.0892 36.3639 19.455C36.3639 20.9098 34.0482 22.7985 30.2881 24.0327C27.2947 25.0153 23.2896 25.5508 18.9933 25.5508C14.4799 25.5508 10.4297 25.0259 7.47101 24.0237C5.61873 23.3966 4.08906 22.5815 3.04059 21.6919C2.09844 20.8926 1.62278 20.0989 1.62278 19.455C1.62278 18.0847 3.68496 16.3367 7.12436 15.1487C10.2908 14.0551 14.556 13.4261 18.9933 13.4261ZM18.9933 11.8184C14.3836 11.8184 9.93978 12.4737 6.59015 13.6306C2.5684 15.0198 0 17.1968 0 19.455C0 21.7874 2.75721 24.1266 6.94614 25.5451C10.0948 26.6115 14.3153 27.1586 18.9933 27.1586C23.4516 27.1586 27.6251 26.6004 30.7985 25.5588C35.1533 24.1294 37.9867 21.8185 37.9867 19.455C37.9867 17.1886 35.3353 14.9969 31.2327 13.5976C27.887 12.4566 23.5469 11.8184 18.9933 11.8184ZM13.6924 16.4599C15.8818 12.6987 18.497 9.43141 21.0221 7.2543C23.8265 4.8364 26.4475 3.88167 27.6419 4.56395C28.914 5.2907 29.4084 8.22171 28.6093 12.0652C27.973 15.1251 26.4404 18.8299 24.2941 22.5171C22.0395 26.3906 19.557 29.6042 17.2027 31.643C15.7289 32.9193 14.252 33.8249 12.9504 34.2802C11.7808 34.6896 10.8492 34.7011 10.2861 34.3795C9.08794 33.695 8.58978 31.052 9.26925 27.5068C9.89477 24.2428 11.4756 20.2683 13.6924 16.4599ZM12.2866 15.6567C9.98367 19.6131 8.33665 23.7541 7.67496 27.2068C6.88045 31.3522 7.50089 34.6442 9.47544 35.7722C11.5149 36.9374 14.9378 35.7397 18.2707 32.8534C20.7761 30.6837 23.363 27.335 25.6999 23.3203C27.9272 19.494 29.5241 15.6334 30.1988 12.3896C31.1244 7.93814 30.5192 4.35193 28.4525 3.17122C26.4708 2.03905 23.2299 3.21953 19.9568 6.04153C17.2877 8.3428 14.5614 11.7488 12.2866 15.6567ZM13.6975 22.5259C11.5017 18.7682 9.95059 14.8918 9.30782 11.6372C8.59394 8.02261 9.06808 5.29602 10.2611 4.61178C11.532 3.88287 14.3422 4.92211 17.304 7.5276C19.6621 9.6019 22.1365 12.7674 24.2891 16.4512C26.5504 20.3209 28.121 24.0567 28.728 27.0955C29.1082 28.9979 29.1624 30.7179 28.9106 32.0626C28.6843 33.2708 28.2295 34.0762 27.6669 34.3988C26.4699 35.0854 23.9096 34.1929 21.1488 31.8393C18.6071 29.6724 15.9208 26.3306 13.6975 22.5259ZM12.293 23.3313C14.6027 27.2837 17.4016 30.7656 20.0903 33.0579C23.3187 35.8101 26.5071 36.9216 28.4798 35.7901C30.5173 34.6216 31.1795 31.0856 30.32 26.7833C29.6737 23.5494 28.0374 19.6566 25.6935 15.6457C23.4598 11.8231 20.8813 8.52435 18.3815 6.32541C14.9511 3.30778 11.5128 2.03623 9.44811 3.22042C7.46831 4.35588 6.88204 7.72717 7.71524 11.9459C8.39465 15.3861 10.0117 19.4271 12.293 23.3313Z" fill="#00D8FF"/>
</svg>
