<svg width="41" height="41" viewBox="0 0 41 41" fill="none" xmlns="http://www.w3.org/2000/svg">
<path d="M12.4763 24.5519H10.1495V25.7554H12.4763C13.4717 25.7554 14.2816 24.9455 14.2816 23.9501C14.2816 22.9547 13.4717 22.1448 12.4763 22.1448H11.6739C11.3421 22.1448 11.0722 21.8749 11.0722 21.5431C11.0722 21.2112 11.3421 20.9413 11.6739 20.9413H14.0007V19.7378H11.6739C10.6785 19.7378 9.86865 20.5477 9.86865 21.5431C9.86865 22.5385 10.6785 23.3484 11.6739 23.3484H12.4763C12.8081 23.3484 13.078 23.6183 13.078 23.9501C13.078 24.282 12.8081 24.5519 12.4763 24.5519Z" fill="black"/>
<path d="M19.8983 25.7955V21.9442C19.8983 20.7276 18.9084 19.7378 17.6918 19.7378C16.4752 19.7378 15.4854 20.7276 15.4854 21.9442V25.7955H16.6889V24.6321H18.6947V25.7955H19.8983ZM16.6889 23.4286V21.9442C16.6889 21.3912 17.1387 20.9413 17.6918 20.9413C18.2449 20.9413 18.6947 21.3912 18.6947 21.9442V23.4286H16.6889Z" fill="black"/>
<path d="M25.5147 25.7955V21.9442C25.5147 20.7276 24.5249 19.7378 23.3083 19.7378C22.0917 19.7378 21.1018 20.7276 21.1018 21.9442V25.7955H22.3053V24.6321H24.3112V25.7955H25.5147ZM22.3053 23.4286V21.9442C22.3053 21.3912 22.7552 20.9413 23.3083 20.9413C23.8613 20.9413 24.3112 21.3912 24.3112 21.9442V23.4286H22.3053Z" fill="black"/>
<path d="M28.5235 20.9413H30.8504V19.7378H28.5235C27.5282 19.7378 26.7183 20.5477 26.7183 21.5431C26.7183 22.5385 27.5282 23.3484 28.5235 23.3484H29.3259C29.6577 23.3484 29.9277 23.6183 29.9277 23.9501C29.9277 24.282 29.6577 24.5519 29.3259 24.5519H26.9991V25.7554H29.3259C30.3213 25.7554 31.1312 24.9455 31.1312 23.9501C31.1312 22.9547 30.3213 22.1448 29.3259 22.1448H28.5235C28.1917 22.1448 27.9218 21.8749 27.9218 21.5431C27.9218 21.2112 28.1917 20.9413 28.5235 20.9413Z" fill="black"/>
<path d="M1.76741 19.475L0.655273 19.9349C1.45979 21.8801 2.94213 23.4632 4.82917 24.3925L5.36088 23.3128C3.73629 22.5127 2.46015 21.1498 1.76741 19.475Z" fill="black"/>
<path d="M19.5373 1.20352C22.6652 1.20352 25.6586 2.54473 27.75 4.88325L27.9916 5.15332L28.3434 5.0661C28.7702 4.96035 29.2088 4.90668 29.6469 4.90668C30.944 4.90668 32.1988 5.37397 33.18 6.22253L33.9673 5.31218C32.7674 4.27459 31.2331 3.70316 29.6469 3.70316C29.2317 3.70316 28.8161 3.74255 28.4074 3.82054C26.1019 1.38798 22.8895 0 19.5373 0C17.3692 0 15.2389 0.576567 13.3767 1.66728L13.985 2.70576C15.6628 1.72304 17.5828 1.20352 19.5373 1.20352Z" fill="black"/>
<path d="M1.20352 16.622C1.20352 12.5772 4.48119 9.23646 8.50986 9.17492L8.93671 9.16842L9.07167 8.76332C9.79932 6.57804 11.1687 4.70007 13.0316 3.33263L12.3193 2.36243C10.3676 3.79518 8.90446 5.73373 8.06865 7.98825C5.95198 8.12296 3.98157 9.02296 2.48182 10.5493C0.881379 12.178 0 14.3347 0 16.622C0 17.327 0.0848884 18.0283 0.252258 18.7065L1.42064 18.4181C1.27654 17.8343 1.20352 17.2299 1.20352 16.622Z" fill="black"/>
<path d="M36.2651 10.2151C36.2385 8.77227 35.7595 7.41101 34.8757 6.27087L33.9246 7.00815C34.6692 7.96896 35.0628 9.12194 35.0628 10.3426C35.0628 10.4173 35.0608 10.497 35.0564 10.5933L35.0366 11.0335L35.4502 11.1853C38.0499 12.1393 39.7966 14.6476 39.7966 17.427C39.7966 20.1396 38.1797 22.5547 35.6771 23.5798L36.1333 24.6936C39.0898 23.4825 41.0001 20.6302 41.0001 17.427C41.0001 14.2896 39.1145 11.4444 36.2651 10.2151Z" fill="black"/>
<path d="M7.46182 26.3572V19.136C7.46182 18.583 7.9117 18.1331 8.46476 18.1331H28.6954V16.9296H8.46476C7.24816 16.9296 6.2583 17.9194 6.2583 19.136V26.3572C6.2583 27.5738 7.24816 28.5636 8.46476 28.5636H11.273V27.3601H8.46476C7.9117 27.3601 7.46182 26.9102 7.46182 26.3572Z" fill="black"/>
<path d="M32.5353 16.9296H29.899V18.1331H32.5353C33.0883 18.1331 33.5382 18.583 33.5382 19.136V26.3572C33.5382 26.9102 33.0883 27.3601 32.5353 27.3601H12.4766V28.5636H16.3679V30.8418L14.2818 32.9279V35.0666C13.3569 35.3292 12.6771 36.1809 12.6771 37.1889C12.6771 38.4055 13.667 39.3954 14.8836 39.3954C16.1002 39.3954 17.0901 38.4055 17.0901 37.1889C17.0901 36.1809 16.4103 35.3292 15.4854 35.0666V33.4264L17.5715 31.3403V28.5636H19.8983V36.6712C18.9733 36.9339 18.2936 37.7856 18.2936 38.7935C18.2936 40.0101 19.2834 41 20.5 41C21.7166 41 22.7065 40.0101 22.7065 38.7935C22.7065 37.7856 22.0267 36.9339 21.1018 36.6712V28.5636H23.4286V31.3402L25.5147 33.4263V35.0665C24.5898 35.3292 23.91 36.1809 23.91 37.1889C23.91 38.4054 24.8999 39.3953 26.1165 39.3953C27.3331 39.3953 28.3229 38.4054 28.3229 37.1889C28.3229 36.1809 27.6432 35.3292 26.7182 35.0665V32.9278L24.6321 30.8417V28.5636H32.5353C33.7519 28.5636 34.7417 27.5738 34.7417 26.3572V19.136C34.7417 17.9194 33.7519 16.9296 32.5353 16.9296ZM15.8865 37.1889C15.8865 37.7419 15.4367 38.1918 14.8836 38.1918C14.3305 38.1918 13.8807 37.7419 13.8807 37.1889C13.8807 36.6358 14.3305 36.1859 14.8836 36.1859C15.4367 36.1859 15.8865 36.6358 15.8865 37.1889ZM21.503 38.7935C21.503 39.3466 21.0531 39.7965 20.5 39.7965C19.947 39.7965 19.4971 39.3466 19.4971 38.7935C19.4971 38.2405 19.947 37.7906 20.5 37.7906C21.0531 37.7906 21.503 38.2405 21.503 38.7935ZM27.1194 37.1889C27.1194 37.7419 26.6695 38.1918 26.1165 38.1918C25.5634 38.1918 25.1135 37.7419 25.1135 37.1889C25.1135 36.6358 25.5634 36.1859 26.1165 36.1859C26.6695 36.1859 27.1194 36.6358 27.1194 37.1889Z" fill="black"/>
<path d="M19.8982 6.29846H21.1017V13.1184H19.8982V6.29846Z" fill="black"/>
<path d="M19.8982 14.322H21.1017V15.5255H19.8982V14.322Z" fill="black"/>
<path d="M16.3679 14.322H17.5714V15.5255H16.3679V14.322Z" fill="black"/>
<path d="M17.5714 11.3448L15.4853 9.25868V7.9032H14.2817V9.7571L16.3678 11.8432V13.1185H17.5714V11.3448Z" fill="black"/>
<path d="M23.4285 14.322H24.632V15.5255H23.4285V14.322Z" fill="black"/>
<path d="M24.632 11.8432L26.7181 9.7571V7.9032H25.5146V9.25868L23.4285 11.3448V13.1185H24.632V11.8432Z" fill="black"/>
<path d="M19.8982 3.89136H21.1017V5.09488H19.8982V3.89136Z" fill="black"/>
<path d="M14.2817 5.49609H15.4853V6.69962H14.2817V5.49609Z" fill="black"/>
<path d="M25.5146 5.49609H26.7182V6.69962H25.5146V5.49609Z" fill="black"/>
</svg>
