<svg width="81" height="40" viewBox="0 0 81 40" fill="none" xmlns="http://www.w3.org/2000/svg">
<g clip-path="url(#clip0_2045_24431)">
<path fill-rule="evenodd" clip-rule="evenodd" d="M0 40H40.9366L81 0H0V40Z" fill="url(#paint0_linear_2045_24431)"/>
<path fill-rule="evenodd" clip-rule="evenodd" d="M48.0696 7.52136L40.0963 7.51646V26.4416L33.1312 7.51646H26.2251L20.2781 23.3431C19.6448 19.3525 15.5096 17.9745 12.2562 16.9414C10.108 16.2527 7.82872 15.2398 7.84974 14.1204C7.86761 13.2014 9.07245 12.3478 11.4594 12.4763C13.0641 12.5612 14.4789 12.6904 17.295 14.0461L20.0649 9.23097C17.4942 7.92548 13.9427 7.10018 11.0325 7.09705H11.0156C7.62208 7.09705 4.79362 8.19469 3.04057 10.0037C1.81864 11.267 1.16043 12.8716 1.13293 14.6467C1.08834 17.0886 1.98559 18.8216 3.87064 20.2031C5.46244 21.3686 7.49814 22.1235 9.29245 22.6788C11.5061 23.3635 13.3126 23.9584 13.2916 25.2282C13.2753 25.69 13.0997 26.1208 12.7669 26.4708C12.2156 27.0388 11.3676 27.2523 10.197 27.2743C7.93871 27.3219 6.26344 26.9686 3.59526 25.3949L1.13293 30.2778C3.79365 31.7886 6.94424 32.6745 10.1589 32.6745L10.5725 32.6698C13.3709 32.6196 15.6294 31.8235 17.4333 30.3733C17.5368 30.2918 17.6299 30.2076 17.7256 30.1229L16.9256 32.2551H24.1686L25.3842 28.5645C26.6564 28.9986 28.1041 29.2384 29.6418 29.2384C31.1382 29.2384 32.5479 29.009 33.7973 28.6008L34.969 32.2551H46.7811V24.6141H49.3568C55.5845 24.6141 59.2674 21.448 59.2674 16.1431C59.2674 10.2335 55.6888 7.52175 48.0692 7.52175L48.0696 7.52136ZM29.6422 23.7149C28.7118 23.7149 27.8397 23.5525 27.0876 23.2688L29.6147 15.3094H29.6627L32.146 23.2914C31.3994 23.5559 30.5475 23.7149 29.6424 23.7149H29.6422ZM48.5377 19.1416H46.7815V12.7276H48.5377C50.8804 12.7276 52.7484 13.5043 52.7484 15.8921C52.7484 18.3631 50.8804 19.1416 48.5377 19.1416Z" fill="white"/>
</g>
<defs>
<linearGradient id="paint0_linear_2045_24431" x1="40.5" y1="0" x2="40.5" y2="40" gradientUnits="userSpaceOnUse">
<stop stop-color="#00B1EB"/>
<stop offset="0.212" stop-color="#009AD9"/>
<stop offset="0.519" stop-color="#007FC4"/>
<stop offset="0.792" stop-color="#006EB8"/>
<stop offset="1" stop-color="#0069B4"/>
</linearGradient>
<clipPath id="clip0_2045_24431">
<rect width="81" height="40" fill="white"/>
</clipPath>
</defs>
</svg>
