<svg width="75" height="40" viewBox="0 0 75 40" fill="none" xmlns="http://www.w3.org/2000/svg">
<path d="M56.9165 33.9901C65.9778 24.9346 67.4851 11.7513 60.279 4.55099C53.0728 -2.64936 39.8896 -1.14204 30.8283 7.91347C21.767 16.969 24.3874 34.28 27.4658 37.3526C29.9529 39.8396 47.8552 43.0456 56.9165 33.9901Z" fill="#F89939"/>
<path d="M19.7323 20.9053C14.4741 15.6529 6.82158 14.7775 2.64167 18.9516C-1.53825 23.1315 -0.662842 30.7783 4.59538 36.0307C9.85361 41.2889 19.9005 39.7642 21.6861 37.9844C23.1296 36.5409 24.9964 26.1578 19.7323 20.9053Z" fill="#3499CD"/>
<path d="M71.7815 32.5698C71.4453 32.5698 71.2771 32.3669 71.2771 31.9553C71.2771 31.648 71.4801 30.9755 71.8801 29.9494C72.4656 28.4479 72.7613 27.3695 72.7613 26.7144C72.7613 26.3202 72.6453 25.9898 72.4134 25.7289C72.1815 25.468 71.8917 25.3347 71.5438 25.3347C71.0337 25.3347 70.4481 25.5724 69.7872 26.0535C69.1263 26.5347 68.2393 27.3985 67.1204 28.6508C67.2828 27.8391 67.6306 26.726 68.1524 25.3115L65.6537 25.7926C65.0855 27.0217 64.6739 28.129 64.4188 29.1145C64.2913 29.5957 64.1985 30.0943 64.1348 30.5987C63.3521 31.3581 62.842 31.8161 62.6217 31.9843C62.3956 32.1524 62.1579 32.2335 61.9144 32.2335C61.6883 32.2335 61.5086 32.1466 61.3752 31.9785C61.2419 31.8103 61.1781 31.5784 61.1781 31.2944C61.1781 30.9871 61.2361 30.6335 61.352 30.2334C61.468 29.8334 61.7231 29.0798 62.1231 27.9725L63.0739 25.3521L62.1405 25.3926C61.2941 27.0043 60.3027 27.8739 59.1664 27.9957C59.4737 27.1956 59.6302 26.5811 59.6302 26.1521C59.6302 25.6071 59.3635 25.3347 58.8302 25.3347C58.1983 25.3347 57.7055 25.6303 57.3518 26.2275C56.9924 26.8246 56.8127 27.3869 56.8127 27.9145C56.8127 28.4421 57.1083 28.8131 57.6939 29.074C57.3113 29.6363 56.8823 30.1639 56.4185 30.6624C55.8677 31.2074 55.4387 31.6248 55.1256 31.8973C54.8068 32.1814 54.5111 32.3205 54.2444 32.3205C53.827 32.3205 53.6183 32.0248 53.6183 31.4393C53.6183 30.8538 53.8502 29.845 54.314 28.3377L55.2184 25.3347H54.6445L52.5516 26.4941C52.2096 25.7115 51.6124 25.3173 50.7602 25.3173C50.0819 25.3173 49.3051 25.6071 48.4239 26.1811C47.5427 26.755 46.818 27.5029 46.2557 28.4363C45.8208 29.1551 45.5542 29.9088 45.4556 30.6856C44.6672 31.4741 44.0758 31.9843 43.6816 32.2219C43.27 32.4654 42.841 32.5872 42.3888 32.5872C41.2351 32.5872 40.522 31.9205 40.2496 30.5871C43.2584 29.7059 44.7599 28.558 44.7599 27.1434C44.7599 26.6101 44.5686 26.1811 44.186 25.8506C43.8034 25.5202 43.2932 25.3578 42.6613 25.3578C41.438 25.3578 40.3249 25.9434 39.322 27.1144C38.4118 28.1754 37.919 29.3522 37.8321 30.6451C37.003 31.4625 36.3769 32.0016 35.9711 32.2625C35.5537 32.5292 35.1595 32.6625 34.7942 32.6625C34.429 32.6625 34.1391 32.4886 33.9246 32.1408C33.7043 31.7929 33.5942 31.3233 33.5942 30.7262C33.5942 30.4595 33.6232 29.9726 33.6753 29.2595C35.0435 27.7754 36.0465 26.384 36.69 25.0796C37.3335 23.7752 37.6523 22.4244 37.6523 21.033C37.6523 20.5402 37.5886 20.1518 37.461 19.8619C37.3335 19.5721 37.1712 19.4271 36.974 19.4271C36.9335 19.4271 36.8697 19.4387 36.7885 19.4677L34.1855 20.4301C33.2985 22.1229 32.539 23.9723 31.9187 25.984C31.2984 27.9899 30.9854 29.7117 30.9854 31.1436C30.9854 32.1002 31.2057 32.8597 31.6578 33.4278C32.1042 33.9959 32.6956 34.28 33.426 34.28C34.0638 34.28 34.7305 34.0771 35.4319 33.6713C36.1334 33.2655 36.9451 32.6336 37.8784 31.7813C38.8118 30.9291 37.8784 31.7698 37.8784 31.7698C37.9886 32.4133 38.2553 32.9524 38.6727 33.393C39.2466 33.9843 39.9945 34.2858 40.9221 34.2858C41.7569 34.2858 42.5163 34.0829 43.2062 33.6771C43.8729 33.2887 44.6208 32.6799 45.4556 31.8741C45.5252 32.477 45.7223 32.9988 46.0527 33.4452C46.476 34.0075 46.9861 34.2916 47.5833 34.2916C48.1804 34.2916 48.7949 34.0597 49.3746 33.5959C49.9544 33.1321 50.5805 32.4075 51.2646 31.4335C51.2008 33.3408 51.711 34.2916 52.7893 34.2916C53.2183 34.2916 53.6705 34.1351 54.1401 33.822C54.6097 33.509 55.3923 32.8307 56.488 31.7929C57.4388 30.8538 58.1345 29.9726 58.5809 29.1493C59.1838 29.045 59.7346 28.8653 60.2389 28.6044C59.207 30.2218 58.691 31.5147 58.691 32.477C58.691 32.9988 58.836 33.4336 59.12 33.7814C59.4041 34.1293 59.7578 34.309 60.1752 34.309C61.0854 34.309 62.3782 33.4916 64.0478 31.8741C64.0478 32.0016 64.0362 32.1234 64.0362 32.2509C64.0362 32.7031 64.0768 33.3872 64.1464 34.309L66.4131 33.7756C66.4131 33.1611 66.4247 32.6741 66.4421 32.3089C66.4769 31.8219 66.5465 31.2886 66.645 30.7088C66.7088 30.3668 66.8653 30.0421 67.1146 29.7349L67.6886 29.0682C67.8973 28.8247 68.1002 28.6044 68.2799 28.4131C68.4944 28.187 68.6857 27.9957 68.8538 27.8391C69.0452 27.671 69.2133 27.5319 69.3582 27.4391C69.5147 27.3463 69.6423 27.2942 69.735 27.2942C69.9032 27.2942 69.9901 27.4043 69.9901 27.6246C69.9901 27.8449 69.8278 28.3551 69.5089 29.1609C68.906 30.6625 68.6046 31.7813 68.6046 32.5118C68.6046 33.051 68.7437 33.48 69.0278 33.8046C69.306 34.1235 69.6771 34.2858 70.1351 34.2858C71.2598 34.2858 72.6163 33.451 74.1932 31.7871V30.6103C73.0743 31.9263 72.2685 32.5872 71.7699 32.5872L71.7815 32.5698ZM33.9478 27.7638C34.4116 25.497 34.887 23.7404 35.3682 22.4823C35.8494 21.2243 36.2204 20.5924 36.4697 20.5924C36.5856 20.5924 36.6842 20.6678 36.7595 20.8243C36.8349 20.975 36.8697 21.1837 36.8697 21.433C36.8697 22.2968 36.603 23.323 36.0581 24.523C35.5189 25.7173 34.8116 26.8014 33.9478 27.7638ZM40.7829 27.1956C41.1945 26.5057 41.6235 26.1637 42.0757 26.1637C42.5511 26.1637 42.7946 26.4941 42.7946 27.1492C42.7946 28.4768 41.9192 29.3812 40.1684 29.874C40.1684 28.7725 40.3713 27.8797 40.7829 27.1956ZM50.9167 30.5871C50.3138 31.7524 49.6645 32.3321 48.9862 32.3321C48.7079 32.3321 48.476 32.2161 48.2963 31.99C48.1166 31.764 48.0239 31.4625 48.0239 31.0915C48.0239 30.1175 48.3311 29.045 48.9398 27.8855C49.5486 26.726 50.1979 26.1463 50.882 26.1463C51.166 26.1463 51.3979 26.2506 51.5661 26.4709C51.7342 26.6854 51.8211 26.9869 51.8211 27.3695C51.8211 28.3551 51.5197 29.4276 50.9167 30.5929V30.5871Z" fill="#010101"/>
<path d="M43.7449 20.5112C43.8319 20.6329 43.8725 20.7894 43.8725 20.9749C43.8725 21.1605 43.8203 21.3286 43.716 21.4851C43.6116 21.6416 43.4609 21.7692 43.258 21.8561C43.0609 21.9431 42.8348 21.9895 42.5855 21.9895C42.1681 21.9895 41.855 21.9025 41.6347 21.7286C41.4144 21.5547 41.2753 21.2996 41.2173 20.9576L41.7564 20.8706C41.7854 21.0851 41.8724 21.2532 42.0057 21.3634C42.1449 21.4793 42.3362 21.5373 42.5855 21.5373C42.8348 21.5373 43.0203 21.4851 43.142 21.3866C43.2638 21.288 43.3217 21.1663 43.3217 21.0271C43.3217 20.9054 43.2696 20.8068 43.1594 20.7373C43.084 20.6909 42.8985 20.6271 42.6029 20.5517C42.2028 20.4532 41.9304 20.3662 41.7738 20.2909C41.6173 20.2155 41.5014 20.1169 41.426 19.9836C41.3506 19.8503 41.3042 19.7111 41.3042 19.5546C41.3042 19.4097 41.339 19.2821 41.4028 19.1604C41.4666 19.0386 41.5593 18.9401 41.6695 18.8589C41.7564 18.7951 41.8666 18.743 42.0115 18.7024C42.1565 18.6618 42.313 18.6386 42.4811 18.6386C42.7304 18.6386 42.9507 18.6734 43.142 18.7488C43.3333 18.8183 43.4725 18.9169 43.5652 19.0444C43.658 19.1662 43.716 19.3343 43.7507 19.543L43.2174 19.6126C43.1942 19.4502 43.1246 19.3169 43.0087 19.2241C42.8927 19.1314 42.7304 19.085 42.5159 19.085C42.2666 19.085 42.0869 19.1256 41.9825 19.2067C41.8782 19.2879 41.8202 19.3865 41.8202 19.4966C41.8202 19.5662 41.8434 19.63 41.884 19.6879C41.9304 19.7459 41.9999 19.7923 42.0927 19.8329C42.1449 19.8503 42.3072 19.8966 42.5739 19.972C42.9565 20.0764 43.2232 20.1575 43.3797 20.2213C43.5304 20.2851 43.6522 20.3836 43.7391 20.5054L43.7449 20.5112ZM46.3364 21.346C46.1914 21.4793 46.0175 21.5431 45.803 21.5431C45.5363 21.5431 45.3218 21.4445 45.1595 21.2532C44.9972 21.0619 44.9102 20.7431 44.9102 20.314C44.9102 19.885 44.9972 19.5778 45.1653 19.3865C45.3334 19.1952 45.5595 19.0908 45.832 19.0908C46.0117 19.0908 46.1682 19.143 46.2958 19.2531C46.4233 19.3633 46.5103 19.5256 46.5625 19.7401L47.09 19.6589C47.0263 19.3343 46.8871 19.085 46.6668 18.9111C46.4465 18.7372 46.1625 18.6502 45.8146 18.6502C45.5363 18.6502 45.287 18.714 45.0494 18.8473C44.8175 18.9749 44.6377 19.172 44.5276 19.4328C44.4116 19.6937 44.3537 19.9952 44.3537 20.343C44.3537 20.8764 44.487 21.288 44.7537 21.5721C45.0204 21.8562 45.374 22.0011 45.8088 22.0011C46.1567 22.0011 46.4523 21.8967 46.6958 21.688C46.9335 21.4793 47.0842 21.1895 47.1422 20.8242L46.6089 20.7547C46.5683 21.0271 46.4813 21.2242 46.3364 21.3576V21.346ZM47.606 21.9141H48.151V18.714H47.606V21.9141ZM47.606 18.1168H48.151V17.4907H47.606V18.1168ZM51.5076 18.7082H50.8062L49.5191 20.0126V17.4907H48.9742V21.9083H49.5191V20.6387L49.9018 20.2735L50.9627 21.9083H51.6352L50.2844 19.8966L51.5076 18.7082ZM52.0642 18.1168H52.6091V17.4907H52.0642V18.1168ZM52.0642 21.9141H52.6091V18.714H52.0642V21.9141ZM54.6208 21.4271C54.5223 21.4387 54.4411 21.4503 54.3831 21.4503C54.302 21.4503 54.2382 21.4387 54.1976 21.4098C54.157 21.3808 54.1223 21.346 54.1049 21.3054C54.0875 21.259 54.0759 21.1605 54.0759 21.0097V19.1372H54.6208V18.714H54.0759V17.5951L53.5367 17.9197V18.714H53.1367V19.1372H53.5367V20.9807C53.5367 21.3054 53.5599 21.5199 53.6005 21.6185C53.6469 21.7228 53.7222 21.804 53.8266 21.8619C53.9367 21.9257 54.0875 21.9547 54.2846 21.9547C54.4063 21.9547 54.5397 21.9373 54.6962 21.9083L54.615 21.4271H54.6208Z" fill="white"/>
</svg>
