<svg width="39" height="39" viewBox="0 0 39 39" fill="none" xmlns="http://www.w3.org/2000/svg">
<path d="M34.7375 5.30193C35.5479 5.30193 36.2037 4.64616 36.2037 3.83572C36.2037 3.02528 35.5479 2.36951 34.7375 2.36951C33.927 2.36951 33.2712 3.02528 33.2712 3.83572C33.2712 4.64616 33.9332 5.30193 34.7375 5.30193ZM34.7375 3.41503C34.9725 3.41503 35.1643 3.60682 35.1643 3.84191C35.1643 4.07699 34.9725 4.26878 34.7375 4.26878C34.4962 4.26878 34.3106 4.08318 34.3106 3.84191C34.3106 3.60063 34.5024 3.41503 34.7375 3.41503Z" fill="black"/>
<path d="M36.3645 0H6.22367C5.07916 0 4.14499 0.934169 4.14499 2.07868V5.25238H2.07868C0.934169 5.25238 0 6.18655 0 7.33106V33.395C0 34.5395 0.934169 35.4737 2.07868 35.4737H15.8932V38.4803C15.8932 38.7649 16.1283 39 16.4129 39H26.1753C26.4599 39 26.695 38.7649 26.695 38.4803V35.4737H32.2195C33.3641 35.4737 34.2982 34.5395 34.2982 33.395V30.2213H36.3645C37.509 30.2213 38.4432 29.2871 38.4432 28.1426V2.07868C38.4432 0.934169 37.509 0 36.3645 0ZM5.18433 2.07868C5.18433 1.50333 5.6545 1.03934 6.22367 1.03934H36.3645C36.9399 1.03934 37.4039 1.50952 37.4039 2.07868V6.63817H17.6812L15.3612 4.2316C15.1818 4.046 14.9343 3.94083 14.6807 3.94083H9.57059C9.05092 3.94083 8.62405 4.3677 8.62405 4.88737V6.63817H5.18433V2.07868ZM2.07868 34.4405C1.50333 34.4405 1.03934 33.9703 1.03934 33.4012V7.33106C1.03934 6.75571 1.50952 6.29172 2.07868 6.29172H4.14499V28.1488C4.14499 29.2933 5.07916 30.2275 6.22367 30.2275H17.5079C17.7121 30.6234 17.8049 31.0688 17.7678 31.5267H16.9635C16.3696 31.5267 15.8932 32.0092 15.8932 32.5969V34.4405H2.07868ZM20.7806 23.5584C20.8858 23.3728 21.0776 23.2552 21.2941 23.2552C21.6158 23.2552 21.8756 23.5151 21.8756 23.8368C21.8756 24.0471 21.7643 24.2389 21.5849 24.3441C21.3869 24.4616 21.1518 24.4492 20.9105 24.3131C20.8796 24.2946 20.8487 24.2698 20.8363 24.2389C20.6383 23.9234 20.7187 23.6759 20.7806 23.5584ZM20.7744 22.3149C20.397 22.4448 20.0753 22.6984 19.8774 23.0573C19.5804 23.5893 19.6175 24.2389 19.964 24.7957C20.0753 24.9689 20.2238 25.1112 20.4032 25.2164C20.6878 25.3772 20.9971 25.4638 21.3003 25.4638C21.5849 25.4638 21.8633 25.3896 22.1107 25.2473C22.6056 24.9565 22.915 24.4183 22.915 23.843C22.915 23.1315 22.451 22.5314 21.8138 22.3149V19.6423L26.4104 27.9385C26.4042 27.9446 26.398 27.957 26.3794 27.9632C24.7524 28.3839 23.6883 29.9058 23.7749 31.5267H18.8195C18.9123 29.8996 17.842 28.3777 16.184 27.9137L20.7744 19.6423V22.3149ZM25.6556 37.9607H16.9326L16.9635 32.5598H25.6247C25.6432 32.5598 25.6556 32.5722 25.6556 32.5907V37.9607ZM33.2589 33.395C33.2589 33.9703 32.7887 34.4343 32.2195 34.4343H26.695V32.5907C26.695 31.9968 26.2124 31.5205 25.6247 31.5205H24.8204C24.7833 31.0627 24.8823 30.6172 25.0803 30.2213H33.2589V33.395ZM36.3645 29.1881H26.0887C26.2557 29.0953 26.4351 29.0149 26.6331 28.9654C26.961 28.8788 27.227 28.6499 27.3631 28.3406C27.493 28.0374 27.4745 27.6972 27.3136 27.4064L21.9932 17.8234C21.8571 17.5698 21.5911 17.4089 21.3003 17.4089C21.0033 17.4151 20.7373 17.5636 20.595 17.8173L15.2684 27.4064C15.1075 27.6972 15.0952 28.0436 15.2251 28.3468C15.355 28.6561 15.621 28.8788 15.9489 28.9654C16.1469 29.0149 16.3201 29.0953 16.4933 29.1881H6.22367C5.64832 29.1881 5.18433 28.718 5.18433 28.1488V7.67751H8.71066C9.23033 7.67751 9.6572 7.25063 9.6572 6.73096V4.98017H14.6374L16.9573 7.38674C17.1367 7.57234 17.3842 7.67751 17.6378 7.67751H37.4039V28.1426C37.4039 28.718 36.9399 29.1881 36.3645 29.1881Z" fill="black"/>
<path d="M31.1986 5.30193C32.0091 5.30193 32.6648 4.64616 32.6648 3.83572C32.6648 3.02528 32.0091 2.36951 31.1986 2.36951C30.3882 2.36951 29.7324 3.02528 29.7324 3.83572C29.7324 4.64616 30.3882 5.30193 31.1986 5.30193ZM31.1986 3.41503C31.4337 3.41503 31.6255 3.60682 31.6255 3.84191C31.6255 4.07699 31.4337 4.26878 31.1986 4.26878C30.9574 4.26878 30.7718 4.08318 30.7718 3.84191C30.7718 3.60063 30.9635 3.41503 31.1986 3.41503Z" fill="black"/>
<path d="M27.6537 5.30193C28.4642 5.30193 29.1199 4.64616 29.1199 3.83572C29.1199 3.02528 28.4642 2.36951 27.6537 2.36951C26.8433 2.36951 26.1875 3.02528 26.1875 3.83572C26.1875 4.64616 26.8433 5.30193 27.6537 5.30193ZM27.6537 3.41503C27.8888 3.41503 28.0806 3.60682 28.0806 3.84191C28.0806 4.07699 27.8888 4.26878 27.6537 4.26878C27.4124 4.26878 27.2268 4.08318 27.2268 3.84191C27.2268 3.60063 27.4186 3.41503 27.6537 3.41503Z" fill="black"/>
<path d="M31.3104 12.2061C31.0073 12.5092 30.8155 12.8928 30.7412 13.3011H23.472V12.4845C23.472 11.9277 23.0204 11.4761 22.4636 11.4761H20.1189C19.5621 11.4761 19.1105 11.9277 19.1105 12.4845V13.3011H11.8475C11.7795 12.899 11.5877 12.5154 11.2784 12.1999C10.4927 11.4266 9.15019 11.439 8.38305 12.2061C7.9933 12.5958 7.78296 13.1093 7.78296 13.6537C7.78296 14.2043 7.99949 14.724 8.38305 15.1014C8.77281 15.5035 9.29248 15.7077 9.83071 15.7077C10.171 15.7077 10.5174 15.6272 10.8453 15.4602C11.1979 15.2808 11.4887 14.9838 11.6619 14.6188C11.7052 14.526 11.7423 14.4332 11.7733 14.3404H16.8153C14.0747 15.6767 12.0084 18.1885 11.2907 21.2199H10.4865C9.92969 21.2199 9.47807 21.6715 9.47807 22.2283V24.573C9.47807 25.1298 9.92969 25.5814 10.4865 25.5814H12.8312C13.388 25.5814 13.8396 25.1298 13.8396 24.573V22.2283C13.8396 21.6715 13.388 21.2199 12.8312 21.2199H12.361C13.2271 17.9534 15.844 15.3922 19.1291 14.6003V14.823C19.1291 15.3798 19.5807 15.8314 20.1375 15.8314H22.4822C23.039 15.8314 23.4906 15.3798 23.4906 14.823V14.6003C26.7695 15.3922 29.3864 17.9534 30.2587 21.2199H29.8318C29.275 21.2199 28.8234 21.6715 28.8234 22.2283V24.573C28.8234 25.1298 29.275 25.5814 29.8318 25.5814H32.1765C32.7333 25.5814 33.1849 25.1298 33.1849 24.573V22.2283C33.1849 21.6715 32.7333 21.2199 32.1765 21.2199H31.329C30.6051 18.1885 28.5388 15.6706 25.8044 14.3404H30.8588C30.9578 14.625 31.1186 14.8849 31.3351 15.1014C31.7249 15.5035 32.2446 15.7077 32.7828 15.7077C33.1231 15.7077 33.4695 15.6272 33.7974 15.4602C34.15 15.2808 34.4408 14.9838 34.614 14.6188C35.0161 13.7713 34.8739 12.8495 34.2366 12.1999C33.4262 11.4328 32.0837 11.439 31.3104 12.2061ZM10.7154 14.1796C10.6411 14.3281 10.5174 14.458 10.3689 14.5322C9.83071 14.8044 9.36672 14.6312 9.11307 14.3652C8.92128 14.1796 8.81611 13.9259 8.81611 13.6537C8.81611 13.3877 8.92128 13.1341 9.11307 12.9361C9.30485 12.7443 9.5585 12.6391 9.83071 12.6391C10.0967 12.6391 10.3566 12.7443 10.5422 12.9299C10.8639 13.264 10.9257 13.728 10.7154 14.1796ZM12.8188 24.5421L10.505 24.573L10.4741 22.2592H12.7879L12.8188 24.5421ZM32.158 24.5421L29.8442 24.573L29.8133 22.2592H32.127L32.158 24.5421ZM20.1561 14.8292L20.1437 14.0497C20.1561 13.994 20.1561 13.9383 20.1499 13.8765V13.8703C20.1499 13.8517 20.1622 13.8393 20.1622 13.8208C20.1622 13.7898 20.1499 13.7651 20.1437 13.7404L20.1251 12.5216H22.4389L22.4575 13.7404C22.4513 13.7713 22.4389 13.796 22.4389 13.827C22.4389 13.8455 22.4451 13.8579 22.4513 13.8765V13.8826C22.4389 13.9631 22.4451 14.0373 22.4636 14.1054L22.476 14.8044L20.1561 14.8292ZM33.6489 14.1796C33.5747 14.3281 33.4509 14.458 33.3025 14.5322C32.7642 14.8044 32.3003 14.6312 32.0466 14.3652C31.8548 14.1796 31.7496 13.9259 31.7496 13.6537C31.7496 13.3877 31.8548 13.1341 32.0466 12.9361C32.2384 12.7443 32.492 12.6391 32.7642 12.6391C33.0303 12.6391 33.2901 12.7443 33.4757 12.9299C33.7974 13.264 33.8593 13.728 33.6489 14.1796Z" fill="black"/>
</svg>
