<svg width="40" height="40" viewBox="0 0 40 40" fill="none" xmlns="http://www.w3.org/2000/svg">
<g clip-path="url(#clip0_2044_24414)">
<path d="M35 0H5C2.24 0 0 2.24 0 5V35C0 37.76 2.24 40 5 40H35C37.7625 40 40 37.76 40 35V5C40 2.2375 37.76 0 35 0Z" fill="#0277BD"/>
<path d="M17.5 30C17.5 31.38 16.38 32.5 15 32.5H7.5C6.1175 32.5 5 31.38 5 30V7.5C5 6.1175 6.1175 5 7.5 5H15C16.38 5 17.5 6.1175 17.5 7.5V30Z" fill="#ECEFF1"/>
<path d="M35 20C35 21.38 33.88 22.5 32.5 22.5H25C23.6175 22.5 22.5 21.38 22.5 20V7.5C22.5 6.1175 23.6175 5 25 5H32.5C33.88 5 35 6.1175 35 7.5V20Z" fill="#ECEFF1"/>
</g>
<defs>
<clipPath id="clip0_2044_24414">
<rect width="40" height="40" fill="white"/>
</clipPath>
</defs>
</svg>
