<svg width="35" height="40" viewBox="0 0 35 40" fill="none" xmlns="http://www.w3.org/2000/svg">
<path d="M34.5945 24.1476C34.3389 23.8407 33.9807 23.6368 33.5863 23.5737C33.1919 23.5106 32.788 23.5926 32.4494 23.8044L17.4336 34.8303V35.3022C17.6502 35.2765 17.8699 35.2971 18.078 35.3624C18.2861 35.4278 18.4781 35.5365 18.6412 35.6814C18.8042 35.8263 18.9348 36.0041 19.0242 36.2031C19.1136 36.4021 19.1598 36.6178 19.1598 36.836C19.1598 37.0541 19.1136 37.2698 19.0242 37.4688C18.9348 37.6678 18.8042 37.8456 18.6412 37.9905C18.4781 38.1354 18.2861 38.2441 18.078 38.3095C17.8699 38.3749 17.6502 38.3954 17.4336 38.3697C17.782 38.3713 18.1212 38.2582 18.3989 38.0479L34.2942 26.3142C34.6039 26.0545 34.8061 25.6891 34.8616 25.2887C34.9171 24.8884 34.8219 24.4817 34.5945 24.1476Z" fill="#669DF6"/>
<path d="M17.4337 38.3697C17.0581 38.3252 16.712 38.1445 16.4608 37.8618C16.2096 37.5791 16.0709 37.2141 16.0709 36.8359C16.0709 36.4578 16.2096 36.0927 16.4608 35.8101C16.712 35.5274 17.0581 35.3467 17.4337 35.3022V34.8302L2.41786 23.8044C2.08062 23.5879 1.67549 23.5033 1.27981 23.5666C0.884137 23.6299 0.525634 23.8367 0.272752 24.1476C0.0465833 24.4818 -0.0438133 24.8896 0.0199418 25.288C0.0836969 25.6865 0.296817 26.0457 0.615969 26.2927L16.5113 38.0265C16.7824 38.2337 17.1138 38.3467 17.4551 38.3482L17.4337 38.3697Z" fill="#AECBFA"/>
<path d="M17.4336 33.6934C16.8099 33.6934 16.2003 33.8783 15.6817 34.2248C15.1631 34.5713 14.759 35.0638 14.5203 35.64C14.2816 36.2161 14.2192 36.8502 14.3409 37.4619C14.4625 38.0735 14.7629 38.6354 15.2039 39.0764C15.6449 39.5174 16.2067 39.8177 16.8184 39.9394C17.4301 40.0611 18.0641 39.9986 18.6403 39.76C19.2165 39.5213 19.709 39.1171 20.0555 38.5986C20.402 38.08 20.5869 37.4703 20.5869 36.8467C20.5869 36.0104 20.2547 35.2083 19.6633 34.6169C19.072 34.0256 18.2699 33.6934 17.4336 33.6934ZM17.4336 38.3697C17.1272 38.3697 16.8278 38.2785 16.5733 38.1078C16.3189 37.9372 16.121 37.6947 16.0047 37.4112C15.8885 37.1277 15.8592 36.8161 15.9205 36.5159C15.9819 36.2158 16.1311 35.9406 16.3493 35.7255C16.5674 35.5104 16.8446 35.365 17.1456 35.3078C17.4466 35.2507 17.7578 35.2844 18.0397 35.4046C18.3215 35.5248 18.5612 35.726 18.7283 35.9828C18.8954 36.2396 18.9823 36.5403 18.9781 36.8467C18.9781 37.0485 18.938 37.2483 18.8601 37.4345C18.7822 37.6207 18.6681 37.7896 18.5244 37.9313C18.3807 38.073 18.2103 38.1847 18.023 38.26C17.8358 38.3353 17.6354 38.3725 17.4336 38.3697Z" fill="#4285F4"/>
<path d="M4.56292 7.45863C4.13796 7.45308 3.73196 7.28179 3.43145 6.98127C3.13093 6.68075 2.95964 6.27476 2.95409 5.8498V1.81698C2.92776 1.58865 2.95002 1.35733 3.0194 1.1382C3.08877 0.919075 3.2037 0.717095 3.35664 0.545514C3.50958 0.373934 3.69707 0.236631 3.90681 0.142617C4.11655 0.048602 4.3438 0 4.57365 0C4.80349 0 5.03074 0.048602 5.24048 0.142617C5.45022 0.236631 5.63771 0.373934 5.79065 0.545514C5.94359 0.717095 6.05852 0.919075 6.12789 1.1382C6.19727 1.35733 6.21953 1.58865 6.19321 1.81698V5.8498C6.18757 6.27845 6.01332 6.68763 5.70819 6.98874C5.40306 7.28986 4.99161 7.45867 4.56292 7.45863Z" fill="#AECBFA"/>
<path d="M4.51994 21.7236C5.42032 21.7236 6.15022 20.9937 6.15022 20.0933C6.15022 19.1929 5.42032 18.463 4.51994 18.463C3.61955 18.463 2.88965 19.1929 2.88965 20.0933C2.88965 20.9937 3.61955 21.7236 4.51994 21.7236Z" fill="#AECBFA"/>
<path d="M4.51994 16.983C5.42032 16.983 6.15022 16.2531 6.15022 15.3527C6.15022 14.4523 5.42032 13.7224 4.51994 13.7224C3.61955 13.7224 2.88965 14.4523 2.88965 15.3527C2.88965 16.2531 3.61955 16.983 4.51994 16.983Z" fill="#AECBFA"/>
<path d="M4.51994 12.2208C5.42032 12.2208 6.15022 11.4909 6.15022 10.5905C6.15022 9.69011 5.42032 8.96021 4.51994 8.96021C3.61955 8.96021 2.88965 9.69011 2.88965 10.5905C2.88965 11.4909 3.61955 12.2208 4.51994 12.2208Z" fill="#AECBFA"/>
<path d="M30.3041 12.1779C29.8755 12.1723 29.4663 11.9981 29.1652 11.6929C28.8641 11.3878 28.6953 10.9763 28.6953 10.5477V6.51484C28.6953 6.08815 28.8648 5.67894 29.1665 5.37722C29.4682 5.07551 29.8775 4.90601 30.3041 4.90601C30.7308 4.90601 31.1401 5.07551 31.4418 5.37722C31.7435 5.67894 31.913 6.08815 31.913 6.51484V10.5477C31.9158 10.7607 31.8763 10.9722 31.7967 11.1699C31.7172 11.3676 31.5991 11.5475 31.4494 11.6992C31.2997 11.8508 31.1214 11.9713 30.9248 12.0535C30.7282 12.1356 30.5172 12.178 30.3041 12.1779Z" fill="#4285F4"/>
<path d="M30.3471 21.7451C31.2475 21.7451 31.9774 21.0152 31.9774 20.1148C31.9774 19.2144 31.2475 18.4845 30.3471 18.4845C29.4467 18.4845 28.7168 19.2144 28.7168 20.1148C28.7168 21.0152 29.4467 21.7451 30.3471 21.7451Z" fill="#4285F4"/>
<path d="M30.3471 16.9185C31.2475 16.9185 31.9774 16.1886 31.9774 15.2882C31.9774 14.3879 31.2475 13.658 30.3471 13.658C29.4467 13.658 28.7168 14.3879 28.7168 15.2882C28.7168 16.1886 29.4467 16.9185 30.3471 16.9185Z" fill="#4285F4"/>
<path d="M30.3471 3.44722C31.2475 3.44722 31.9774 2.71731 31.9774 1.81693C31.9774 0.916549 31.2475 0.186646 30.3471 0.186646C29.4467 0.186646 28.7168 0.916549 28.7168 1.81693C28.7168 2.71731 29.4467 3.44722 30.3471 3.44722Z" fill="#4285F4"/>
<path d="M17.4335 26.5287C17.0086 26.5232 16.6026 26.3519 16.3021 26.0514C16.0015 25.7509 15.8303 25.3449 15.8247 24.9199V20.8227C15.8705 20.4253 16.0609 20.0586 16.3595 19.7924C16.6581 19.5262 17.0442 19.3792 17.4443 19.3792C17.8443 19.3792 18.2304 19.5262 18.529 19.7924C18.8277 20.0586 19.018 20.4253 19.0638 20.8227V24.877C19.0667 25.0929 19.0266 25.3072 18.9459 25.5075C18.8653 25.7078 18.7456 25.89 18.594 26.0437C18.4423 26.1973 18.2616 26.3194 18.0624 26.4026C17.8632 26.4859 17.6495 26.5288 17.4335 26.5287Z" fill="#669DF6"/>
<path d="M17.4335 31.2694C18.3339 31.2694 19.0638 30.5395 19.0638 29.6391C19.0638 28.7387 18.3339 28.0088 17.4335 28.0088C16.5331 28.0088 15.8032 28.7387 15.8032 29.6391C15.8032 30.5395 16.5331 31.2694 17.4335 31.2694Z" fill="#669DF6"/>
<path d="M17.4335 17.7337C18.3339 17.7337 19.0638 17.0038 19.0638 16.1034C19.0638 15.203 18.3339 14.4731 17.4335 14.4731C16.5331 14.4731 15.8032 15.203 15.8032 16.1034C15.8032 17.0038 16.5331 17.7337 17.4335 17.7337Z" fill="#669DF6"/>
<path d="M17.4335 12.9716C18.3339 12.9716 19.0638 12.2417 19.0638 11.3413C19.0638 10.441 18.3339 9.71106 17.4335 9.71106C16.5331 9.71106 15.8032 10.441 15.8032 11.3413C15.8032 12.2417 16.5331 12.9716 17.4335 12.9716Z" fill="#669DF6"/>
<path d="M23.8691 16.9614C23.4441 16.9559 23.0381 16.7846 22.7376 16.4841C22.4371 16.1836 22.2658 15.7776 22.2602 15.3526V11.3198C22.2339 11.0915 22.2562 10.8601 22.3255 10.641C22.3949 10.4219 22.5099 10.2199 22.6628 10.0483C22.8157 9.87674 23.0032 9.73944 23.213 9.64542C23.4227 9.55141 23.65 9.50281 23.8798 9.50281C24.1096 9.50281 24.3369 9.55141 24.5466 9.64542C24.7564 9.73944 24.9439 9.87674 25.0968 10.0483C25.2497 10.2199 25.3647 10.4219 25.434 10.641C25.5034 10.8601 25.5257 11.0915 25.4994 11.3198V15.3526C25.4937 15.7813 25.3195 16.1904 25.0143 16.4916C24.7092 16.7927 24.2978 16.9615 23.8691 16.9614Z" fill="#4285F4"/>
<path d="M23.8905 8.18794C24.7909 8.18794 25.5208 7.45804 25.5208 6.55765C25.5208 5.65727 24.7909 4.92737 23.8905 4.92737C22.9902 4.92737 22.2603 5.65727 22.2603 6.55765C22.2603 7.45804 22.9902 8.18794 23.8905 8.18794Z" fill="#4285F4"/>
<path d="M23.8905 26.4215C24.7909 26.4215 25.5208 25.6916 25.5208 24.7912C25.5208 23.8908 24.7909 23.1609 23.8905 23.1609C22.9902 23.1609 22.2603 23.8908 22.2603 24.7912C22.2603 25.6916 22.9902 26.4215 23.8905 26.4215Z" fill="#4285F4"/>
<path d="M23.8905 21.6593C24.7909 21.6593 25.5208 20.9294 25.5208 20.029C25.5208 19.1286 24.7909 18.3987 23.8905 18.3987C22.9902 18.3987 22.2603 19.1286 22.2603 20.029C22.2603 20.9294 22.9902 21.6593 23.8905 21.6593Z" fill="#4285F4"/>
<path d="M10.977 26.4215C11.8773 26.4215 12.6073 25.6916 12.6073 24.7912C12.6073 23.8908 11.8773 23.1609 10.977 23.1609C10.0766 23.1609 9.34668 23.8908 9.34668 24.7912C9.34668 25.6916 10.0766 26.4215 10.977 26.4215Z" fill="#AECBFA"/>
<path d="M10.977 12.9716C11.8773 12.9716 12.6073 12.2417 12.6073 11.3413C12.6073 10.441 11.8773 9.71106 10.977 9.71106C10.0766 9.71106 9.34668 10.441 9.34668 11.3413C9.34668 12.2417 10.0766 12.9716 10.977 12.9716Z" fill="#AECBFA"/>
<path d="M10.977 8.18794C11.8773 8.18794 12.6073 7.45804 12.6073 6.55765C12.6073 5.65727 11.8773 4.92737 10.977 4.92737C10.0766 4.92737 9.34668 5.65727 9.34668 6.55765C9.34668 7.45804 10.0766 8.18794 10.977 8.18794Z" fill="#AECBFA"/>
<path d="M10.9985 21.6593C10.577 21.6596 10.1718 21.4967 9.86783 21.2048C9.56388 20.9128 9.3848 20.5145 9.36816 20.0934V16.0176C9.36816 15.591 9.53767 15.1817 9.83938 14.88C10.1411 14.5783 10.5503 14.4088 10.977 14.4088C11.4037 14.4088 11.8129 14.5783 12.1146 14.88C12.4163 15.1817 12.5858 15.591 12.5858 16.0176V20.0934C12.5748 20.5089 12.4033 20.904 12.1074 21.1959C11.8115 21.4878 11.4141 21.6539 10.9985 21.6593Z" fill="#AECBFA"/>
</svg>
