<svg width="91" height="40" viewBox="0 0 91 40" fill="none" xmlns="http://www.w3.org/2000/svg">
<g clip-path="url(#clip0_2044_24421)">
<path d="M40.7101 31.3778C40.0258 31.3778 39.3327 31.2356 38.6662 30.9423L24.4474 24.6045C21.9058 23.4756 20.7594 20.48 21.888 17.9378L28.2243 3.7156C29.3529 1.17337 32.3477 0.0267075 34.8893 1.1556L49.1081 7.49337C51.6497 8.62226 52.796 11.6178 51.6674 14.16L45.3312 28.3823C44.487 30.2667 42.6385 31.3778 40.7101 31.3778ZM39.8481 28.2756C40.9234 28.7556 42.1853 28.2667 42.6652 27.2L49.0014 12.9778C49.4813 11.9023 48.9925 10.64 47.9261 10.16L33.6985 3.82226C32.6232 3.34226 31.3613 3.83115 30.8814 4.89782L24.5452 19.12C24.0653 20.1956 24.554 21.4578 25.6205 21.9378L39.8481 28.2756Z" fill="#089949"/>
<path d="M85.3125 31.3867H69.743C66.9614 31.3867 64.6953 29.12 64.6953 26.3378V10.7645C64.6953 7.98224 66.9614 5.71558 69.743 5.71558H85.3125C88.094 5.71558 90.3602 7.98224 90.3602 10.7645V26.3378C90.3602 29.12 88.094 31.3867 85.3125 31.3867ZM69.743 8.63113C68.5699 8.63113 67.6102 9.59113 67.6102 10.7645V26.3378C67.6102 27.5111 68.5699 28.4711 69.743 28.4711H85.3125C86.4855 28.4711 87.4453 27.5111 87.4453 26.3378V10.7645C87.4453 9.59113 86.4855 8.63113 85.3125 8.63113H69.743Z" fill="#F9B21D"/>
<path d="M27.0068 13.6177L24.9095 18.3111C24.8828 18.3644 24.8562 18.4088 24.8295 18.4533L25.6471 23.5022C25.8337 24.6666 25.0428 25.76 23.8875 25.9466L8.51349 28.4355C7.95363 28.5244 7.38488 28.3911 6.92277 28.0622C6.46066 27.7333 6.15851 27.2355 6.06965 26.6755L3.58137 11.2977C3.4925 10.7377 3.6258 10.1688 3.95461 9.70663C4.28342 9.2444 4.78107 8.94218 5.34094 8.85329L20.715 6.3644C20.8305 6.34662 20.946 6.33774 21.0527 6.33774C22.0746 6.33774 22.99 7.0844 23.1588 8.13329L23.9853 13.2177L26.1536 8.35551L26.0381 7.67107C25.5938 4.9244 22.9988 3.04885 20.2528 3.49329L4.87883 5.98218C3.55471 6.18663 2.38166 6.90663 1.59963 7.99996C0.808709 9.09329 0.497674 10.4266 0.710955 11.76L3.19924 27.1377C3.41252 28.4711 4.13234 29.6355 5.22541 30.4266C6.08742 31.0577 7.10939 31.3777 8.16691 31.3777C8.43351 31.3777 8.709 31.36 8.98449 31.3155L24.3585 28.8266C27.1045 28.3822 28.9796 25.7866 28.5353 23.04L27.0068 13.6177Z" fill="#E42527"/>
<path d="M45.4467 20.9599L47.7039 15.9022L47.0641 11.1999C46.9841 10.6399 47.1352 10.0799 47.4818 9.62662C47.8284 9.17328 48.326 8.87995 48.8948 8.80884L64.3221 6.71106C64.4199 6.70217 64.5176 6.69328 64.6154 6.69328C65.0775 6.69328 65.5218 6.84439 65.9039 7.12884C65.975 7.18217 66.0372 7.24439 66.0995 7.29773C66.7837 6.57773 67.6813 6.06217 68.6855 5.83995C68.4011 5.44884 68.0634 5.10217 67.6635 4.79995C66.5882 3.98217 65.2641 3.63551 63.9311 3.81328L48.486 5.91106C47.153 6.08884 45.9621 6.78217 45.1535 7.85773C44.3359 8.93328 43.9893 10.2577 44.167 11.5911L45.4467 20.9599Z" fill="#226DB4"/>
<path d="M71.6981 23.5644L69.672 8.6311C68.5345 8.66666 67.6191 9.60888 67.6191 10.7555V15.1378L68.8188 23.9555C68.8988 24.5155 68.7478 25.0755 68.4012 25.5289C68.0546 25.9822 67.5569 26.2755 66.9882 26.3467L51.5608 28.4444C51.001 28.5244 50.4411 28.3733 49.9879 28.0267C49.5347 27.68 49.2414 27.1822 49.1703 26.6133L48.4594 21.3778L46.2021 26.4355L46.2821 27.0044C46.4599 28.3378 47.153 29.5289 48.2283 30.3378C49.117 31.0133 50.1745 31.3689 51.2765 31.3689C51.5075 31.3689 51.7386 31.3511 51.9696 31.3244L67.3792 29.2444C68.7122 29.0667 69.903 28.3733 70.7117 27.2978C71.5293 26.2222 71.8759 24.8978 71.6981 23.5644Z" fill="#226DB4"/>
<path d="M58.2438 36.9423C58.2438 35.6089 59.2213 34.6489 60.5543 34.6489C61.9318 34.6489 62.8649 35.5912 62.8649 36.9512C62.8649 38.3289 61.914 39.28 60.5365 39.28C59.1502 39.28 58.2438 38.3289 58.2438 36.9423ZM61.7985 36.96C61.7985 36.1511 61.4074 35.4578 60.5277 35.4578C59.639 35.4578 59.3013 36.1778 59.3013 36.9956C59.3013 37.7689 59.719 38.48 60.5721 38.48C61.4519 38.4711 61.7985 37.7156 61.7985 36.96ZM48.3884 34.72H49.046C49.1438 34.72 49.2237 34.8 49.2237 34.8978V36.5512H51.09V34.8978C51.09 34.8 51.1699 34.72 51.2677 34.72H51.9253C52.0231 34.72 52.103 34.8 52.103 34.8978V39.0311C52.103 39.1289 52.0231 39.2089 51.9253 39.2089H51.2766C51.1788 39.2089 51.0988 39.1289 51.0988 39.0311V37.36H49.2326V39.0311C49.2326 39.1289 49.1527 39.2089 49.0549 39.2089H48.3973C48.2995 39.2089 48.2195 39.1289 48.2195 39.0311V34.8978C48.2107 34.8 48.2906 34.72 48.3884 34.72ZM37.4488 36.9423C37.4488 35.6089 38.4264 34.6489 39.7594 34.6489C41.1368 34.6489 42.0699 35.5912 42.0699 36.9512C42.0699 38.3289 41.1191 39.28 39.7416 39.28C38.3553 39.28 37.4488 38.3289 37.4488 36.9423ZM41.0124 36.96C41.0124 36.1511 40.6214 35.4578 39.7416 35.4578C38.8529 35.4578 38.5153 36.1778 38.5153 36.9956C38.5153 37.7689 38.9329 38.48 39.7861 38.48C40.6658 38.4711 41.0124 37.7156 41.0124 36.96ZM28.1711 38.7734L30.375 35.52H28.5621C28.4644 35.52 28.3844 35.44 28.3844 35.3423V34.9067C28.3844 34.8089 28.4644 34.7289 28.5621 34.7289H31.5392C31.6369 34.7289 31.7169 34.8089 31.7169 34.9067V35.0756C31.7169 35.1111 31.708 35.1467 31.6903 35.1734L29.5308 38.4267H31.4681C31.5658 38.4267 31.6458 38.5067 31.6458 38.6045V39.04C31.6458 39.1378 31.5658 39.2178 31.4681 39.2178H28.3222C28.2244 39.2178 28.1445 39.1378 28.1445 39.04V38.88C28.1356 38.8356 28.1533 38.8 28.1711 38.7734Z" fill="black"/>
</g>
<defs>
<clipPath id="clip0_2044_24421">
<rect width="91" height="40" fill="white"/>
</clipPath>
</defs>
</svg>
