<svg width="54" height="54" viewBox="0 0 54 54" fill="none" xmlns="http://www.w3.org/2000/svg">
<g clip-path="url(#clip0_284_11123)">
<path d="M2.68725 28.662C3.40004 28.6631 4.08396 28.3805 4.58796 27.8764C4.65782 27.8066 8.95725 23.5152 8.95725 23.5152L11.1634 25.7231C12.0034 26.5638 13.1431 27.0362 14.3315 27.0362C15.52 27.0362 16.6597 26.5638 17.4997 25.7231L30.6416 12.5767L34.6383 16.5752C36.3891 18.3231 39.2246 18.3231 40.9755 16.5752L48.976 8.56394L49.6406 9.22856C50.2325 9.81985 51.1145 10.0123 51.8989 9.72141C52.6834 9.43047 53.2266 8.70939 53.2897 7.87514L53.7376 2.10584V2.09689C53.7764 1.53126 53.5687 0.976478 53.168 0.575406C52.7673 0.174334 52.2127 -0.0338377 51.647 0.00449656L45.8723 0.452354C45.0383 0.512001 44.316 1.0531 44.0242 1.83668C43.7325 2.62027 43.9252 3.50202 44.5171 4.09254L45.1817 4.75895L37.8055 12.1387L33.8097 8.14027C32.9697 7.29957 31.83 6.82721 30.6416 6.82721C29.4532 6.82721 28.3135 7.29957 27.4735 8.14027L14.3315 21.2876L12.1272 19.0778C10.3766 17.3295 7.54063 17.3295 5.79001 19.0778L0.7964 24.0849C0.028971 24.8506 -0.201535 26.0033 0.212393 27.0053C0.626322 28.0072 1.60314 28.6611 2.68725 28.662ZM2.06025 25.3478L7.05744 20.3399C7.56147 19.8353 8.2454 19.5518 8.9586 19.5518C9.67179 19.5518 10.3557 19.8353 10.8597 20.3399L13.6983 23.1802C13.8663 23.3484 14.0943 23.4429 14.332 23.4429C14.5697 23.4429 14.7977 23.3484 14.9657 23.1802L28.74 9.40412C29.8039 8.3875 31.4793 8.3875 32.5432 9.40412L36.5399 13.4026C37.2488 14.0797 38.3649 14.0797 39.0739 13.4026L47.0824 5.38953C47.4315 5.03986 47.4315 4.47356 47.0824 4.12389L45.781 2.82241C45.6825 2.73108 45.6514 2.58809 45.703 2.46413C45.7482 2.33244 45.8694 2.24182 46.0085 2.23572L51.7796 1.79055C51.8247 1.78852 51.8685 1.80616 51.8996 1.83892C51.9351 1.87291 51.954 1.92063 51.9515 1.96969L51.5037 7.7381C51.4939 7.87474 51.4053 7.99313 51.277 8.0411C51.1487 8.08908 51.0042 8.05783 50.9071 7.96113L49.6092 6.66145C49.2536 6.32533 48.6974 6.32533 48.3418 6.66145L39.708 15.3078C38.6433 16.3216 36.9704 16.3216 35.9057 15.3078L31.909 11.3093C31.5738 10.9718 31.1174 10.7824 30.6416 10.7835C30.1667 10.783 29.7111 10.9719 29.376 11.3084L16.234 24.4566C15.1699 25.4728 13.4949 25.4728 12.4308 24.4566L10.2247 22.2487C9.52524 21.5499 8.39195 21.5499 7.6925 22.2487L3.31873 26.6153C2.96778 26.9587 2.40672 26.9587 2.05577 26.6153C1.88635 26.4507 1.79076 26.2245 1.79076 25.9883C1.79076 25.7521 1.88635 25.5259 2.05577 25.3613L2.06025 25.3478Z" fill="black"/>
<path d="M35.8286 34.0373C35.8364 29.8195 32.9008 26.1677 28.7798 25.2691C24.6589 24.3704 20.4694 26.4685 18.7206 30.3066C16.9717 34.1447 18.1374 38.6829 21.5195 41.203H21.4971C20.4352 41.1983 19.4709 41.8221 19.04 42.7927C18.609 43.7634 18.7929 44.897 19.5086 45.6816C18.5771 46.6942 18.5771 48.2518 19.5086 49.2644C18.7929 50.049 18.609 51.1826 19.04 52.1532C19.4709 53.1238 20.4352 53.7477 21.4971 53.743H32.2457C33.3077 53.7477 34.2719 53.1238 34.7029 52.1532C35.1338 51.1826 34.9499 50.049 34.2342 49.2644C35.1658 48.2518 35.1658 46.6942 34.2342 45.6816C34.9499 44.897 35.1338 43.7634 34.7029 42.7927C34.2719 41.8221 33.3077 41.1983 32.2457 41.203H32.2233C34.4892 39.5178 35.8258 36.8611 35.8286 34.0373ZM33.1414 47.473C33.1414 47.9677 32.7404 48.3687 32.2457 48.3687H21.4971C21.0024 48.3687 20.6014 47.9677 20.6014 47.473C20.6014 46.9783 21.0024 46.5773 21.4971 46.5773H32.2457C32.7404 46.5773 33.1414 46.9783 33.1414 47.473ZM32.2457 51.9516H21.4971C21.0024 51.9516 20.6014 51.5505 20.6014 51.0558C20.6014 50.5611 21.0024 50.1601 21.4971 50.1601H32.2457C32.7404 50.1601 33.1414 50.5611 33.1414 51.0558C33.1414 51.5505 32.7404 51.9516 32.2457 51.9516ZM32.2457 42.9944C32.7404 42.9944 33.1414 43.3954 33.1414 43.8901C33.1414 44.3848 32.7404 44.7858 32.2457 44.7858H21.4971C21.0024 44.7858 20.6014 44.3848 20.6014 43.8901C20.6014 43.3954 21.0024 42.9944 21.4971 42.9944H32.2457ZM19.7057 34.0373C19.7057 30.0798 22.9139 26.8716 26.8714 26.8716C30.8289 26.8716 34.0371 30.0798 34.0371 34.0373C34.0371 37.9948 30.8289 41.203 26.8714 41.203C22.9157 41.1985 19.7101 37.9929 19.7057 34.0373Z" fill="black"/>
<path fill-rule="evenodd" clip-rule="evenodd" d="M26.8713 33.1407C26.4367 33.1403 26.0651 32.828 25.9899 32.3999C25.9147 31.9719 26.1576 31.5517 26.5661 31.4032C26.9745 31.2547 27.4306 31.4208 27.6478 31.7971C27.8025 32.0846 28.1014 32.2651 28.4278 32.2683C28.7543 32.2715 29.0566 32.0969 29.2169 31.8125C29.3772 31.5281 29.3701 31.179 29.1983 30.9014C28.8736 30.3565 28.3666 29.944 27.767 29.737V29.5578C27.767 29.0631 27.366 28.6621 26.8713 28.6621C26.3766 28.6621 25.9756 29.0631 25.9756 29.5578V29.7226C24.7426 30.1569 24.0026 31.4172 24.2241 32.7055C24.4456 33.9939 25.564 34.9346 26.8713 34.9321C27.3058 34.9325 27.6774 35.2448 27.7526 35.6729C27.8278 36.1009 27.5849 36.5211 27.1765 36.6696C26.7681 36.8181 26.312 36.652 26.0947 36.2757C25.8399 35.8639 25.3041 35.7291 24.8849 35.9713C24.4657 36.2135 24.3148 36.745 24.5442 37.1714C24.8694 37.7166 25.3771 38.1292 25.9773 38.3358V38.515C25.9773 39.0097 26.3784 39.4107 26.8731 39.4107C27.3677 39.4107 27.7688 39.0097 27.7688 38.515V38.3502C29.0021 37.9158 29.7421 36.655 29.5201 35.3664C29.2981 34.0778 28.1788 33.1373 26.8713 33.1407Z" fill="black"/>
<path d="M44.7856 17.9121C40.927 17.9078 37.5004 20.3779 36.2848 24.04C35.0692 27.7021 36.3384 31.731 39.4337 34.035H39.4113C38.3493 34.0303 37.3851 34.6541 36.9541 35.6247C36.5232 36.5953 36.7071 37.729 37.4228 38.5135C36.4912 39.5262 36.4912 41.0838 37.4228 42.0964C36.4912 43.109 36.4912 44.6666 37.4228 45.6793C36.4912 46.6919 36.4912 48.2495 37.4228 49.2621C36.7071 50.0467 36.5232 51.1803 36.9541 52.1509C37.3851 53.1215 38.3493 53.7454 39.4113 53.7407H50.1598C51.2218 53.7454 52.186 53.1215 52.617 52.1509C53.0479 51.1803 52.864 50.0467 52.1483 49.2621C53.0799 48.2495 53.0799 46.6919 52.1483 45.6793C53.0799 44.6666 53.0799 43.109 52.1483 42.0964C53.0799 41.0838 53.0799 39.5262 52.1483 38.5135C52.864 37.729 53.0479 36.5953 52.617 35.6247C52.186 34.6541 51.2218 34.0303 50.1598 34.035H50.1365C53.2328 31.7317 54.503 27.7024 53.2874 24.0398C52.0719 20.3773 48.6446 17.907 44.7856 17.9121ZM51.0556 40.305C51.0556 40.7997 50.6545 41.2007 50.1598 41.2007H39.4113C38.9166 41.2007 38.5156 40.7997 38.5156 40.305C38.5156 39.8103 38.9166 39.4093 39.4113 39.4093H50.1598C50.6545 39.4093 51.0556 39.8103 51.0556 40.305ZM51.0556 43.8878C51.0556 44.3825 50.6545 44.7836 50.1598 44.7836H39.4113C38.9166 44.7836 38.5156 44.3825 38.5156 43.8878C38.5156 43.3931 38.9166 42.9921 39.4113 42.9921H50.1598C50.6545 42.9921 51.0556 43.3931 51.0556 43.8878ZM51.0556 47.4707C51.0556 47.9654 50.6545 48.3664 50.1598 48.3664H39.4113C38.9166 48.3664 38.5156 47.9654 38.5156 47.4707C38.5156 46.976 38.9166 46.575 39.4113 46.575H50.1598C50.6545 46.575 51.0556 46.976 51.0556 47.4707ZM50.1598 51.9493H39.4113C38.9166 51.9493 38.5156 51.5482 38.5156 51.0536C38.5156 50.5589 38.9166 50.1578 39.4113 50.1578H50.1598C50.6545 50.1578 51.0556 50.5589 51.0556 51.0536C51.0556 51.5482 50.6545 51.9493 50.1598 51.9493ZM50.1598 35.8264C50.6545 35.8264 51.0556 36.2274 51.0556 36.7221C51.0556 37.2168 50.6545 37.6178 50.1598 37.6178H39.4113C38.9166 37.6178 38.5156 37.2168 38.5156 36.7221C38.5156 36.2274 38.9166 35.8264 39.4113 35.8264H50.1598ZM44.7856 34.035C40.828 34.035 37.6198 30.8268 37.6198 26.8693C37.6198 22.9117 40.828 19.7035 44.7856 19.7035C48.7431 19.7035 51.9513 22.9117 51.9513 26.8693C51.9468 30.8249 48.7412 34.0305 44.7856 34.035Z" fill="black"/>
<path fill-rule="evenodd" clip-rule="evenodd" d="M44.7858 25.9766C44.3512 25.9762 43.9797 25.6639 43.9045 25.2359C43.8293 24.8078 44.0722 24.3876 44.4806 24.2391C44.889 24.0906 45.3451 24.2567 45.5624 24.633C45.8171 25.0448 46.3529 25.1796 46.7722 24.9374C47.1914 24.6952 47.3423 24.1637 47.1129 23.7373C46.7886 23.1921 46.2814 22.7795 45.6815 22.5729V22.3938C45.6815 21.8991 45.2805 21.498 44.7858 21.498C44.2911 21.498 43.8901 21.8991 43.8901 22.3938V22.5586C42.6571 22.9929 41.9171 24.2531 42.1386 25.5415C42.3601 26.8298 43.4786 27.7705 44.7858 27.768C45.2204 27.7685 45.592 28.0808 45.6671 28.5088C45.7423 28.9368 45.4994 29.3571 45.091 29.5056C44.6826 29.6541 44.2265 29.488 44.0092 29.1116C43.7545 28.6999 43.2187 28.5651 42.7994 28.8073C42.3802 29.0495 42.2293 29.581 42.4587 30.0073C42.7835 30.5529 43.2914 30.9656 43.8919 31.1718V31.3509C43.8919 31.8456 44.2929 32.2466 44.7876 32.2466C45.2823 32.2466 45.6833 31.8456 45.6833 31.3509V31.1861C46.9166 30.7517 47.6567 29.4909 47.4346 28.2023C47.2126 26.9137 46.0934 25.9733 44.7858 25.9766Z" fill="black"/>
<path d="M3.60535 48.3681H3.58295C2.09888 48.3681 0.89581 49.5712 0.89581 51.0553C0.89581 52.5393 2.09888 53.7424 3.58295 53.7424H14.3315C15.8156 53.7424 17.0187 52.5393 17.0187 51.0553C17.0187 49.5712 15.8156 48.3681 14.3315 48.3681H14.3091C17.4048 46.0614 18.6742 42.0308 17.4591 38.3664C16.244 34.7021 12.8178 32.2285 8.95724 32.2285C5.09667 32.2285 1.67044 34.7021 0.455336 38.3664C-0.759766 42.0308 0.509672 46.0614 3.60535 48.3681ZM14.3315 50.1595C14.8262 50.1595 15.2272 50.5606 15.2272 51.0553C15.2272 51.5499 14.8262 51.951 14.3315 51.951H3.58295C3.08826 51.951 2.68724 51.5499 2.68724 51.0553C2.68724 50.5606 3.08826 50.1595 3.58295 50.1595H14.3315ZM8.95724 34.0367C12.9148 34.0367 16.123 37.2449 16.123 41.2024C16.123 45.1599 12.9148 48.3681 8.95724 48.3681C4.99972 48.3681 1.79152 45.1599 1.79152 41.2024C1.79597 37.2467 5.00157 34.0411 8.95724 34.0367Z" fill="black"/>
<path fill-rule="evenodd" clip-rule="evenodd" d="M8.9572 42.0981C9.39178 42.0985 9.76335 42.4109 9.83854 42.8389C9.91372 43.2669 9.67082 43.6871 9.26241 43.8356C8.85399 43.9841 8.39791 43.818 8.18062 43.4417C8.02592 43.1542 7.72707 42.9737 7.40063 42.9705C7.0742 42.9673 6.77187 43.1419 6.61157 43.4263C6.45127 43.7107 6.45838 44.0598 6.63014 44.3374C6.9553 44.8827 7.46301 45.2952 8.06328 45.5018V45.681C8.06328 46.1757 8.4643 46.5767 8.95899 46.5767C9.45368 46.5767 9.85471 46.1757 9.85471 45.681V45.5162C11.088 45.0818 11.828 43.821 11.606 42.5324C11.384 41.2438 10.2648 40.3033 8.9572 40.3067C8.52263 40.3063 8.15105 39.994 8.07587 39.5659C8.00068 39.1379 8.24358 38.7177 8.652 38.5692C9.06041 38.4207 9.5165 38.5868 9.73379 38.9631C9.88849 39.2506 10.1873 39.4311 10.5138 39.4343C10.8402 39.4375 11.1425 39.2629 11.3028 38.9785C11.4631 38.6941 11.456 38.345 11.2843 38.0674C10.9595 37.5225 10.4525 37.11 9.85292 36.903V36.7238C9.85292 36.2291 9.45189 35.8281 8.9572 35.8281C8.46251 35.8281 8.06149 36.2291 8.06149 36.7238V36.8886C6.82849 37.3229 6.0885 38.5832 6.31002 39.8715C6.53154 41.1599 7.64996 42.1006 8.9572 42.0981Z" fill="black"/>
</g>
<defs>
<clipPath id="clip0_284_11123">
<rect width="53.7429" height="53.7429" fill="white"/>
</clipPath>
</defs>
</svg>
