<svg width="65" height="65" viewBox="0 0 65 65" fill="none" xmlns="http://www.w3.org/2000/svg">
<path d="M30.1364 25.3093H23.6364C19.697 21.5669 15.0682 17.135 14.1818 16.4456C11.3258 14.4759 6.5 16.7411 6.5 21.0744V38.7032C6.5 41.6578 8.96212 43.9229 11.5227 43.9229C11.6212 43.9229 11.9167 43.9229 11.8182 43.9229H25.3106V60.3699C25.3106 62.3396 26.9848 64.0138 28.9545 64.0138C30.9242 64.0138 32.5985 62.3396 32.5985 60.3699V40.279C32.5985 38.3093 30.9242 36.635 28.9545 36.635H16.8409V29.0517L19.5985 31.7108C20.2879 32.3017 21.1742 32.6956 22.0606 32.6956H30.0379C32.0076 32.6956 33.6818 31.0214 33.6818 29.0517C33.7803 26.9835 32.1061 25.3093 30.1364 25.3093ZM30.1364 30.6275H22.1591C21.7652 30.6275 21.3712 30.4305 20.9773 30.135L16.5455 25.9987C15.9545 25.4078 14.8712 25.9002 14.8712 26.6881V37.5214C14.8712 38.1123 15.2652 38.5062 15.8561 38.5062H28.8561C29.7424 38.5062 30.5303 39.2941 30.5303 40.1805V60.2714C30.5303 61.1578 29.7424 61.9456 28.8561 61.9456C27.9697 61.9456 27.1818 61.1578 27.1818 60.2714V42.9381C27.1818 42.3472 26.7879 41.9532 26.197 41.9532H11.6212H11.5227C9.35606 41.7562 8.27273 40.279 8.27273 38.7032V21.0744C8.27273 18.2184 11.5227 17.2335 13 18.1199C13.5909 18.5138 18.3182 23.0441 22.4545 26.9835C22.6515 27.1805 22.8485 27.279 23.1439 27.279H30.0379C30.9242 27.279 31.7121 28.0669 31.7121 28.9532C31.8106 29.9381 31.0227 30.6275 30.1364 30.6275Z" fill="black"/>
<path d="M22.159 47.5688H6.00746C4.82564 47.5688 3.84079 46.5839 3.84079 45.4021V17.6294C3.84079 17.0385 3.44685 16.6445 2.85594 16.6445C2.26503 16.6445 1.87109 17.0385 1.87109 17.6294V45.3036C1.87109 47.5688 3.74231 49.44 6.00746 49.44H12.015V57.5157L7.6817 60.3718C7.18928 60.6673 7.09079 61.2582 7.38625 61.7506C7.6817 62.243 8.27261 62.3415 8.76503 62.046L12.9014 59.19L17.0378 62.046C17.5302 62.3415 18.1211 62.243 18.4166 61.7506C18.712 61.2582 18.6135 60.6673 18.1211 60.3718L13.7878 57.5157V49.44H21.962C22.5529 49.44 22.9469 49.0461 22.9469 48.4551C23.1438 47.9627 22.7499 47.5688 22.159 47.5688Z" fill="black"/>
<path d="M11.4241 13.5904C14.8711 13.5904 17.7272 10.7344 17.7272 7.28741C17.7272 3.84044 14.9696 0.984375 11.4241 0.984375C7.87867 0.984375 5.12109 3.84044 5.12109 7.28741C5.12109 10.7344 7.97715 13.5904 11.4241 13.5904ZM11.4241 2.95407C13.7878 2.95407 15.7575 4.92377 15.7575 7.28741C15.7575 9.65104 13.7878 11.6207 11.4241 11.6207C9.06049 11.6207 7.09079 9.65104 7.09079 7.28741C7.09079 4.92377 9.06049 2.95407 11.4241 2.95407Z" fill="black"/>
<path d="M63.129 35.1586V30.5298C63.129 29.9389 62.735 29.5449 62.1441 29.5449H35.5532C34.9623 29.5449 34.5684 29.9389 34.5684 30.5298V35.1586C34.5684 35.7495 34.9623 36.1434 35.5532 36.1434H55.9396V57.5146H44.9093C44.3184 57.5146 43.9244 57.9086 43.9244 58.4995V63.0298C43.9244 63.6207 44.3184 64.0146 44.9093 64.0146H62.1441C62.735 64.0146 63.129 63.6207 63.129 63.0298V35.1586ZM36.6365 31.5146H61.2578V34.1737H57.0229H36.6365V31.5146ZM61.1593 62.0449H45.8941V59.3858H56.9244C57.5153 59.3858 57.9093 58.9919 57.9093 58.401V36.1434H61.1593V62.0449Z" fill="black"/>
<path d="M39.6897 24.0314L42.1518 25.1147C43.1366 25.5087 44.3185 25.0163 44.7124 24.0314L46.4851 19.6981C47.9624 19.9935 49.4397 19.6981 50.523 18.9102V26.592H49.2427C48.6518 26.592 48.2578 26.986 48.2578 27.5769C48.2578 28.1678 48.6518 28.5617 49.2427 28.5617H53.8715C54.4624 28.5617 54.8563 28.1678 54.8563 27.5769C54.8563 26.986 54.4624 26.592 53.8715 26.592H52.5912V16.4481C53.576 14.0844 52.6897 11.3269 50.523 9.94808L52.2957 5.61474C52.4927 5.12232 52.4927 4.6299 52.2957 4.13747C52.1972 3.54656 51.8033 3.15262 51.3109 2.95565L48.8488 1.87232C47.8639 1.47838 46.6821 1.97081 46.2882 2.95565L38.6063 21.3723C38.2124 22.4557 38.6063 23.6375 39.6897 24.0314ZM47.3715 17.7284L49.8336 11.8193C52.3942 13.8875 50.6215 18.0238 47.3715 17.7284ZM48.0609 3.74353L50.523 4.82687C49.2427 7.8799 45.8942 16.0541 42.9397 23.2435L40.3791 22.1602L48.0609 3.74353Z" fill="black"/>
</svg>
