<svg width="62" height="63" viewBox="0 0 62 63" fill="none" xmlns="http://www.w3.org/2000/svg">
<g clip-path="url(#clip0_283_11142)">
<path d="M48.6337 36.2287L46.1998 25.6112C46.0757 25.0753 45.7478 24.6111 45.2877 24.3203C44.8276 24.0294 44.2729 23.9356 43.7449 24.0594L41.3957 24.6152C40.8696 24.7427 40.4143 25.0762 40.129 25.5432C39.8437 26.0102 39.7515 26.5728 39.8725 27.1085L39.8859 27.1673C38.2943 27.7145 37.4746 27.0797 36.3074 26.1743C35.2781 25.376 33.997 24.3826 32.0337 24.3135C31.4927 24.2885 30.9525 24.3799 30.4486 24.5816C29.9447 24.7833 29.4883 25.0907 29.1093 25.4839L28.4151 26.1893H22.0447C21.9974 26.0645 21.9385 25.9445 21.8688 25.831C21.7277 25.5997 21.543 25.399 21.3254 25.2405C21.1077 25.0819 20.8614 24.9687 20.6005 24.9072L18.2523 24.3492C17.7243 24.225 17.1693 24.3185 16.7091 24.6093C16.2488 24.9002 15.9208 25.3645 15.7969 25.9007V25.9015L13.3665 36.5194C13.2444 37.0559 13.3367 37.6197 13.6232 38.0871C13.9097 38.5545 14.3669 38.8874 14.8946 39.0128L17.2397 39.5675C17.7243 39.6822 18.2335 39.6132 18.6716 39.3733C19.1096 39.1334 19.4464 38.7392 19.6185 38.2648L27.1263 45.8937C27.4041 46.1758 27.7416 46.3896 28.1132 46.5189C28.4847 46.6482 28.8805 46.6895 29.2701 46.6396C29.6598 46.5898 30.0331 46.4501 30.3615 46.2312C30.6899 46.0124 30.9647 45.7202 31.165 45.3769L31.7859 46.0066C32.078 46.3038 32.4362 46.5252 32.8302 46.6522C33.2242 46.7792 33.6425 46.8081 34.0498 46.7363C34.4571 46.6646 34.8415 46.4944 35.1705 46.24C35.4994 45.9857 35.7634 45.6547 35.9401 45.275C36.2281 45.3829 36.5326 45.4378 36.8396 45.4373C37.1778 45.438 37.5129 45.3708 37.8256 45.2396C38.1382 45.1084 38.4223 44.9158 38.6615 44.6727C38.9007 44.4297 39.0903 44.1411 39.2195 43.8234C39.3486 43.5057 39.4148 43.1653 39.4142 42.8216C39.4142 42.7236 39.4089 42.6256 39.3983 42.5282C39.9738 42.3491 40.4689 41.9698 40.7966 41.4568C41.1244 40.9438 41.2638 40.3298 41.1905 39.7228L43.3796 39.1097C43.8052 39.33 44.2939 39.3898 44.7587 39.2786L47.108 38.7237C47.6353 38.5974 48.0919 38.264 48.3779 37.7964C48.6638 37.3288 48.7558 36.7651 48.6337 36.2287ZM17.8046 37.5687C17.7978 37.5959 17.7808 37.6194 17.7573 37.6342C17.7337 37.649 17.7055 37.6539 17.6784 37.6479L15.3333 37.0932C15.3201 37.0901 15.3076 37.0843 15.2966 37.0761C15.2856 37.0679 15.2764 37.0576 15.2695 37.0456C15.262 37.0338 15.2568 37.0206 15.2544 37.0067C15.252 36.9929 15.2523 36.9786 15.2553 36.9649L17.6854 26.3484C17.6928 26.3216 17.7098 26.2985 17.7329 26.2835C17.7561 26.2686 17.7839 26.2629 17.8109 26.2676L20.1592 26.8257C20.1727 26.8292 20.1853 26.8353 20.1965 26.8437C20.2077 26.8522 20.2171 26.8628 20.2242 26.8749C20.2358 26.8947 20.2408 26.9177 20.2383 26.9405C20.2323 26.9651 20.2273 26.9911 20.2232 27.0169L17.8046 37.5687ZM39.088 40.4849C38.9685 40.605 38.8074 40.6727 38.6392 40.6734C38.4711 40.6742 38.3094 40.608 38.1888 40.489L33.3231 35.0072C33.2379 34.9112 33.1348 34.8331 33.0198 34.7775C32.9048 34.7219 32.7802 34.6898 32.653 34.6832C32.5259 34.6765 32.3987 34.6954 32.2787 34.7387C32.1587 34.782 32.0482 34.8488 31.9537 34.9355C31.8591 35.0222 31.7823 35.1269 31.7276 35.2437C31.6729 35.3605 31.6413 35.4872 31.6348 35.6164C31.6282 35.7456 31.6468 35.8749 31.6894 35.9968C31.732 36.1187 31.7978 36.2309 31.8831 36.327L36.7778 41.8416C36.783 41.8475 36.789 41.8525 36.7943 41.8582C36.7996 41.864 36.8064 41.872 36.8123 41.8785L37.2893 42.3631C37.4077 42.4851 37.474 42.6496 37.474 42.8209C37.474 42.9922 37.4077 43.1567 37.2893 43.2787C37.1687 43.398 37.0071 43.4648 36.8388 43.4648C36.6705 43.4648 36.5088 43.398 36.3883 43.2787L35.4485 42.3238L31.019 37.3467C30.9335 37.2507 30.8304 37.1728 30.7153 37.1174C30.6002 37.0619 30.4755 37.03 30.3484 37.0235C30.2212 37.017 30.094 37.0361 29.974 37.0795C29.8541 37.123 29.7437 37.19 29.6493 37.2768C29.5548 37.3636 29.4781 37.4685 29.4235 37.5854C29.369 37.7023 29.3376 37.829 29.3312 37.9582C29.3248 38.0875 29.3435 38.2167 29.3863 38.3386C29.4291 38.4605 29.4951 38.5726 29.5805 38.6686L34.0256 43.6632C34.0308 43.6691 34.0366 43.674 34.042 43.6797C34.0473 43.6854 34.053 43.6929 34.0591 43.699C34.1195 43.7589 34.1676 43.8303 34.2006 43.9092C34.2336 43.9881 34.2508 44.0729 34.2513 44.1586C34.2518 44.2443 34.2355 44.3293 34.2035 44.4085C34.1714 44.4878 34.1242 44.5598 34.0645 44.6204C34.0048 44.681 33.9339 44.7289 33.8559 44.7615C33.7778 44.794 33.6942 44.8104 33.6098 44.8099C33.5255 44.8093 33.4421 44.7917 33.3645 44.7581C33.2869 44.7245 33.2166 44.6756 33.1577 44.6142L30.7869 42.2087L28.6266 39.7784C28.4543 39.5844 28.2131 39.468 27.9563 39.4547C27.6994 39.4415 27.4479 39.5324 27.257 39.7076C27.0661 39.8827 26.9516 40.1278 26.9385 40.3888C26.9254 40.6498 27.0149 40.9053 27.1873 41.0993L29.3636 43.5479C29.3688 43.5538 29.3746 43.5587 29.3801 43.5645C29.3855 43.5703 29.3912 43.5778 29.3975 43.5842C29.4567 43.6443 29.5036 43.7157 29.5356 43.7942C29.5677 43.8728 29.5841 43.957 29.5842 44.042C29.5842 44.127 29.5677 44.2112 29.5357 44.2897C29.5037 44.3683 29.4567 44.4396 29.3976 44.4997C29.3384 44.5599 29.2682 44.6076 29.1909 44.6401C29.1136 44.6726 29.0308 44.6894 28.9471 44.6894C28.8634 44.6894 28.7806 44.6727 28.7033 44.6401C28.626 44.6076 28.5557 44.5599 28.4966 44.4998L20.1507 36.0194L21.9523 28.1596H26.4736L22.8811 31.8124L22.7935 31.9014C22.6831 32.0136 22.601 32.1512 22.5541 32.3025V32.304C22.5156 32.4287 22.502 32.5599 22.5139 32.69C22.5259 32.8201 22.5633 32.9465 22.6239 33.0617C22.6398 33.092 22.6557 33.1214 22.6723 33.1507L22.7068 33.2152C22.7128 33.2264 22.719 33.2374 22.7251 33.2484C23.6204 34.806 24.9431 35.5977 26.4472 35.4781C26.4668 35.4767 26.4864 35.4736 26.506 35.4717C26.5628 35.4664 26.6195 35.4613 26.6764 35.4533C26.7333 35.4453 26.7923 35.4346 26.8503 35.4239C26.8686 35.4204 26.8866 35.4182 26.9053 35.4145C27.8969 35.2167 28.8894 34.6291 29.761 33.7226C29.7648 33.7188 29.7687 33.7151 29.7724 33.7112C29.8153 33.6664 29.8572 33.6198 29.8998 33.5734C29.924 33.5474 29.9483 33.5224 29.9715 33.496L29.9723 33.495C29.9885 33.4786 30.0043 33.4618 30.0197 33.4445C30.0618 33.3963 30.1037 33.3519 30.1458 33.3082C30.3595 33.0796 30.6114 32.8911 30.8896 32.7515C30.8954 32.7487 30.9017 32.7456 30.9072 32.7429C30.9521 32.722 30.9978 32.7031 31.0439 32.6855C31.0534 32.6819 31.0628 32.6781 31.0722 32.6746C31.1189 32.6577 31.1662 32.6425 31.2145 32.6289C31.222 32.6266 31.2295 32.6243 31.2372 32.6222C31.6902 32.4992 32.2228 32.5125 32.9491 32.6072L39.1669 39.6701C39.2477 39.7945 39.2839 39.9434 39.2696 40.0918C39.2552 40.2401 39.1911 40.379 39.088 40.485V40.4849ZM40.2544 37.9397L36.3809 33.524L34.1528 31.0198C34.1421 31.0075 34.1305 30.9966 34.1193 30.9852C34.1113 30.9771 34.1037 30.9686 34.0951 30.9606C34.083 30.9483 34.0696 30.938 34.0566 30.9269C34.0481 30.9197 34.04 30.912 34.0313 30.905C34.0175 30.894 34.003 30.8841 33.9887 30.8738C33.9802 30.8678 33.9721 30.8615 33.9634 30.8555C33.9474 30.8449 33.9308 30.8355 33.9142 30.8259C33.9067 30.8214 33.8994 30.8165 33.8917 30.8122C33.8727 30.8019 33.8529 30.7926 33.8332 30.7835C33.8276 30.7809 33.8223 30.7779 33.8166 30.7754C33.7944 30.7657 33.7718 30.7572 33.749 30.7492C33.7454 30.748 33.7419 30.7464 33.7382 30.7451C33.7118 30.7363 33.6851 30.7285 33.658 30.7219C33.6304 30.7152 33.6027 30.7098 33.5746 30.7056C33.5198 30.6974 33.4651 30.6892 33.4103 30.681C32.4186 30.5395 31.4806 30.4731 30.5697 30.7651L30.5442 30.7731C30.5199 30.7811 30.4949 30.7898 30.4703 30.7984C29.796 31.039 29.1908 31.4455 28.7087 31.9815C28.654 32.0386 28.5998 32.0974 28.5448 32.1588C28.5077 32.2007 28.4704 32.2411 28.4329 32.2819C28.418 32.2979 28.4029 32.3139 28.3872 32.3302C28.3647 32.3538 28.3419 32.3767 28.3192 32.3997C28.2869 32.4326 28.2534 32.4654 28.2188 32.4982C28.1957 32.5205 28.1725 32.5429 28.1493 32.5644C28.1317 32.5807 28.113 32.5971 28.095 32.6136C28.066 32.6397 28.037 32.6657 28.0078 32.6908C27.9973 32.6999 27.9864 32.709 27.9758 32.7181C27.5776 33.0732 27.1036 33.3294 26.5913 33.4666C26.574 33.4704 26.5567 33.4742 26.5392 33.4776C26.5103 33.4835 26.4816 33.4891 26.4529 33.4936C26.4012 33.5016 26.3493 33.5088 26.297 33.5128C25.6994 33.56 25.1709 33.2979 24.7194 32.7309L30.4807 26.8767C30.6708 26.6739 30.9021 26.5157 31.1584 26.4131C31.4148 26.3104 31.6901 26.2658 31.9652 26.2822C33.312 26.3296 34.1954 27.0148 35.1307 27.7401C36.3611 28.6946 37.8553 29.853 40.3256 29.0899L42.2255 37.3878L40.2544 37.9397ZM46.6666 36.8037L44.3174 37.3585C44.2904 37.3642 44.2622 37.3588 44.2391 37.3435C44.2274 37.3365 44.2171 37.3271 44.2089 37.3159C44.2008 37.3048 44.1949 37.2921 44.1917 37.2786L41.7612 26.6605C41.7561 26.633 41.7613 26.6046 41.776 26.5809C41.7906 26.5573 41.8135 26.5401 41.84 26.5329L44.1838 25.9784C44.1908 25.9767 44.1979 25.9758 44.2051 25.9758C44.2292 25.9761 44.2526 25.9844 44.2716 25.9993C44.2907 26.0143 44.3045 26.0352 44.3108 26.0588L46.7448 36.6748C46.7501 36.7023 46.745 36.7309 46.7305 36.7548C46.716 36.7788 46.6932 36.7961 46.6666 36.8037ZM31.0001 9.9907C31.7302 9.9907 32.444 9.77069 33.0511 9.3585C33.6581 8.94632 34.1313 8.36046 34.4107 7.67501C34.6901 6.98957 34.7632 6.23533 34.6208 5.50767C34.4784 4.78 34.1268 4.1116 33.6105 3.58699C33.0942 3.06237 32.4364 2.7051 31.7203 2.56036C31.0042 2.41562 30.2619 2.48991 29.5873 2.77383C28.9128 3.05775 28.3362 3.53855 27.9306 4.15543C27.5249 4.77231 27.3084 5.49757 27.3084 6.23949C27.3091 7.23416 27.6982 8.1879 28.3904 8.89124C29.0826 9.59458 30.0212 9.99001 31.0001 9.9907ZM31.0001 4.45888C31.3467 4.45888 31.6855 4.56331 31.9736 4.75897C32.2618 4.95462 32.4864 5.23272 32.619 5.55808C32.7517 5.88344 32.7864 6.24147 32.7188 6.58687C32.6511 6.93227 32.4842 7.24955 32.2392 7.49857C31.9941 7.74759 31.6819 7.91718 31.3419 7.98589C31.002 8.05459 30.6497 8.01933 30.3295 7.88456C30.0093 7.74979 29.7356 7.52156 29.543 7.22874C29.3505 6.93592 29.2477 6.59166 29.2477 6.23949C29.2478 5.76728 29.4325 5.31445 29.7611 4.98056C30.0897 4.64667 30.5354 4.45894 31.0001 4.45888ZM62.0001 48.1774C61.9228 46.8235 61.4545 45.5228 60.6535 44.4379C59.8526 43.3531 58.7546 42.5323 57.497 42.0782C57.3475 42.024 57.1873 42.0078 57.0303 42.0311C56.8733 42.0544 56.7243 42.1164 56.5964 42.2117C56.0262 42.6338 55.339 42.8612 54.6336 42.8612C53.9282 42.8612 53.241 42.6338 52.6709 42.2117C52.543 42.1164 52.394 42.0544 52.237 42.0311C52.08 42.0078 51.9197 42.024 51.7703 42.0782C50.5124 42.5318 49.4143 43.3528 48.6138 44.4381C47.8133 45.5234 47.346 46.8248 47.2706 48.1789C47.2624 48.3257 47.2867 48.4725 47.3416 48.6086C47.3966 48.7446 47.4808 48.8664 47.5881 48.9651C49.5193 50.7407 52.0308 51.724 54.6353 51.724C57.2397 51.724 59.7513 50.7407 61.6824 48.9651C61.79 48.8662 61.8743 48.7442 61.9293 48.6079C61.9842 48.4716 62.0084 48.3245 62.0001 48.1774ZM54.6337 49.7534C52.676 49.7546 50.7772 49.0726 49.2551 47.8216C49.3763 47.0224 49.6896 46.2659 50.1673 45.6191C50.645 44.9724 51.2723 44.4553 51.9936 44.1138C52.7964 44.5843 53.7068 44.8319 54.6335 44.8319C55.5602 44.8319 56.4706 44.5843 57.2733 44.1138C57.9946 44.4558 58.622 44.973 59.1 45.6197C59.578 46.2665 59.892 47.0228 60.0141 47.8221C58.4912 49.073 56.5918 49.7548 54.6335 49.7534H54.6337ZM42.3302 11.9972C42.3934 11.8849 42.4778 11.7863 42.5785 11.7071C42.6792 11.6279 42.7943 11.5696 42.9172 11.5356C43.04 11.5016 43.1683 11.4925 43.2946 11.5089C43.4209 11.5253 43.5429 11.5668 43.6534 11.631C48.3349 14.3587 52.062 18.503 54.3149 23.4859L55.4379 21.3701C55.5599 21.14 55.7669 20.9686 56.0133 20.8936C56.2597 20.8186 56.5253 20.8462 56.7518 20.9702C56.9782 21.0942 57.1468 21.3045 57.2206 21.5549C57.2944 21.8052 57.2673 22.0752 57.1453 22.3052L55.0475 26.2575C54.9871 26.3715 54.9053 26.4722 54.8066 26.554C54.7079 26.6358 54.5943 26.697 54.4723 26.7341C54.3503 26.7713 54.2223 26.7836 54.0956 26.7704C53.9689 26.7572 53.846 26.7188 53.734 26.6573L49.8483 24.5292C49.7362 24.4678 49.6371 24.3845 49.5566 24.2842C49.4762 24.1839 49.416 24.0684 49.3794 23.9445C49.3429 23.8205 49.3307 23.6904 49.3437 23.5617C49.3566 23.4329 49.3943 23.308 49.4548 23.1941C49.5152 23.0802 49.5971 22.9795 49.6958 22.8977C49.7946 22.816 49.9082 22.7548 50.0302 22.7177C50.1522 22.6805 50.2802 22.6682 50.4069 22.6813C50.5336 22.6944 50.6565 22.7328 50.7686 22.7942L52.2111 23.5842C50.0993 19.2921 46.7875 15.729 42.691 13.3416C42.4677 13.212 42.3042 12.9975 42.2366 12.7453C42.1689 12.4932 42.2026 12.2241 42.3302 11.9972ZM54.6333 33.9217C53.9032 33.9217 53.1894 34.1417 52.5824 34.5539C51.9753 34.9661 51.5021 35.5519 51.2227 36.2374C50.9433 36.9228 50.8702 37.6771 51.0126 38.4047C51.155 39.1324 51.5066 39.8008 52.0229 40.3254C52.5392 40.85 53.197 41.2073 53.9131 41.352C54.6292 41.4968 55.3715 41.4225 56.0461 41.1386C56.7206 40.8547 57.2972 40.3739 57.7028 39.757C58.1085 39.1401 58.325 38.4148 58.325 37.6729C58.3239 36.6784 57.9346 35.7249 57.2426 35.0217C56.5505 34.3184 55.6121 33.9229 54.6333 33.9217ZM54.6333 39.4535C54.2868 39.4536 53.9479 39.3491 53.6598 39.1535C53.3716 38.9579 53.1469 38.6798 53.0143 38.3544C52.8816 38.0291 52.8469 37.671 52.9145 37.3256C52.9821 36.9802 53.149 36.6629 53.3941 36.4139C53.6391 36.1648 53.9514 35.9952 54.2913 35.9265C54.6312 35.8578 54.9836 35.8931 55.3038 36.0278C55.624 36.1626 55.8977 36.3908 56.0902 36.6837C56.2828 36.9765 56.3856 37.3207 56.3856 37.6729C56.385 38.145 56.2003 38.5975 55.8718 38.9313C55.5433 39.2651 55.0979 39.4529 54.6333 39.4535ZM45.3302 54.8313C45.4004 54.9393 45.4489 55.0603 45.4731 55.1873C45.4973 55.3144 45.4966 55.445 45.471 55.5718C45.4455 55.6985 45.3957 55.819 45.3243 55.9262C45.253 56.0334 45.1616 56.1252 45.0553 56.1965C40.7261 59.0942 35.6368 60.5964 30.4535 60.5065C25.2702 60.4167 20.2343 58.7389 16.0049 55.6928L16.2387 57.8327C16.2671 58.0924 16.1928 58.3529 16.0321 58.557C15.8714 58.761 15.6376 58.8919 15.382 58.9208C15.3461 58.9248 15.3099 58.9268 15.2737 58.9268C15.0353 58.9265 14.8053 58.8369 14.6278 58.6752C14.4502 58.5134 14.3375 58.2909 14.3112 58.0501L13.8238 53.5889C13.8097 53.4602 13.8207 53.33 13.8562 53.2057C13.8917 53.0814 13.951 52.9653 14.0306 52.8643C14.1102 52.7632 14.2087 52.6791 14.3203 52.6168C14.432 52.5544 14.5546 52.515 14.6812 52.5008L19.0716 52.0086C19.1982 51.9944 19.3263 52.0057 19.4486 52.0419C19.5708 52.078 19.6849 52.1383 19.7843 52.2192C19.8837 52.3001 19.9664 52.4001 20.0277 52.5135C20.089 52.627 20.1278 52.7515 20.1417 52.8802C20.1557 53.0088 20.1445 53.1389 20.109 53.2632C20.0734 53.3874 20.0141 53.5034 19.9345 53.6043C19.8548 53.7053 19.7564 53.7894 19.6448 53.8517C19.5332 53.914 19.4106 53.9534 19.284 53.9675L17.277 54.1922C21.1831 56.9594 25.8161 58.4728 30.5774 58.5368C35.3387 58.6009 40.0095 57.2127 43.9863 54.5515C44.0926 54.4802 44.2117 54.4308 44.3368 54.4063C44.4619 54.3817 44.5905 54.3825 44.7153 54.4085C44.8401 54.4344 44.9586 54.4852 45.0641 54.5577C45.1697 54.6303 45.2601 54.7232 45.3302 54.8313ZM14.7298 48.1774C14.6525 46.8235 14.1842 45.5228 13.3832 44.438C12.5823 43.3531 11.4843 42.5323 10.2267 42.0782C10.0773 42.024 9.91704 42.0078 9.76004 42.0311C9.60304 42.0544 9.45404 42.1164 9.32611 42.2117C8.75596 42.6338 8.06875 42.8612 7.36336 42.8612C6.65796 42.8612 5.97075 42.6338 5.40061 42.2117C5.27268 42.1164 5.12368 42.0543 4.96668 42.0311C4.80968 42.0078 4.64945 42.024 4.50004 42.0782C3.24205 42.5318 2.1439 43.3527 1.34334 44.438C0.542784 45.5233 0.0754845 46.8247 7.06778e-05 48.1789C-0.00806979 48.3257 0.0162316 48.4725 0.071193 48.6086C0.126154 48.7446 0.210382 48.8664 0.3177 48.9651C2.24886 50.7407 4.76042 51.724 7.36487 51.724C9.96933 51.724 12.4809 50.7407 14.412 48.9651C14.5196 48.8662 14.6039 48.7442 14.6589 48.6079C14.7139 48.4716 14.7381 48.3245 14.7298 48.1774ZM7.3633 49.7534C5.40561 49.7546 3.5069 49.0726 1.9848 47.8216C2.10597 47.0224 2.41929 46.2659 2.89698 45.6191C3.37467 44.9724 4.00198 44.4553 4.72333 44.1138C5.52608 44.5843 6.43648 44.8319 7.36318 44.8319C8.28988 44.8319 9.20027 44.5843 10.003 44.1138C10.7244 44.4558 11.3519 44.973 11.8299 45.6198C12.308 46.2665 12.6221 47.0229 12.7443 47.8222C11.2212 49.0731 9.3217 49.7549 7.3633 49.7534ZM6.09993 27.2889C7.62877 21.7721 10.895 16.9165 15.3984 13.4657L13.4392 13.2461C13.1835 13.2175 12.9496 13.0869 12.7887 12.8829C12.6279 12.679 12.5533 12.4185 12.5815 12.1587C12.6097 11.899 12.7383 11.6612 12.939 11.4978C13.1397 11.3343 13.3961 11.2586 13.6517 11.2872L18.042 11.7794C18.2976 11.8081 18.5315 11.9388 18.6923 12.1427C18.8531 12.3466 18.9277 12.6071 18.8995 12.8668L18.4152 17.328C18.389 17.5689 18.2763 17.7916 18.0987 17.9535C17.9211 18.1154 17.691 18.2051 17.4525 18.2054C17.4166 18.2054 17.3807 18.2034 17.3451 18.1994C17.0894 18.1708 16.8555 18.0401 16.6946 17.8362C16.5338 17.6323 16.4593 17.3718 16.4875 17.112L16.7254 14.9191C12.4809 18.1154 9.40066 22.6531 7.96804 27.8202C7.89875 28.0719 7.73391 28.2853 7.50978 28.4134C7.28564 28.5416 7.02058 28.5741 6.7729 28.5037C6.52523 28.4332 6.31522 28.2657 6.18908 28.038C6.06294 27.8102 6.031 27.5409 6.10029 27.2892L6.09993 27.2889ZM31.0001 20.2873C33.6039 20.2898 36.1154 19.3075 38.0456 17.5317C38.1529 17.4331 38.2371 17.3113 38.292 17.1753C38.347 17.0393 38.3713 16.8925 38.3632 16.7457C38.2872 15.3915 37.8199 14.0902 37.0198 13.0045C36.2196 11.9188 35.1222 11.0969 33.8648 10.6417C33.7152 10.5872 33.5547 10.5708 33.3974 10.594C33.2401 10.6172 33.0909 10.6793 32.9628 10.7749C32.3936 11.1992 31.706 11.428 31.0001 11.428C30.2941 11.428 29.6066 11.1992 29.0374 10.7749C28.9093 10.6793 28.76 10.6172 28.6027 10.594C28.4454 10.5708 28.2849 10.5872 28.1354 10.6417C26.8781 11.0975 25.7808 11.9193 24.9802 13.0046C24.1796 14.09 23.7113 15.3908 23.6336 16.7449C23.6253 16.8919 23.6495 17.039 23.7044 17.1752C23.7594 17.3115 23.8437 17.4335 23.9512 17.5324C25.8825 19.3084 28.3953 20.2905 31.0001 20.2873ZM28.3602 12.6774C29.1623 13.15 30.073 13.3988 31.0001 13.3988C31.9272 13.3988 32.8379 13.15 33.6399 12.6774C34.3612 13.0199 34.9884 13.5376 35.4661 14.1848C35.9438 14.8319 36.2573 15.5887 36.3789 16.3881C34.8547 17.6359 32.9563 18.3164 30.999 18.3164C29.0417 18.3164 27.1432 17.6359 25.619 16.3881C25.7417 15.5887 26.0559 14.8322 26.5339 14.1851C27.0119 13.5381 27.639 13.0203 28.3602 12.6774ZM7.3633 41.4241C8.09344 41.4241 8.80719 41.2041 9.41428 40.7919C10.0214 40.3797 10.4945 39.7939 10.774 39.1084C11.0534 38.423 11.1265 37.6688 10.984 36.9411C10.8416 36.2134 10.49 35.545 9.9737 35.0204C9.45741 34.4958 8.79962 34.1385 8.08351 33.9938C7.36739 33.849 6.62512 33.9233 5.95056 34.2073C5.276 34.4912 4.69944 34.972 4.29379 35.5889C3.88815 36.2057 3.67163 36.931 3.67163 37.6729C3.67276 38.6674 4.06206 39.6209 4.75414 40.3242C5.44621 41.0274 6.38455 41.423 7.3633 41.4241ZM7.3633 35.8923C7.70988 35.8923 8.04868 35.9967 8.33685 36.1924C8.62502 36.3881 8.84962 36.6661 8.98226 36.9915C9.11489 37.3169 9.14959 37.6749 9.08197 38.0203C9.01436 38.3657 8.84747 38.683 8.6024 38.932C8.35732 39.181 8.04509 39.3506 7.70516 39.4193C7.36524 39.488 7.0129 39.4528 6.6927 39.318C6.3725 39.1832 6.09882 38.955 5.90627 38.6622C5.71372 38.3694 5.61095 38.0251 5.61095 37.6729C5.6114 37.2008 5.79616 36.7481 6.12468 36.4143C6.45321 36.0804 6.89866 35.8926 7.3633 35.8921V35.8923Z" fill="black"/>
</g>
<defs>
<clipPath id="clip0_283_11142">
<rect width="62" height="63" fill="white"/>
</clipPath>
</defs>
</svg>
