<svg width="64" height="64" viewBox="0 0 64 64" fill="none" xmlns="http://www.w3.org/2000/svg">
<path d="M41.5552 15.9087C40.9722 15.3262 40.1973 15.0049 39.373 15.0049C38.5488 15.0049 37.7739 15.3262 37.1914 15.9087C36.6084 16.4917 36.2871 17.2666 36.2871 18.0908C36.2871 18.915 36.6084 19.6899 37.1909 20.2725L42.4478 25.5293C43.0303 26.1118 43.8057 26.4331 44.6299 26.4331C45.4541 26.4331 46.2285 26.1118 46.8115 25.5293L58.043 14.2979C58.626 13.7148 58.9468 12.9399 58.9468 12.1162C58.9468 11.292 58.626 10.5171 58.043 9.93408C57.4604 9.35107 56.6851 9.03027 55.8608 9.03027C55.0366 9.03027 54.2617 9.35107 53.6792 9.93408L52.4409 11.1724C51.5234 10.4722 50.5166 9.91064 49.4497 9.50439V8.10059C49.4497 6.39893 48.0654 5.01465 46.3643 5.01465H36.6885V3.94336C36.6885 1.76904 34.9194 0 32.7451 0H21.9546C19.7803 0 18.0112 1.76904 18.0112 3.94336V8.39893C18.0112 9.60693 18.9941 10.5898 20.2021 10.5898H34.4976C35.7056 10.5898 36.6885 9.60693 36.6885 8.39893V6.89258H46.3638C47.0298 6.89258 47.5718 7.43457 47.5718 8.10059V8.96533C46.7988 8.80908 46.0078 8.72607 45.2075 8.72607C38.6309 8.72607 33.2803 14.0767 33.2803 20.6533C33.2803 27.23 38.6309 32.5806 45.2075 32.5806C46.0098 32.5806 46.8008 32.5 47.5718 32.3452V60.9146C47.5718 61.5806 47.0298 62.1221 46.3638 62.1221H8.33545C7.66943 62.1221 7.12793 61.5806 7.12793 60.9146V8.10059C7.12793 7.43457 7.66943 6.89258 8.33545 6.89258H14.5771C15.0957 6.89258 15.5161 6.47217 15.5161 5.95361C15.5161 5.43506 15.0957 5.01465 14.5771 5.01465H8.33545C6.63428 5.01465 5.25 6.39893 5.25 8.10059V60.9146C5.25 62.6157 6.63428 64 8.33545 64H46.3643C48.0654 64 49.4497 62.6157 49.4497 60.9146V31.8022C50.9448 31.2334 52.3237 30.3652 53.5034 29.2231C55.7339 27.0635 57.0215 24.168 57.1279 21.0698C57.1455 20.5518 56.7402 20.1172 56.2217 20.0991C55.707 20.082 55.269 20.4868 55.251 21.0054C55.1011 25.3662 52.2334 28.9668 48.2954 30.2231C48.2412 30.2358 48.1885 30.2524 48.1387 30.2744C47.2119 30.5532 46.228 30.7026 45.2075 30.7026C39.6665 30.7026 35.1582 26.1943 35.1582 20.6533C35.1582 15.1123 39.6665 10.604 45.2075 10.604C47.3359 10.604 49.3931 11.2769 51.0996 12.5137L44.6299 18.9839L41.5552 15.9087ZM34.8105 8.39893C34.8105 8.57178 34.6704 8.71191 34.4976 8.71191H20.2021C20.0293 8.71191 19.8892 8.57178 19.8892 8.39893V3.94336C19.8892 2.8042 20.8154 1.87793 21.9546 1.87793H32.7451C33.8838 1.87793 34.8105 2.8042 34.8105 3.94336V8.39893ZM55.0073 11.2622C55.2354 11.0337 55.5386 10.9082 55.8608 10.9082C56.1836 10.9082 56.4868 11.0342 56.7153 11.2622C57.186 11.7329 57.186 12.4995 56.7153 12.9702L45.4834 24.2017C45.2554 24.4297 44.9521 24.5557 44.6294 24.5557C44.3066 24.5557 44.0034 24.4297 43.7754 24.2017L38.5186 18.9448C38.2905 18.7168 38.165 18.4136 38.165 18.0908C38.165 17.7681 38.2905 17.4648 38.519 17.2368C38.7471 17.0088 39.0503 16.8828 39.373 16.8828C39.6953 16.8828 39.999 17.0088 40.2271 17.2368L43.9658 20.9756C44.3325 21.3423 44.9268 21.3423 45.2935 20.9756L55.0073 11.2622Z" fill="black"/>
<path d="M30.8047 23.5684H19.3638C18.8452 23.5684 18.4253 23.9888 18.4253 24.5073C18.4253 25.0254 18.8452 25.4458 19.3638 25.4458H30.8047C31.3232 25.4458 31.7437 25.0254 31.7437 24.5073C31.7437 23.9888 31.3232 23.5684 30.8047 23.5684Z" fill="black"/>
<path d="M17.5718 13.877H11.2539C10.7354 13.877 10.3149 14.2974 10.3149 14.8159C10.3149 15.3345 10.7354 15.7549 11.2539 15.7549H17.5718C18.0903 15.7549 18.5107 15.3345 18.5107 14.8159C18.5107 14.2974 18.0903 13.877 17.5718 13.877Z" fill="black"/>
<path d="M19.3638 29.8032H30.8047C31.3232 29.8032 31.7437 29.3828 31.7437 28.8643C31.7437 28.3462 31.3232 27.9258 30.8047 27.9258H19.3638C18.8452 27.9258 18.4253 28.3462 18.4253 28.8643C18.4253 29.3828 18.8452 29.8032 19.3638 29.8032Z" fill="black"/>
<path d="M34.7568 34.9551H19.3638C18.8452 34.9551 18.4253 35.3755 18.4253 35.894C18.4253 36.4126 18.8452 36.833 19.3638 36.833H34.7568C35.2754 36.833 35.6958 36.4126 35.6958 35.894C35.6958 35.3755 35.2754 34.9551 34.7568 34.9551Z" fill="black"/>
<path d="M19.3638 41.1904H27.0605C27.5791 41.1904 27.999 40.77 27.999 40.2515C27.999 39.7329 27.5791 39.3125 27.0605 39.3125H19.3638C18.8452 39.3125 18.4253 39.7329 18.4253 40.2515C18.4253 40.77 18.8452 41.1904 19.3638 41.1904Z" fill="black"/>
<path d="M19.3638 48.2334H30.8047C31.3232 48.2334 31.7437 47.813 31.7437 47.2944C31.7437 46.7759 31.3232 46.3555 30.8047 46.3555H19.3638C18.8452 46.3555 18.4253 46.7759 18.4253 47.2944C18.4253 47.813 18.8452 48.2334 19.3638 48.2334Z" fill="black"/>
<path d="M19.3638 52.5903H34.7568C35.2754 52.5903 35.6958 52.1699 35.6958 51.6514C35.6958 51.1333 35.2754 50.7129 34.7568 50.7129H19.3638C18.8452 50.7129 18.4253 51.1333 18.4253 51.6514C18.4253 52.1699 18.8452 52.5903 19.3638 52.5903Z" fill="black"/>
<path d="M13.2466 22.7539C11.1553 22.7539 9.4541 24.4551 9.4541 26.5464C9.4541 28.6377 11.1553 30.3389 13.2466 30.3389C15.3379 30.3389 17.0391 28.6377 17.0391 26.5464C17.0391 24.4551 15.3379 22.7539 13.2466 22.7539ZM13.2466 28.4609C12.1909 28.4609 11.332 27.6021 11.332 26.5464C11.332 25.4907 12.1909 24.6318 13.2466 24.6318C14.3022 24.6318 15.1611 25.4907 15.1611 26.5464C15.1611 27.6021 14.3022 28.4609 13.2466 28.4609Z" fill="black"/>
<path d="M13.2466 34.2812C11.1553 34.2812 9.4541 35.9829 9.4541 38.0737C9.4541 40.165 11.1553 41.8662 13.2466 41.8662C15.3379 41.8662 17.0391 40.165 17.0391 38.0737C17.0391 35.9829 15.3379 34.2812 13.2466 34.2812ZM13.2466 39.9888C12.1909 39.9888 11.332 39.1299 11.332 38.0742C11.332 37.0181 12.1909 36.1592 13.2466 36.1592C14.3022 36.1592 15.1611 37.0181 15.1611 38.0742C15.1611 39.1299 14.3022 39.9888 13.2466 39.9888Z" fill="black"/>
<path d="M13.2466 45.6797C11.1553 45.6797 9.4541 47.3809 9.4541 49.4722C9.4541 51.5635 11.1553 53.2646 13.2466 53.2646C15.3379 53.2646 17.0391 51.5635 17.0391 49.4722C17.0391 47.3809 15.3379 45.6797 13.2466 45.6797ZM13.2466 51.3867C12.1909 51.3867 11.332 50.5278 11.332 49.4722C11.332 48.4165 12.1909 47.5576 13.2466 47.5576C14.3022 47.5576 15.1611 48.4165 15.1611 49.4722C15.1611 50.5278 14.3022 51.3867 13.2466 51.3867Z" fill="black"/>
</svg>
