<svg width="70" height="69" viewBox="0 0 70 69" fill="none" xmlns="http://www.w3.org/2000/svg">
<path d="M39.724 42.9391C39.5416 42.9393 39.3624 42.8924 39.2042 42.803C39.046 42.7135 38.9144 42.5848 38.8224 42.4295L34.547 35.2182C34.2518 34.7209 34.0963 34.1551 34.0962 33.5789V22.7021C34.0962 22.4294 34.2061 22.1678 34.4017 21.975C34.5974 21.7822 34.8627 21.6738 35.1393 21.6738C35.416 21.6738 35.6813 21.7822 35.877 21.975C36.0726 22.1678 36.1825 22.4294 36.1825 22.7021V33.5789C36.1825 33.7904 36.2396 33.998 36.348 34.1805L40.6235 41.3923C40.716 41.5484 40.7651 41.7258 40.7658 41.9067C40.7666 42.0875 40.7189 42.2653 40.6277 42.4222C40.5365 42.5791 40.4049 42.7095 40.2462 42.8002C40.0876 42.891 39.9074 42.9389 39.724 42.9391Z" fill="black"/>
<path d="M52.6081 44.0059C54.3534 41.0173 55.272 37.6293 55.272 34.1809C55.272 30.7325 54.3534 27.3445 52.6081 24.3559C52.5989 24.3228 52.5878 24.2903 52.575 24.2584C52.5483 24.2243 52.5193 24.1919 52.4883 24.1616C50.7428 21.2376 48.2702 18.8003 45.3038 17.0798C45.2805 17.0481 45.2511 17.0213 45.2172 17.001C45.1833 16.9807 45.1456 16.9672 45.1064 16.9614C42.0746 15.2413 38.6377 14.336 35.1396 14.3359C31.6414 14.3359 28.2046 15.2412 25.1728 16.9613C25.1335 16.9671 25.0957 16.9805 25.0618 17.0009C25.0278 17.0212 24.9983 17.0481 24.975 17.0798C22.0082 18.8005 19.5353 21.2383 17.7898 24.1628C17.7592 24.1928 17.7307 24.2247 17.7043 24.2584C17.6918 24.2897 17.6808 24.3217 17.6717 24.3541C15.9258 27.3432 15.0068 30.7318 15.0068 34.1809C15.0068 37.63 15.9258 41.0186 17.6717 44.0077C17.6808 44.0401 17.6918 44.0721 17.7043 44.1034C17.7402 44.1596 17.7815 44.2123 17.8278 44.2606C19.5711 47.158 22.0298 49.5734 24.975 51.282C25.0057 51.3126 25.0385 51.3411 25.0731 51.3674C25.1174 51.3892 25.1633 51.4078 25.2103 51.4231C28.2334 53.1286 31.6562 54.0258 35.1394 54.0258C38.6226 54.0258 42.0454 53.1286 45.0685 51.4231C45.1155 51.4078 45.1614 51.3892 45.2057 51.3674C45.2403 51.3411 45.2731 51.3126 45.3038 51.282C48.248 49.574 50.706 47.1597 52.4492 44.2637C52.4964 44.2145 52.5386 44.1608 52.575 44.1034C52.5878 44.0715 52.5989 44.039 52.6081 44.0059ZM45.044 49.0341L43.8982 47.0777C43.8297 46.9607 43.7385 46.8582 43.6298 46.776C43.5211 46.6937 43.3971 46.6334 43.2647 46.5984C43.1324 46.5635 42.9944 46.5546 42.8585 46.5722C42.7227 46.5898 42.5917 46.6336 42.473 46.7011C42.3544 46.7686 42.2504 46.8585 42.1669 46.9657C42.0835 47.0728 42.0223 47.1951 41.9869 47.3255C41.9514 47.456 41.9423 47.592 41.9602 47.7259C41.9781 47.8598 42.0225 47.9889 42.091 48.1059L43.2338 50.0572C41.038 51.1483 38.6377 51.7815 36.1826 51.9173V49.6669C36.1826 49.3942 36.0726 49.1326 35.877 48.9398C35.6814 48.747 35.4161 48.6386 35.1394 48.6386C34.8627 48.6386 34.5974 48.747 34.4018 48.9398C34.2062 49.1326 34.0963 49.3942 34.0963 49.6669V51.9173C31.6412 51.7815 29.2408 51.1483 27.0451 50.0572L28.1878 48.1059C28.2564 47.9889 28.3009 47.8598 28.3188 47.7259C28.3368 47.5919 28.3277 47.4558 28.2923 47.3253C28.2568 47.1948 28.1956 47.0725 28.1122 46.9653C28.0288 46.8581 27.9247 46.7682 27.806 46.7007C27.6873 46.6331 27.5563 46.5893 27.4204 46.5717C27.2845 46.5541 27.1465 46.563 27.0141 46.5981C26.8817 46.6331 26.7576 46.6935 26.6489 46.7757C26.5403 46.858 26.4491 46.9606 26.3806 47.0777L25.2348 49.0341C23.182 47.6992 21.4253 45.9676 20.071 43.9441L22.0557 42.8146C22.2952 42.6781 22.47 42.4535 22.5415 42.1902C22.613 41.9268 22.5756 41.6462 22.4373 41.41C22.299 41.1739 22.0712 41.0015 21.8041 40.9309C21.5369 40.8602 21.2522 40.897 21.0126 41.0332L19.0331 42.1598C17.9262 39.9953 17.2838 37.6292 17.146 35.2092H19.4295C19.7062 35.2092 19.9715 35.1008 20.1672 34.908C20.3628 34.7152 20.4727 34.4536 20.4727 34.1809C20.4727 33.9082 20.3628 33.6467 20.1672 33.4538C19.9715 33.261 19.7062 33.1527 19.4295 33.1527H17.146C17.2838 30.7326 17.9262 28.3665 19.033 26.202L21.0126 27.3286C21.2522 27.4648 21.5369 27.5016 21.8041 27.431C22.0712 27.3603 22.299 27.188 22.4373 26.9518C22.5756 26.7157 22.613 26.4351 22.5415 26.1717C22.47 25.9083 22.2952 25.6837 22.0557 25.5473L20.071 24.4177C21.4253 22.3942 23.182 20.6626 25.2348 19.3276L26.3806 21.2841C26.4491 21.4011 26.5403 21.5037 26.6489 21.586C26.7576 21.6683 26.8817 21.7287 27.0141 21.7637C27.1465 21.7987 27.2845 21.8077 27.4204 21.7901C27.5563 21.7725 27.6873 21.7286 27.806 21.6611C27.9247 21.5936 28.0288 21.5036 28.1122 21.3964C28.1956 21.2893 28.2568 21.1669 28.2923 21.0364C28.3277 20.9059 28.3368 20.7698 28.3188 20.6359C28.3009 20.502 28.2564 20.3728 28.1878 20.2558L27.045 18.3045C29.2408 17.2135 31.6411 16.5803 34.0963 16.4444V18.6955C34.0963 18.9682 34.2062 19.2297 34.4018 19.4225C34.5974 19.6154 34.8627 19.7237 35.1394 19.7237C35.4161 19.7237 35.6814 19.6154 35.877 19.4225C36.0726 19.2297 36.1826 18.9682 36.1826 18.6955V16.4445C38.6377 16.5804 41.038 17.2136 43.2338 18.3046L42.091 20.2559C41.9527 20.4921 41.9152 20.7729 41.9869 21.0363C42.0585 21.2998 42.2334 21.5244 42.473 21.6607C42.7127 21.7971 42.9975 21.834 43.2647 21.7634C43.532 21.6928 43.7599 21.5204 43.8982 21.2842L45.044 19.3277C47.0968 20.6627 48.8536 22.3943 50.2079 24.4179L48.2231 25.5473C47.9836 25.6837 47.8089 25.9083 47.7373 26.1717C47.6658 26.4351 47.7032 26.7157 47.8415 26.9518C47.9798 27.188 48.2076 27.3603 48.4747 27.431C48.7419 27.5016 49.0266 27.4648 49.2662 27.3286L51.2458 26.2022C52.3527 28.3666 52.995 30.7327 53.1329 33.1527H50.8498C50.5732 33.1527 50.3078 33.261 50.1122 33.4539C49.9166 33.6467 49.8067 33.9082 49.8067 34.1809C49.8067 34.4537 49.9166 34.7152 50.1122 34.908C50.3078 35.1009 50.5732 35.2092 50.8498 35.2092H53.1329C52.995 37.6292 52.3527 39.9953 51.2458 42.1597L49.2662 41.0332C49.0266 40.897 48.7419 40.8602 48.4747 40.9309C48.2076 41.0015 47.9798 41.1739 47.8415 41.41C47.7032 41.6462 47.6658 41.9268 47.7373 42.1902C47.8089 42.4535 47.9836 42.6781 48.2231 42.8146L50.2079 43.944C48.8536 45.9675 47.0968 47.6992 45.044 49.0341Z" fill="black"/>
<path d="M61.972 51.1816L58.0392 52.1843C62.0725 47.0667 64.2334 40.7561 64.1715 34.276C64.1096 27.7959 61.8285 21.5265 57.6982 16.4847C53.5679 11.4429 47.8307 7.92439 41.4172 6.49999C35.0037 5.07559 28.29 5.82881 22.3653 8.63747C16.4406 11.4461 11.6523 16.1455 8.77705 21.9732C5.90185 27.801 5.10841 34.4154 6.52543 40.7434C7.94246 47.0715 11.4868 52.742 16.5836 56.8353C21.6804 60.9286 28.0307 63.2044 34.6043 63.2937H34.6186C34.8953 63.2955 35.1613 63.1888 35.3582 62.9972C35.555 62.8056 35.6666 62.5447 35.6684 62.272C35.6701 61.9993 35.5619 61.7371 35.3675 61.543C35.1731 61.349 34.9085 61.239 34.6318 61.2372C28.5151 61.1594 22.6045 59.0464 17.8593 55.241C13.1141 51.4356 9.8127 46.1612 8.49093 40.2738C7.16917 34.3863 7.90458 28.2314 10.5778 22.8077C13.2511 17.3841 17.7053 13.0101 23.2175 10.3955C28.7298 7.78098 34.9767 7.07932 40.9445 8.40442C46.9122 9.72952 52.2505 13.0036 56.0931 17.6954C59.9357 22.3871 62.057 28.2212 62.1129 34.2508C62.1688 40.2805 60.1558 46.1518 56.4008 50.9119L56.72 46.8719C56.7415 46.6001 56.6525 46.331 56.4727 46.1238C56.2929 45.9166 56.0369 45.7883 55.7612 45.7672C55.4854 45.746 55.2124 45.8337 55.0022 46.0109C54.792 46.1882 54.6619 46.4405 54.6404 46.7123L54.1366 53.0852C54.1171 53.3427 54.1602 53.6011 54.2623 53.839C54.3643 54.0768 54.5224 54.2872 54.7234 54.4528C54.9244 54.6184 55.1626 54.7344 55.4182 54.7912C55.6737 54.848 55.9394 54.8439 56.193 54.7793L62.4939 53.173C62.6266 53.1392 62.7512 53.08 62.8606 52.9988C62.97 52.9175 63.0622 52.8158 63.1317 52.6995C63.2013 52.5831 63.2469 52.4544 63.266 52.3207C63.2851 52.187 63.2773 52.0508 63.243 51.9201C63.2088 51.7893 63.1487 51.6665 63.0663 51.5586C62.9839 51.4508 62.8807 51.3599 62.7626 51.2914C62.6446 51.2228 62.514 51.1778 62.3784 51.159C62.2427 51.1402 62.1046 51.1479 61.972 51.1816Z" fill="black"/>
</svg>
